{"glyphs":{"0":{"ha":997,"x_min":0,"x_max":938,"o":"m 0 625 l 63 688 l 63 875 l 125 875 l 188 938 l 313 938 l 250 875 l 188 875 l 188 813 l 125 813 l 125 688 l 63 625 l 0 625 m 563 313 l 563 625 l 500 625 l 500 688 l 438 625 l 438 313 l 563 313 m 63 125 l 63 313 l 0 375 l 0 625 l 63 563 l 63 375 l 125 313 l 125 188 l 188 188 l 188 125 l 250 63 l 375 63 l 375 0 l 625 0 l 688 63 l 750 63 l 750 125 l 813 125 l 875 188 l 875 813 l 813 875 l 688 875 l 688 938 l 875 938 l 875 875 l 938 813 l 938 188 l 875 125 l 875 63 l 813 63 l 750 0 l 688 0 l 688 -62 l 375 -62 l 313 0 l 188 0 l 188 63 l 125 125 l 63 125 m 375 250 l 375 625 l 438 688 l 438 750 l 500 750 l 563 688 l 625 688 l 625 313 l 563 250 l 375 250 z "},"1":{"ha":774,"x_min":0,"x_max":688,"o":"m 313 0 l 313 563 l 250 500 l 250 438 l 188 438 l 125 500 l 63 500 l 63 563 l 0 625 l 0 750 l 63 750 l 125 813 l 125 875 l 250 875 l 313 938 l 313 1000 l 625 1000 l 688 938 l 375 938 l 313 875 l 313 813 l 188 813 l 125 750 l 125 688 l 63 688 l 63 625 l 125 563 l 188 563 l 188 500 l 250 563 l 250 625 l 313 625 l 375 563 l 375 63 l 688 63 l 688 0 l 313 0 z "},"2":{"ha":978,"x_min":0,"x_max":938,"o":"m 875 625 l 875 688 l 938 625 l 875 625 m 0 63 l 0 188 l 63 250 l 63 313 l 125 313 l 188 375 l 188 438 l 313 438 l 375 500 l 375 563 l 438 563 l 500 625 l 500 688 l 438 688 l 438 625 l 375 563 l 63 563 l 63 813 l 125 875 l 125 938 l 250 938 l 313 1000 l 750 1000 l 750 938 l 813 938 l 875 875 l 875 813 l 938 750 l 875 750 l 813 813 l 813 875 l 750 875 l 688 938 l 313 938 l 313 875 l 188 875 l 125 813 l 125 625 l 375 625 l 375 688 l 438 750 l 563 750 l 563 625 l 500 563 l 500 500 l 438 500 l 375 438 l 375 375 l 250 375 l 188 313 l 188 250 l 125 250 l 63 188 l 63 63 l 875 63 l 938 0 l 63 0 l 0 63 m 625 313 l 688 375 l 688 438 l 750 438 l 813 500 l 813 563 l 875 563 l 938 500 l 875 500 l 813 438 l 813 375 l 750 375 l 688 313 l 875 313 l 938 250 l 688 250 l 625 313 m 875 125 l 875 188 l 938 125 l 875 125 z "},"3":{"ha":985,"x_min":0,"x_max":938,"o":"m 0 125 l 0 250 l 63 313 l 563 313 l 500 375 l 250 375 l 250 625 l 313 625 l 375 688 l 125 688 l 63 750 l 63 938 l 125 938 l 125 750 l 438 750 l 500 688 l 438 625 l 375 625 l 375 563 l 313 563 l 313 438 l 563 438 l 563 375 l 625 313 l 563 250 l 63 250 l 63 188 l 125 188 l 125 125 l 188 63 l 375 63 l 375 0 l 625 0 l 688 63 l 750 63 l 750 125 l 813 125 l 875 188 l 875 438 l 813 500 l 750 500 l 750 563 l 688 625 l 750 688 l 813 688 l 813 750 l 875 750 l 875 938 l 938 938 l 938 688 l 875 688 l 813 625 l 750 625 l 813 563 l 875 563 l 875 500 l 938 438 l 938 188 l 875 125 l 875 63 l 813 63 l 750 0 l 688 0 l 688 -62 l 375 -62 l 313 0 l 125 0 l 125 63 l 63 125 l 0 125 z "},"4":{"ha":1021,"x_min":0,"x_max":1000,"o":"m 375 438 l 438 438 l 438 500 l 375 438 m 63 438 l 63 188 l 438 188 l 500 125 l 500 63 l 813 63 l 813 188 l 938 188 l 938 438 l 813 438 l 813 938 l 438 938 l 438 875 l 375 813 l 375 750 l 313 750 l 250 688 l 250 625 l 188 563 l 188 500 l 125 500 l 63 438 m 375 375 l 313 438 l 375 500 l 375 563 l 438 563 l 500 500 l 500 375 l 375 375 m 63 125 l 0 188 l 0 438 l 63 500 l 63 563 l 125 563 l 188 625 l 188 688 l 250 750 l 250 813 l 313 813 l 375 875 l 375 938 l 438 1000 l 875 1000 l 875 500 l 1000 500 l 1000 125 l 875 125 l 875 0 l 500 0 l 438 63 l 438 125 l 63 125 z "},"5":{"ha":958,"x_min":0,"x_max":938,"o":"m 375 625 l 375 750 l 813 750 l 813 938 l 875 938 l 875 688 l 750 688 l 750 625 l 813 625 l 875 563 l 875 500 l 938 438 l 938 375 l 875 375 l 875 438 l 813 500 l 813 563 l 750 563 l 688 625 l 375 625 m 375 375 l 438 313 l 500 313 l 500 375 l 375 375 m 0 125 l 0 375 l 63 375 l 63 750 l 125 813 l 125 938 l 188 938 l 188 813 l 125 750 l 125 438 l 563 438 l 563 313 l 500 250 l 375 250 l 375 313 l 63 313 l 63 188 l 125 188 l 125 125 l 188 63 l 375 63 l 375 0 l 625 0 l 688 63 l 750 63 l 750 125 l 813 125 l 875 188 l 875 375 l 938 313 l 938 188 l 875 125 l 875 63 l 813 63 l 750 0 l 688 0 l 688 -62 l 375 -62 l 313 0 l 125 0 l 125 63 l 63 125 l 0 125 z "},"6":{"ha":961,"x_min":0,"x_max":938,"o":"m 625 625 l 563 688 l 563 813 l 625 813 l 688 875 l 688 938 l 813 938 l 813 875 l 750 875 l 688 813 l 688 750 l 625 750 l 625 688 l 750 688 l 813 625 l 875 625 l 875 563 l 938 500 l 938 438 l 875 438 l 875 500 l 813 563 l 750 563 l 750 625 l 625 625 m 875 313 l 875 438 l 938 375 l 938 313 l 875 313 m 875 188 l 875 313 l 938 250 l 938 188 l 875 188 m 438 375 l 438 313 l 563 313 l 563 375 l 438 375 m 0 188 l 0 438 l 63 500 l 63 563 l 125 625 l 125 688 l 188 688 l 188 813 l 250 813 l 313 875 l 313 938 l 438 938 l 438 875 l 375 875 l 313 813 l 313 750 l 250 750 l 250 625 l 188 625 l 125 563 l 125 500 l 63 438 l 63 250 l 125 250 l 63 188 l 0 188 m 63 63 l 63 188 l 125 188 l 125 125 l 188 125 l 188 63 l 313 63 l 375 0 l 563 0 l 563 63 l 750 63 l 813 125 l 813 188 l 875 188 l 938 125 l 875 125 l 813 63 l 813 0 l 625 0 l 563 -62 l 313 -62 l 313 0 l 188 0 l 125 63 l 63 63 m 375 313 l 375 438 l 563 438 l 625 375 l 625 250 l 438 250 l 375 313 z "},"7":{"ha":868,"x_min":0,"x_max":875,"o":"m 813 875 l 813 938 l 875 875 l 813 875 m 813 750 l 813 813 l 875 750 l 813 750 m 125 63 l 188 125 l 188 188 l 250 250 l 250 313 l 313 375 l 313 563 l 375 563 l 375 688 l 0 688 l 0 938 l 63 1000 l 813 1000 l 813 938 l 63 938 l 63 750 l 500 750 l 500 625 l 438 625 l 438 500 l 375 500 l 375 375 l 313 313 l 313 250 l 250 188 l 250 125 l 188 63 l 500 63 l 500 188 l 563 188 l 563 313 l 625 313 l 625 438 l 688 438 l 688 563 l 750 563 l 750 688 l 813 688 l 875 625 l 813 625 l 813 500 l 750 500 l 750 375 l 688 375 l 688 250 l 625 250 l 625 125 l 563 125 l 563 0 l 188 0 l 125 63 z "},"8":{"ha":989,"x_min":0,"x_max":1000,"o":"m 500 625 l 563 688 l 500 750 l 500 688 l 438 688 l 438 625 l 500 625 m 875 375 l 875 438 l 813 500 l 813 625 l 875 625 l 875 750 l 813 750 l 813 875 l 688 875 l 688 938 l 875 938 l 875 813 l 938 813 l 938 563 l 875 563 l 875 500 l 938 438 l 938 375 l 1000 313 l 938 313 l 875 375 m 438 313 l 438 250 l 563 250 l 563 313 l 500 375 l 500 313 l 438 313 m 125 0 l 125 63 l 63 125 l 63 188 l 0 250 l 0 375 l 63 438 l 63 875 l 125 875 l 188 938 l 250 938 l 188 875 l 188 813 l 125 813 l 125 563 l 188 563 l 188 438 l 125 438 l 63 375 l 63 250 l 125 188 l 125 125 l 188 63 l 375 63 l 375 0 l 625 0 l 688 63 l 750 63 l 750 125 l 875 125 l 875 250 l 938 313 l 938 63 l 813 63 l 750 0 l 688 0 l 688 -62 l 375 -62 l 313 0 l 125 0 m 438 563 l 375 625 l 375 750 l 438 750 l 500 813 l 563 813 l 563 750 l 625 688 l 563 625 l 563 563 l 438 563 m 375 250 l 375 375 l 438 375 l 500 438 l 563 438 l 563 375 l 625 313 l 625 188 l 438 188 l 375 250 z "},"9":{"ha":949,"x_min":0,"x_max":938,"o":"m 813 750 l 813 875 l 688 875 l 688 1000 l 750 938 l 875 938 l 875 813 l 938 813 l 938 750 l 813 750 m 875 625 l 875 750 l 938 688 l 938 625 l 875 625 m 875 500 l 875 625 l 938 563 l 938 500 l 875 500 m 500 563 l 500 688 l 438 688 l 438 563 l 500 563 m 188 0 l 188 125 l 250 125 l 313 63 l 563 63 l 563 125 l 625 125 l 625 250 l 688 250 l 750 313 l 750 375 l 813 438 l 813 500 l 875 500 l 938 438 l 875 438 l 813 375 l 813 313 l 750 250 l 750 188 l 688 188 l 688 63 l 625 63 l 563 0 l 188 0 m 375 500 l 375 750 l 500 750 l 563 688 l 563 563 l 500 500 l 375 500 m 250 125 l 250 313 l 188 313 l 125 375 l 63 375 l 63 438 l 0 500 l 0 750 l 63 813 l 63 875 l 125 875 l 188 938 l 188 1000 l 625 1000 l 688 938 l 250 938 l 188 875 l 188 813 l 125 813 l 63 750 l 63 500 l 125 438 l 188 438 l 188 375 l 250 375 l 313 313 l 375 313 l 375 188 l 313 188 l 313 125 l 250 125 z "},"A":{"ha":1049,"x_min":0,"x_max":1063,"o":"m 500 438 l 563 438 l 563 500 l 500 500 l 500 438 m 0 0 l 0 250 l 63 250 l 63 375 l 125 438 l 125 625 l 188 625 l 188 750 l 250 813 l 250 875 l 313 938 l 313 1000 l 688 1000 l 750 938 l 813 938 l 813 750 l 875 688 l 875 563 l 938 563 l 938 375 l 1000 313 l 1000 188 l 1063 188 l 1063 125 l 938 125 l 938 313 l 875 375 l 875 500 l 813 500 l 813 688 l 750 750 l 750 875 l 688 875 l 688 938 l 375 938 l 313 875 l 313 813 l 250 750 l 250 563 l 188 563 l 188 438 l 125 375 l 125 188 l 63 188 l 63 63 l 313 63 l 313 125 l 375 188 l 688 188 l 688 125 l 750 63 l 1000 63 l 1000 125 l 1063 63 l 1000 0 l 688 0 l 688 63 l 625 125 l 375 125 l 375 63 l 313 0 l 0 0 m 438 375 l 438 625 l 500 563 l 500 625 l 563 563 l 625 563 l 625 438 l 563 375 l 438 375 z "},"Á":{"ha":1049,"x_min":0,"x_max":1063,"o":"m 500 438 l 563 438 l 563 500 l 500 500 l 500 438 m 0 0 l 0 250 l 63 250 l 63 375 l 125 438 l 125 625 l 188 625 l 188 750 l 250 813 l 250 875 l 313 938 l 313 1000 l 688 1000 l 750 938 l 813 938 l 813 750 l 875 688 l 875 563 l 938 563 l 938 375 l 1000 313 l 1000 188 l 1063 188 l 1063 125 l 938 125 l 938 313 l 875 375 l 875 500 l 813 500 l 813 688 l 750 750 l 750 875 l 688 875 l 688 938 l 375 938 l 313 875 l 313 813 l 250 750 l 250 563 l 188 563 l 188 438 l 125 375 l 125 188 l 63 188 l 63 63 l 313 63 l 313 125 l 375 188 l 688 188 l 688 125 l 750 63 l 1000 63 l 1000 125 l 1063 63 l 1000 0 l 688 0 l 688 63 l 625 125 l 375 125 l 375 63 l 313 0 l 0 0 m 438 375 l 438 625 l 500 563 l 500 625 l 563 563 l 625 563 l 625 438 l 563 375 l 438 375 m 388 1000 l 325 1063 l 388 1125 l 388 1188 l 450 1188 l 513 1250 l 575 1250 l 513 1188 l 513 1125 l 450 1125 l 388 1063 l 638 1063 l 700 1125 l 700 1188 l 825 1188 l 825 1125 l 763 1125 l 700 1063 l 700 1000 l 388 1000 z "},"Ă":{"ha":1049,"x_min":0,"x_max":1063,"o":"m 500 438 l 563 438 l 563 500 l 500 500 l 500 438 m 0 0 l 0 250 l 63 250 l 63 375 l 125 438 l 125 625 l 188 625 l 188 750 l 250 813 l 250 875 l 313 938 l 313 1000 l 688 1000 l 750 938 l 813 938 l 813 750 l 875 688 l 875 563 l 938 563 l 938 375 l 1000 313 l 1000 188 l 1063 188 l 1063 125 l 938 125 l 938 313 l 875 375 l 875 500 l 813 500 l 813 688 l 750 750 l 750 875 l 688 875 l 688 938 l 375 938 l 313 875 l 313 813 l 250 750 l 250 563 l 188 563 l 188 438 l 125 375 l 125 188 l 63 188 l 63 63 l 313 63 l 313 125 l 375 188 l 688 188 l 688 125 l 750 63 l 1000 63 l 1000 125 l 1063 63 l 1000 0 l 688 0 l 688 63 l 625 125 l 375 125 l 375 63 l 313 0 l 0 0 m 438 375 l 438 625 l 500 563 l 500 625 l 563 563 l 625 563 l 625 438 l 563 375 l 438 375 m 710 1125 l 710 1250 l 772 1188 l 772 1125 l 710 1125 m 460 1125 l 460 1250 l 585 1250 l 585 1188 l 522 1125 l 460 1125 m 335 1000 l 335 1063 l 272 1125 l 272 1250 l 335 1250 l 335 1125 l 397 1063 l 647 1063 l 647 1125 l 710 1125 l 772 1063 l 710 1063 l 647 1000 l 335 1000 z "},"Â":{"ha":1049,"x_min":0,"x_max":1063,"o":"m 500 438 l 563 438 l 563 500 l 500 500 l 500 438 m 0 0 l 0 250 l 63 250 l 63 375 l 125 438 l 125 625 l 188 625 l 188 750 l 250 813 l 250 875 l 313 938 l 313 1000 l 688 1000 l 750 938 l 813 938 l 813 750 l 875 688 l 875 563 l 938 563 l 938 375 l 1000 313 l 1000 188 l 1063 188 l 1063 125 l 938 125 l 938 313 l 875 375 l 875 500 l 813 500 l 813 688 l 750 750 l 750 875 l 688 875 l 688 938 l 375 938 l 313 875 l 313 813 l 250 750 l 250 563 l 188 563 l 188 438 l 125 375 l 125 188 l 63 188 l 63 63 l 313 63 l 313 125 l 375 188 l 688 188 l 688 125 l 750 63 l 1000 63 l 1000 125 l 1063 63 l 1000 0 l 688 0 l 688 63 l 625 125 l 375 125 l 375 63 l 313 0 l 0 0 m 438 375 l 438 625 l 500 563 l 500 625 l 563 563 l 625 563 l 625 438 l 563 375 l 438 375 m 206 1000 l 206 1125 l 268 1188 l 268 1250 l 393 1250 l 393 1188 l 331 1188 l 268 1125 l 268 1063 l 393 1063 l 393 1125 l 581 1125 l 643 1063 l 768 1063 l 768 1125 l 831 1063 l 768 1000 l 581 1000 l 581 1063 l 456 1063 l 393 1000 l 206 1000 m 706 1125 l 706 1188 l 643 1250 l 706 1250 l 768 1188 l 831 1188 l 831 1125 l 706 1125 z "},"Ä":{"ha":1049,"x_min":0,"x_max":1063,"o":"m 500 438 l 563 438 l 563 500 l 500 500 l 500 438 m 0 0 l 0 250 l 63 250 l 63 375 l 125 438 l 125 625 l 188 625 l 188 750 l 250 813 l 250 875 l 313 938 l 313 1000 l 688 1000 l 750 938 l 813 938 l 813 750 l 875 688 l 875 563 l 938 563 l 938 375 l 1000 313 l 1000 188 l 1063 188 l 1063 125 l 938 125 l 938 313 l 875 375 l 875 500 l 813 500 l 813 688 l 750 750 l 750 875 l 688 875 l 688 938 l 375 938 l 313 875 l 313 813 l 250 750 l 250 563 l 188 563 l 188 438 l 125 375 l 125 188 l 63 188 l 63 63 l 313 63 l 313 125 l 375 188 l 688 188 l 688 125 l 750 63 l 1000 63 l 1000 125 l 1063 63 l 1000 0 l 688 0 l 688 63 l 625 125 l 375 125 l 375 63 l 313 0 l 0 0 m 438 375 l 438 625 l 500 563 l 500 625 l 563 563 l 625 563 l 625 438 l 563 375 l 438 375 m 775 1125 l 775 1250 l 838 1188 l 838 1125 l 775 1125 m 588 1000 l 588 1250 l 650 1250 l 650 1063 l 775 1063 l 775 1125 l 838 1063 l 775 1000 l 588 1000 m 213 1000 l 213 1250 l 275 1250 l 275 1063 l 400 1063 l 400 1250 l 463 1250 l 463 1063 l 400 1000 l 213 1000 z "},"À":{"ha":1049,"x_min":0,"x_max":1063,"o":"m 500 438 l 563 438 l 563 500 l 500 500 l 500 438 m 0 0 l 0 250 l 63 250 l 63 375 l 125 438 l 125 625 l 188 625 l 188 750 l 250 813 l 250 875 l 313 938 l 313 1000 l 688 1000 l 750 938 l 813 938 l 813 750 l 875 688 l 875 563 l 938 563 l 938 375 l 1000 313 l 1000 188 l 1063 188 l 1063 125 l 938 125 l 938 313 l 875 375 l 875 500 l 813 500 l 813 688 l 750 750 l 750 875 l 688 875 l 688 938 l 375 938 l 313 875 l 313 813 l 250 750 l 250 563 l 188 563 l 188 438 l 125 375 l 125 188 l 63 188 l 63 63 l 313 63 l 313 125 l 375 188 l 688 188 l 688 125 l 750 63 l 1000 63 l 1000 125 l 1063 63 l 1000 0 l 688 0 l 688 63 l 625 125 l 375 125 l 375 63 l 313 0 l 0 0 m 438 375 l 438 625 l 500 563 l 500 625 l 563 563 l 625 563 l 625 438 l 563 375 l 438 375 m 540 1125 l 540 1188 l 478 1250 l 540 1250 l 603 1188 l 665 1188 l 665 1125 l 540 1125 m 353 1000 l 353 1063 l 290 1125 l 228 1125 l 228 1188 l 165 1250 l 228 1250 l 290 1188 l 353 1188 l 353 1125 l 415 1063 l 665 1063 l 665 1000 l 353 1000 z "},"Ā":{"ha":1049,"x_min":0,"x_max":1063,"o":"m 500 438 l 563 438 l 563 500 l 500 500 l 500 438 m 0 0 l 0 250 l 63 250 l 63 375 l 125 438 l 125 625 l 188 625 l 188 750 l 250 813 l 250 875 l 313 938 l 313 1000 l 688 1000 l 750 938 l 813 938 l 813 750 l 875 688 l 875 563 l 938 563 l 938 375 l 1000 313 l 1000 188 l 1063 188 l 1063 125 l 938 125 l 938 313 l 875 375 l 875 500 l 813 500 l 813 688 l 750 750 l 750 875 l 688 875 l 688 938 l 375 938 l 313 875 l 313 813 l 250 750 l 250 563 l 188 563 l 188 438 l 125 375 l 125 188 l 63 188 l 63 63 l 313 63 l 313 125 l 375 188 l 688 188 l 688 125 l 750 63 l 1000 63 l 1000 125 l 1063 63 l 1000 0 l 688 0 l 688 63 l 625 125 l 375 125 l 375 63 l 313 0 l 0 0 m 438 375 l 438 625 l 500 563 l 500 625 l 563 563 l 625 563 l 625 438 l 563 375 l 438 375 m 786 1125 l 786 1250 l 849 1188 l 849 1125 l 786 1125 m 224 1000 l 224 1250 l 286 1250 l 286 1063 l 786 1063 l 786 1125 l 849 1063 l 786 1000 l 224 1000 z "},"Ą":{"ha":1049,"x_min":0,"x_max":1063,"o":"m 875 313 l 875 438 l 938 375 l 1000 375 l 1000 188 l 1063 125 l 1063 63 l 1000 63 l 1000 125 l 938 188 l 938 313 l 875 313 m 438 438 l 438 563 l 500 625 l 563 625 l 563 563 l 625 500 l 625 375 l 500 375 l 438 438 m 875 -62 l 938 0 l 938 63 l 1000 63 l 1063 0 l 1000 0 l 938 -62 l 1000 -125 l 1063 -125 l 1063 -187 l 938 -187 l 938 -125 l 875 -62 m 0 63 l 0 188 l 63 250 l 63 438 l 125 438 l 125 563 l 188 625 l 188 813 l 250 813 l 250 938 l 313 938 l 375 1000 l 750 1000 l 750 938 l 813 875 l 813 750 l 875 750 l 875 563 l 938 500 l 938 438 l 875 438 l 875 500 l 813 563 l 813 688 l 750 688 l 750 875 l 688 938 l 375 938 l 375 875 l 313 875 l 313 750 l 250 750 l 250 625 l 188 563 l 188 375 l 125 375 l 125 250 l 63 188 l 63 63 l 313 63 l 313 188 l 625 188 l 688 125 l 750 125 l 750 -125 l 813 -125 l 813 -250 l 1000 -250 l 1000 -187 l 1063 -250 l 1000 -312 l 750 -312 l 750 -187 l 688 -187 l 688 63 l 625 63 l 625 125 l 375 125 l 375 0 l 63 0 l 0 63 m 563 438 l 563 500 l 500 563 l 500 438 l 563 438 z "},"Å":{"ha":1049,"x_min":0,"x_max":1063,"o":"m 500 438 l 563 438 l 563 500 l 500 500 l 500 438 m 0 0 l 0 250 l 63 250 l 63 375 l 125 438 l 125 625 l 188 625 l 188 750 l 250 813 l 250 875 l 313 938 l 313 1000 l 688 1000 l 750 938 l 813 938 l 813 750 l 875 688 l 875 563 l 938 563 l 938 375 l 1000 313 l 1000 188 l 1063 188 l 1063 125 l 938 125 l 938 313 l 875 375 l 875 500 l 813 500 l 813 688 l 750 750 l 750 875 l 688 875 l 688 938 l 375 938 l 313 875 l 313 813 l 250 750 l 250 563 l 188 563 l 188 438 l 125 375 l 125 188 l 63 188 l 63 63 l 313 63 l 313 125 l 375 188 l 688 188 l 688 125 l 750 63 l 1000 63 l 1000 125 l 1063 63 l 1000 0 l 688 0 l 688 63 l 625 125 l 375 125 l 375 63 l 313 0 l 0 0 m 438 375 l 438 625 l 500 563 l 500 625 l 563 563 l 625 563 l 625 438 l 563 375 l 438 375 m 379 1000 l 379 1250 l 442 1313 l 629 1313 l 629 1250 l 692 1188 l 692 1125 l 629 1125 l 629 1188 l 567 1250 l 504 1250 l 567 1188 l 504 1125 l 442 1125 l 442 1063 l 567 1063 l 567 1125 l 629 1125 l 692 1063 l 629 1063 l 567 1000 l 379 1000 z "},"Ã":{"ha":1049,"x_min":0,"x_max":1063,"o":"m 500 438 l 563 438 l 563 500 l 500 500 l 500 438 m 0 0 l 0 250 l 63 250 l 63 375 l 125 438 l 125 625 l 188 625 l 188 750 l 250 813 l 250 875 l 313 938 l 313 1000 l 688 1000 l 750 938 l 813 938 l 813 750 l 875 688 l 875 563 l 938 563 l 938 375 l 1000 313 l 1000 188 l 1063 188 l 1063 125 l 938 125 l 938 313 l 875 375 l 875 500 l 813 500 l 813 688 l 750 750 l 750 875 l 688 875 l 688 938 l 375 938 l 313 875 l 313 813 l 250 750 l 250 563 l 188 563 l 188 438 l 125 375 l 125 188 l 63 188 l 63 63 l 313 63 l 313 125 l 375 188 l 688 188 l 688 125 l 750 63 l 1000 63 l 1000 125 l 1063 63 l 1000 0 l 688 0 l 688 63 l 625 125 l 375 125 l 375 63 l 313 0 l 0 0 m 438 375 l 438 625 l 500 563 l 500 625 l 563 563 l 625 563 l 625 438 l 563 375 l 438 375 m 547 1188 l 485 1250 l 672 1250 l 672 1188 l 547 1188 m 235 1000 l 235 1250 l 360 1250 l 360 1188 l 297 1188 l 297 1063 l 360 1063 l 360 1125 l 485 1125 l 547 1063 l 672 1063 l 672 1125 l 735 1125 l 797 1188 l 797 1250 l 860 1188 l 797 1125 l 797 1063 l 735 1063 l 672 1000 l 485 1000 l 485 1063 l 422 1063 l 360 1000 l 235 1000 z "},"Æ":{"ha":1396,"x_min":0,"x_max":1375,"o":"m 938 938 l 938 1000 l 1313 1000 l 1375 938 l 1375 875 l 1313 875 l 1313 938 l 938 938 m 1313 750 l 1313 875 l 1375 813 l 1375 750 l 1313 750 m 0 0 l 0 250 l 63 250 l 63 375 l 125 438 l 125 500 l 188 563 l 188 750 l 250 750 l 250 875 l 313 938 l 313 1000 l 875 1000 l 938 938 l 375 938 l 313 875 l 313 688 l 250 688 l 250 563 l 188 500 l 188 438 l 125 375 l 125 188 l 63 188 l 63 63 l 313 63 l 313 125 l 375 125 l 438 188 l 625 188 l 625 63 l 1313 63 l 1313 125 l 1375 63 l 1313 0 l 563 0 l 563 125 l 438 125 l 438 63 l 375 63 l 313 0 l 0 0 m 438 375 l 438 500 l 500 563 l 500 750 l 563 750 l 625 688 l 625 438 l 563 375 l 438 375 m 1313 125 l 1313 250 l 1375 188 l 1375 125 l 1313 125 m 500 438 l 563 438 l 563 563 l 500 500 l 500 438 m 875 250 l 875 375 l 1250 375 l 1250 563 l 938 563 l 875 625 l 875 750 l 1313 750 l 1375 688 l 938 688 l 938 625 l 1250 625 l 1313 563 l 1313 313 l 1375 313 l 1375 250 l 875 250 z "},"Ǽ":{"ha":1396,"x_min":0,"x_max":1375,"o":"m 938 938 l 938 1000 l 1313 1000 l 1375 938 l 1375 875 l 1313 875 l 1313 938 l 938 938 m 1313 750 l 1313 875 l 1375 813 l 1375 750 l 1313 750 m 0 0 l 0 250 l 63 250 l 63 375 l 125 438 l 125 500 l 188 563 l 188 750 l 250 750 l 250 875 l 313 938 l 313 1000 l 875 1000 l 938 938 l 375 938 l 313 875 l 313 688 l 250 688 l 250 563 l 188 500 l 188 438 l 125 375 l 125 188 l 63 188 l 63 63 l 313 63 l 313 125 l 375 125 l 438 188 l 625 188 l 625 63 l 1313 63 l 1313 125 l 1375 63 l 1313 0 l 563 0 l 563 125 l 438 125 l 438 63 l 375 63 l 313 0 l 0 0 m 438 375 l 438 500 l 500 563 l 500 750 l 563 750 l 625 688 l 625 438 l 563 375 l 438 375 m 1313 125 l 1313 250 l 1375 188 l 1375 125 l 1313 125 m 500 438 l 563 438 l 563 563 l 500 500 l 500 438 m 875 250 l 875 375 l 1250 375 l 1250 563 l 938 563 l 875 625 l 875 750 l 1313 750 l 1375 688 l 938 688 l 938 625 l 1250 625 l 1313 563 l 1313 313 l 1375 313 l 1375 250 l 875 250 m 561 1000 l 499 1063 l 561 1125 l 561 1188 l 624 1188 l 686 1250 l 749 1250 l 686 1188 l 686 1125 l 624 1125 l 561 1063 l 811 1063 l 874 1125 l 874 1188 l 999 1188 l 999 1125 l 936 1125 l 874 1063 l 874 1000 l 561 1000 z "},"B":{"ha":1019,"x_min":63,"x_max":1000,"o":"m 125 938 l 125 1000 l 188 938 l 125 938 m 188 938 l 188 1000 l 750 1000 l 813 938 l 938 938 l 938 813 l 1000 813 l 1000 750 l 875 750 l 875 875 l 750 875 l 750 938 l 188 938 m 938 625 l 938 750 l 1000 688 l 1000 625 l 938 625 m 875 375 l 875 438 l 813 500 l 875 563 l 875 625 l 938 625 l 1000 563 l 938 563 l 875 500 l 938 438 l 1000 438 l 1000 375 l 875 375 m 438 688 l 438 625 l 563 625 l 563 688 l 438 688 m 938 250 l 938 375 l 1000 313 l 1000 250 l 938 250 m 438 375 l 438 250 l 563 250 l 563 313 l 500 375 l 438 375 m 63 0 l 63 1000 l 125 938 l 125 63 l 813 63 l 813 125 l 875 125 l 938 188 l 938 250 l 1000 188 l 938 125 l 938 63 l 875 63 l 813 0 l 63 0 m 438 563 l 375 625 l 375 750 l 563 750 l 625 688 l 625 563 l 438 563 m 375 250 l 375 375 l 438 438 l 563 438 l 563 375 l 625 313 l 625 188 l 438 188 l 375 250 z "},"C":{"ha":1018,"x_min":0,"x_max":1000,"o":"m 750 875 l 750 938 l 875 938 l 875 875 l 938 813 l 938 750 l 875 750 l 875 813 l 813 875 l 750 875 m 938 688 l 938 750 l 1000 688 l 938 688 m 375 250 l 375 625 l 438 688 l 438 750 l 563 750 l 625 688 l 688 688 l 688 625 l 938 625 l 1000 563 l 688 563 l 625 625 l 563 625 l 563 688 l 500 688 l 438 625 l 438 313 l 563 313 l 563 375 l 938 375 l 1000 313 l 625 313 l 563 250 l 375 250 m 938 188 l 938 250 l 1000 188 l 938 188 m 63 125 l 63 250 l 0 250 l 0 750 l 63 750 l 63 875 l 125 875 l 188 938 l 313 938 l 250 875 l 188 875 l 188 813 l 125 813 l 125 688 l 63 688 l 63 313 l 125 313 l 125 188 l 188 188 l 188 125 l 250 63 l 375 63 l 375 0 l 625 0 l 688 63 l 813 63 l 813 125 l 875 125 l 938 188 l 938 63 l 875 63 l 813 0 l 688 0 l 688 -62 l 375 -62 l 313 0 l 188 0 l 188 63 l 125 125 l 63 125 z "},"Ć":{"ha":1018,"x_min":0,"x_max":1000,"o":"m 750 875 l 750 938 l 875 938 l 875 875 l 938 813 l 938 750 l 875 750 l 875 813 l 813 875 l 750 875 m 938 688 l 938 750 l 1000 688 l 938 688 m 375 250 l 375 625 l 438 688 l 438 750 l 563 750 l 625 688 l 688 688 l 688 625 l 938 625 l 1000 563 l 688 563 l 625 625 l 563 625 l 563 688 l 500 688 l 438 625 l 438 313 l 563 313 l 563 375 l 938 375 l 1000 313 l 625 313 l 563 250 l 375 250 m 938 188 l 938 250 l 1000 188 l 938 188 m 63 125 l 63 250 l 0 250 l 0 750 l 63 750 l 63 875 l 125 875 l 188 938 l 313 938 l 250 875 l 188 875 l 188 813 l 125 813 l 125 688 l 63 688 l 63 313 l 125 313 l 125 188 l 188 188 l 188 125 l 250 63 l 375 63 l 375 0 l 625 0 l 688 63 l 813 63 l 813 125 l 875 125 l 938 188 l 938 63 l 875 63 l 813 0 l 688 0 l 688 -62 l 375 -62 l 313 0 l 188 0 l 188 63 l 125 125 l 63 125 m 372 1000 l 310 1063 l 372 1125 l 372 1188 l 435 1188 l 497 1250 l 560 1250 l 497 1188 l 497 1125 l 435 1125 l 372 1063 l 622 1063 l 685 1125 l 685 1188 l 810 1188 l 810 1125 l 747 1125 l 685 1063 l 685 1000 l 372 1000 z "},"Č":{"ha":1018,"x_min":0,"x_max":1000,"o":"m 750 875 l 750 938 l 875 938 l 875 875 l 938 813 l 938 750 l 875 750 l 875 813 l 813 875 l 750 875 m 938 688 l 938 750 l 1000 688 l 938 688 m 375 250 l 375 625 l 438 688 l 438 750 l 563 750 l 625 688 l 688 688 l 688 625 l 938 625 l 1000 563 l 688 563 l 625 625 l 563 625 l 563 688 l 500 688 l 438 625 l 438 313 l 563 313 l 563 375 l 938 375 l 1000 313 l 625 313 l 563 250 l 375 250 m 938 188 l 938 250 l 1000 188 l 938 188 m 63 125 l 63 250 l 0 250 l 0 750 l 63 750 l 63 875 l 125 875 l 188 938 l 313 938 l 250 875 l 188 875 l 188 813 l 125 813 l 125 688 l 63 688 l 63 313 l 125 313 l 125 188 l 188 188 l 188 125 l 250 63 l 375 63 l 375 0 l 625 0 l 688 63 l 813 63 l 813 125 l 875 125 l 938 188 l 938 63 l 875 63 l 813 0 l 688 0 l 688 -62 l 375 -62 l 313 0 l 188 0 l 188 63 l 125 125 l 63 125 m 440 1188 l 378 1250 l 628 1250 l 628 1188 l 440 1188 m 315 1000 l 315 1125 l 253 1125 l 253 1188 l 190 1250 l 253 1250 l 315 1188 l 378 1188 l 378 1063 l 628 1063 l 628 1125 l 690 1125 l 753 1188 l 753 1250 l 815 1188 l 753 1125 l 753 1063 l 690 1063 l 628 1000 l 315 1000 z "},"Ç":{"ha":1018,"x_min":0,"x_max":1000,"o":"m 938 688 l 938 750 l 1000 688 l 938 688 m 375 250 l 375 625 l 438 688 l 438 750 l 563 750 l 625 688 l 688 688 l 688 625 l 938 625 l 1000 563 l 688 563 l 625 625 l 563 625 l 563 688 l 500 688 l 438 625 l 438 313 l 563 313 l 563 375 l 938 375 l 1000 313 l 625 313 l 563 250 l 375 250 m 938 188 l 938 250 l 1000 188 l 938 188 m 63 125 l 63 250 l 0 250 l 0 750 l 63 750 l 63 875 l 125 875 l 188 938 l 250 938 l 250 1000 l 750 1000 l 813 938 l 875 938 l 875 875 l 938 813 l 938 750 l 875 750 l 875 813 l 813 875 l 750 875 l 750 938 l 313 938 l 250 875 l 188 875 l 188 813 l 125 813 l 125 688 l 63 688 l 63 313 l 125 313 l 125 188 l 188 188 l 188 125 l 250 63 l 375 63 l 375 0 l 438 -62 l 438 -125 l 500 -125 l 563 -187 l 500 -250 l 563 -250 l 625 -187 l 625 -125 l 563 -125 l 563 0 l 625 0 l 688 63 l 813 63 l 813 125 l 875 125 l 938 188 l 938 63 l 875 63 l 813 0 l 688 0 l 688 -187 l 625 -250 l 625 -312 l 438 -312 l 375 -250 l 438 -187 l 375 -125 l 375 -62 l 313 0 l 188 0 l 188 63 l 125 125 l 63 125 z "},"Ĉ":{"ha":1018,"x_min":0,"x_max":1000,"o":"m 750 875 l 750 938 l 875 938 l 875 875 l 938 813 l 938 750 l 875 750 l 875 813 l 813 875 l 750 875 m 938 688 l 938 750 l 1000 688 l 938 688 m 375 250 l 375 625 l 438 688 l 438 750 l 563 750 l 625 688 l 688 688 l 688 625 l 938 625 l 1000 563 l 688 563 l 625 625 l 563 625 l 563 688 l 500 688 l 438 625 l 438 313 l 563 313 l 563 375 l 938 375 l 1000 313 l 625 313 l 563 250 l 375 250 m 938 188 l 938 250 l 1000 188 l 938 188 m 63 125 l 63 250 l 0 250 l 0 750 l 63 750 l 63 875 l 125 875 l 188 938 l 313 938 l 250 875 l 188 875 l 188 813 l 125 813 l 125 688 l 63 688 l 63 313 l 125 313 l 125 188 l 188 188 l 188 125 l 250 63 l 375 63 l 375 0 l 625 0 l 688 63 l 813 63 l 813 125 l 875 125 l 938 188 l 938 63 l 875 63 l 813 0 l 688 0 l 688 -62 l 375 -62 l 313 0 l 188 0 l 188 63 l 125 125 l 63 125 m 190 1000 l 190 1125 l 253 1188 l 253 1250 l 378 1250 l 378 1188 l 315 1188 l 253 1125 l 253 1063 l 378 1063 l 378 1125 l 565 1125 l 628 1063 l 753 1063 l 753 1125 l 815 1063 l 753 1000 l 565 1000 l 565 1063 l 440 1063 l 378 1000 l 190 1000 m 690 1125 l 690 1188 l 628 1250 l 690 1250 l 753 1188 l 815 1188 l 815 1125 l 690 1125 z "},"Ċ":{"ha":1018,"x_min":0,"x_max":1000,"o":"m 750 875 l 750 938 l 875 938 l 875 875 l 938 813 l 938 750 l 875 750 l 875 813 l 813 875 l 750 875 m 938 688 l 938 750 l 1000 688 l 938 688 m 375 250 l 375 625 l 438 688 l 438 750 l 563 750 l 625 688 l 688 688 l 688 625 l 938 625 l 1000 563 l 688 563 l 625 625 l 563 625 l 563 688 l 500 688 l 438 625 l 438 313 l 563 313 l 563 375 l 938 375 l 1000 313 l 625 313 l 563 250 l 375 250 m 938 188 l 938 250 l 1000 188 l 938 188 m 63 125 l 63 250 l 0 250 l 0 750 l 63 750 l 63 875 l 125 875 l 188 938 l 313 938 l 250 875 l 188 875 l 188 813 l 125 813 l 125 688 l 63 688 l 63 313 l 125 313 l 125 188 l 188 188 l 188 125 l 250 63 l 375 63 l 375 0 l 625 0 l 688 63 l 813 63 l 813 125 l 875 125 l 938 188 l 938 63 l 875 63 l 813 0 l 688 0 l 688 -62 l 375 -62 l 313 0 l 188 0 l 188 63 l 125 125 l 63 125 m 626 1125 l 626 1250 l 689 1188 l 689 1125 l 626 1125 m 376 1000 l 376 1250 l 439 1313 l 689 1313 l 689 1250 l 439 1250 l 439 1063 l 564 1063 l 564 1125 l 626 1125 l 689 1063 l 626 1063 l 564 1000 l 376 1000 z "},"D":{"ha":1028,"x_min":63,"x_max":1000,"o":"m 938 625 l 938 750 l 1000 688 l 1000 625 l 938 625 m 938 500 l 938 625 l 1000 563 l 1000 500 l 938 500 m 938 375 l 938 500 l 1000 438 l 1000 375 l 938 375 m 938 250 l 938 375 l 1000 313 l 1000 250 l 938 250 m 438 313 l 563 313 l 563 375 l 625 438 l 625 563 l 563 625 l 563 688 l 438 688 l 438 313 m 63 0 l 63 1000 l 688 1000 l 750 938 l 875 938 l 875 875 l 938 813 l 1000 813 l 1000 750 l 875 750 l 875 813 l 813 875 l 688 875 l 688 938 l 125 938 l 125 63 l 750 63 l 750 125 l 875 125 l 875 250 l 938 250 l 1000 188 l 938 188 l 938 63 l 813 63 l 750 0 l 63 0 m 375 250 l 375 750 l 563 750 l 625 688 l 625 625 l 688 563 l 688 438 l 625 375 l 625 313 l 563 250 l 375 250 z "},"Ð":{"ha":1064,"x_min":0,"x_max":1000,"o":"m 563 625 l 563 688 l 500 688 l 500 625 l 563 625 l 625 563 l 625 625 l 563 625 m 500 313 l 625 313 l 625 438 l 563 375 l 500 375 l 500 313 m 938 250 l 1000 313 l 1000 250 l 938 250 m 63 0 l 63 375 l 0 375 l 0 625 l 63 625 l 63 1000 l 750 1000 l 813 938 l 938 938 l 938 875 l 1000 813 l 1000 750 l 938 750 l 938 813 l 875 875 l 750 875 l 750 938 l 125 938 l 125 563 l 63 563 l 63 438 l 125 438 l 125 63 l 813 63 l 813 125 l 875 125 l 938 188 l 938 250 l 1000 188 l 938 125 l 938 63 l 875 63 l 813 0 l 63 0 m 438 250 l 438 375 l 500 438 l 563 438 l 563 563 l 500 563 l 438 625 l 438 750 l 563 750 l 625 688 l 688 688 l 688 313 l 625 250 l 438 250 z "},"Ď":{"ha":1028,"x_min":63,"x_max":1000,"o":"m 938 625 l 938 750 l 1000 688 l 1000 625 l 938 625 m 938 500 l 938 625 l 1000 563 l 1000 500 l 938 500 m 938 375 l 938 500 l 1000 438 l 1000 375 l 938 375 m 938 250 l 938 375 l 1000 313 l 1000 250 l 938 250 m 438 313 l 563 313 l 563 375 l 625 438 l 625 563 l 563 625 l 563 688 l 438 688 l 438 313 m 63 0 l 63 1000 l 688 1000 l 750 938 l 875 938 l 875 875 l 938 813 l 1000 813 l 1000 750 l 875 750 l 875 813 l 813 875 l 688 875 l 688 938 l 125 938 l 125 63 l 750 63 l 750 125 l 875 125 l 875 250 l 938 250 l 1000 188 l 938 188 l 938 63 l 813 63 l 750 0 l 63 0 m 375 250 l 375 750 l 563 750 l 625 688 l 625 625 l 688 563 l 688 438 l 625 375 l 625 313 l 563 250 l 375 250 m 436 1188 l 374 1250 l 624 1250 l 624 1188 l 436 1188 m 311 1000 l 311 1125 l 249 1125 l 249 1188 l 186 1250 l 249 1250 l 311 1188 l 374 1188 l 374 1063 l 624 1063 l 624 1125 l 686 1125 l 749 1188 l 749 1250 l 811 1188 l 749 1125 l 749 1063 l 686 1063 l 624 1000 l 311 1000 z "},"Đ":{"ha":1061,"x_min":0,"x_max":1000,"o":"m 938 625 l 938 750 l 1000 688 l 1000 625 l 938 625 m 563 625 l 563 688 l 500 688 l 500 625 l 563 625 l 625 563 l 625 625 l 563 625 m 63 0 l 63 375 l 0 375 l 0 625 l 63 625 l 63 1000 l 750 1000 l 813 938 l 875 938 l 875 875 l 938 813 l 1000 813 l 1000 750 l 875 750 l 875 813 l 813 875 l 750 875 l 750 938 l 125 938 l 125 563 l 63 563 l 63 438 l 125 438 l 125 63 l 438 63 l 375 0 l 63 0 m 500 375 l 500 313 l 625 313 l 625 438 l 563 375 l 500 375 m 938 250 l 1000 313 l 1000 250 l 938 250 m 438 0 l 438 63 l 500 63 l 438 0 m 500 0 l 500 63 l 813 63 l 813 125 l 875 125 l 938 188 l 938 250 l 1000 188 l 938 125 l 938 63 l 875 63 l 813 0 l 500 0 m 438 250 l 438 375 l 500 438 l 563 438 l 563 563 l 500 563 l 438 625 l 438 750 l 563 750 l 625 688 l 688 688 l 688 313 l 625 250 l 438 250 z "},"E":{"ha":926,"x_min":63,"x_max":875,"o":"m 813 1000 l 875 938 l 875 875 l 813 875 l 813 938 l 125 938 l 125 63 l 188 63 l 125 0 l 63 0 l 63 1000 l 813 1000 m 875 750 l 813 750 l 813 875 l 875 813 l 875 750 m 813 750 l 875 688 l 438 688 l 438 625 l 813 625 l 875 563 l 875 500 l 813 500 l 813 563 l 438 563 l 375 625 l 375 750 l 813 750 m 875 375 l 813 375 l 813 500 l 875 438 l 875 375 m 813 375 l 875 313 l 875 250 l 375 250 l 375 375 l 813 375 m 313 0 l 188 0 l 188 63 l 375 63 l 313 0 m 375 0 l 375 63 l 875 63 l 813 0 l 375 0 z "},"É":{"ha":926,"x_min":63,"x_max":875,"o":"m 813 1000 l 875 938 l 875 875 l 813 875 l 813 938 l 125 938 l 125 63 l 188 63 l 125 0 l 63 0 l 63 1000 l 813 1000 m 875 750 l 813 750 l 813 875 l 875 813 l 875 750 m 813 750 l 875 688 l 438 688 l 438 625 l 813 625 l 875 563 l 875 500 l 813 500 l 813 563 l 438 563 l 375 625 l 375 750 l 813 750 m 875 375 l 813 375 l 813 500 l 875 438 l 875 375 m 813 375 l 875 313 l 875 250 l 375 250 l 375 375 l 813 375 m 313 0 l 188 0 l 188 63 l 375 63 l 313 0 m 375 0 l 375 63 l 875 63 l 813 0 l 375 0 m 326 1000 l 264 1063 l 326 1125 l 326 1188 l 389 1188 l 451 1250 l 514 1250 l 451 1188 l 451 1125 l 389 1125 l 326 1063 l 576 1063 l 639 1125 l 639 1188 l 764 1188 l 764 1125 l 701 1125 l 639 1063 l 639 1000 l 326 1000 z "},"Ĕ":{"ha":926,"x_min":63,"x_max":875,"o":"m 813 1000 l 875 938 l 875 875 l 813 875 l 813 938 l 125 938 l 125 63 l 188 63 l 125 0 l 63 0 l 63 1000 l 813 1000 m 875 750 l 813 750 l 813 875 l 875 813 l 875 750 m 813 750 l 875 688 l 438 688 l 438 625 l 813 625 l 875 563 l 875 500 l 813 500 l 813 563 l 438 563 l 375 625 l 375 750 l 813 750 m 875 375 l 813 375 l 813 500 l 875 438 l 875 375 m 813 375 l 875 313 l 875 250 l 375 250 l 375 375 l 813 375 m 313 0 l 188 0 l 188 63 l 375 63 l 313 0 m 375 0 l 375 63 l 875 63 l 813 0 l 375 0 m 649 1125 l 649 1250 l 711 1188 l 711 1125 l 649 1125 m 399 1125 l 399 1250 l 524 1250 l 524 1188 l 461 1125 l 399 1125 m 274 1000 l 274 1063 l 211 1125 l 211 1250 l 274 1250 l 274 1125 l 336 1063 l 586 1063 l 586 1125 l 649 1125 l 711 1063 l 649 1063 l 586 1000 l 274 1000 z "},"Ě":{"ha":926,"x_min":63,"x_max":875,"o":"m 813 1000 l 875 938 l 875 875 l 813 875 l 813 938 l 125 938 l 125 63 l 188 63 l 125 0 l 63 0 l 63 1000 l 813 1000 m 875 750 l 813 750 l 813 875 l 875 813 l 875 750 m 813 750 l 875 688 l 438 688 l 438 625 l 813 625 l 875 563 l 875 500 l 813 500 l 813 563 l 438 563 l 375 625 l 375 750 l 813 750 m 875 375 l 813 375 l 813 500 l 875 438 l 875 375 m 813 375 l 875 313 l 875 250 l 375 250 l 375 375 l 813 375 m 313 0 l 188 0 l 188 63 l 375 63 l 313 0 m 375 0 l 375 63 l 875 63 l 813 0 l 375 0 m 394 1188 l 332 1250 l 582 1250 l 582 1188 l 394 1188 m 269 1000 l 269 1125 l 207 1125 l 207 1188 l 144 1250 l 207 1250 l 269 1188 l 332 1188 l 332 1063 l 582 1063 l 582 1125 l 644 1125 l 707 1188 l 707 1250 l 769 1188 l 707 1125 l 707 1063 l 644 1063 l 582 1000 l 269 1000 z "},"Ê":{"ha":926,"x_min":63,"x_max":875,"o":"m 813 1000 l 875 938 l 875 875 l 813 875 l 813 938 l 125 938 l 125 63 l 188 63 l 125 0 l 63 0 l 63 1000 l 813 1000 m 875 750 l 813 750 l 813 875 l 875 813 l 875 750 m 813 750 l 875 688 l 438 688 l 438 625 l 813 625 l 875 563 l 875 500 l 813 500 l 813 563 l 438 563 l 375 625 l 375 750 l 813 750 m 875 375 l 813 375 l 813 500 l 875 438 l 875 375 m 813 375 l 875 313 l 875 250 l 375 250 l 375 375 l 813 375 m 313 0 l 188 0 l 188 63 l 375 63 l 313 0 m 375 0 l 375 63 l 875 63 l 813 0 l 375 0 m 144 1000 l 144 1125 l 207 1188 l 207 1250 l 332 1250 l 332 1188 l 269 1188 l 207 1125 l 207 1063 l 332 1063 l 332 1125 l 519 1125 l 582 1063 l 707 1063 l 707 1125 l 769 1063 l 707 1000 l 519 1000 l 519 1063 l 394 1063 l 332 1000 l 144 1000 m 644 1125 l 644 1188 l 582 1250 l 644 1250 l 707 1188 l 769 1188 l 769 1125 l 644 1125 z "},"Ë":{"ha":926,"x_min":63,"x_max":875,"o":"m 813 1000 l 875 938 l 875 875 l 813 875 l 813 938 l 125 938 l 125 63 l 188 63 l 125 0 l 63 0 l 63 1000 l 813 1000 m 875 750 l 813 750 l 813 875 l 875 813 l 875 750 m 813 750 l 875 688 l 438 688 l 438 625 l 813 625 l 875 563 l 875 500 l 813 500 l 813 563 l 438 563 l 375 625 l 375 750 l 813 750 m 875 375 l 813 375 l 813 500 l 875 438 l 875 375 m 813 375 l 875 313 l 875 250 l 375 250 l 375 375 l 813 375 m 313 0 l 188 0 l 188 63 l 375 63 l 313 0 m 375 0 l 375 63 l 875 63 l 813 0 l 375 0 m 714 1125 l 714 1250 l 776 1188 l 776 1125 l 714 1125 m 526 1000 l 526 1250 l 589 1250 l 589 1063 l 714 1063 l 714 1125 l 776 1063 l 714 1000 l 526 1000 m 151 1000 l 151 1250 l 214 1250 l 214 1063 l 339 1063 l 339 1250 l 401 1250 l 401 1063 l 339 1000 l 151 1000 z "},"Ė":{"ha":926,"x_min":63,"x_max":875,"o":"m 813 1000 l 875 938 l 875 875 l 813 875 l 813 938 l 125 938 l 125 63 l 188 63 l 125 0 l 63 0 l 63 1000 l 813 1000 m 875 750 l 813 750 l 813 875 l 875 813 l 875 750 m 813 750 l 875 688 l 438 688 l 438 625 l 813 625 l 875 563 l 875 500 l 813 500 l 813 563 l 438 563 l 375 625 l 375 750 l 813 750 m 875 375 l 813 375 l 813 500 l 875 438 l 875 375 m 813 375 l 875 313 l 875 250 l 375 250 l 375 375 l 813 375 m 313 0 l 188 0 l 188 63 l 375 63 l 313 0 m 375 0 l 375 63 l 875 63 l 813 0 l 375 0 m 581 1125 l 581 1250 l 643 1188 l 643 1125 l 581 1125 m 331 1000 l 331 1250 l 393 1313 l 643 1313 l 643 1250 l 393 1250 l 393 1063 l 518 1063 l 518 1125 l 581 1125 l 643 1063 l 581 1063 l 518 1000 l 331 1000 z "},"È":{"ha":926,"x_min":63,"x_max":875,"o":"m 813 1000 l 875 938 l 875 875 l 813 875 l 813 938 l 125 938 l 125 63 l 188 63 l 125 0 l 63 0 l 63 1000 l 813 1000 m 875 750 l 813 750 l 813 875 l 875 813 l 875 750 m 813 750 l 875 688 l 438 688 l 438 625 l 813 625 l 875 563 l 875 500 l 813 500 l 813 563 l 438 563 l 375 625 l 375 750 l 813 750 m 875 375 l 813 375 l 813 500 l 875 438 l 875 375 m 813 375 l 875 313 l 875 250 l 375 250 l 375 375 l 813 375 m 313 0 l 188 0 l 188 63 l 375 63 l 313 0 m 375 0 l 375 63 l 875 63 l 813 0 l 375 0 m 479 1125 l 479 1188 l 417 1250 l 479 1250 l 542 1188 l 604 1188 l 604 1125 l 479 1125 m 292 1000 l 292 1063 l 229 1125 l 167 1125 l 167 1188 l 104 1250 l 167 1250 l 229 1188 l 292 1188 l 292 1125 l 354 1063 l 604 1063 l 604 1000 l 292 1000 z "},"Ē":{"ha":926,"x_min":63,"x_max":875,"o":"m 813 1000 l 875 938 l 875 875 l 813 875 l 813 938 l 125 938 l 125 63 l 188 63 l 125 0 l 63 0 l 63 1000 l 813 1000 m 875 750 l 813 750 l 813 875 l 875 813 l 875 750 m 813 750 l 875 688 l 438 688 l 438 625 l 813 625 l 875 563 l 875 500 l 813 500 l 813 563 l 438 563 l 375 625 l 375 750 l 813 750 m 875 375 l 813 375 l 813 500 l 875 438 l 875 375 m 813 375 l 875 313 l 875 250 l 375 250 l 375 375 l 813 375 m 313 0 l 188 0 l 188 63 l 375 63 l 313 0 m 375 0 l 375 63 l 875 63 l 813 0 l 375 0 m 725 1125 l 725 1250 l 788 1188 l 788 1125 l 725 1125 m 163 1000 l 163 1250 l 225 1250 l 225 1063 l 725 1063 l 725 1125 l 788 1063 l 725 1000 l 163 1000 z "},"Ę":{"ha":926,"x_min":63,"x_max":875,"o":"m 688 938 l 688 1000 l 875 1000 l 875 938 l 688 938 m 563 938 l 563 1000 l 688 1000 l 625 938 l 563 938 m 813 813 l 813 938 l 875 875 l 875 813 l 813 813 m 375 563 l 375 688 l 438 750 l 813 750 l 813 813 l 875 750 l 813 688 l 438 688 l 438 625 l 875 625 l 875 563 l 375 563 m 813 438 l 813 563 l 875 500 l 875 438 l 813 438 m 750 -62 l 813 0 l 813 63 l 875 0 l 813 -62 l 813 -125 l 875 -125 l 875 -187 l 750 -187 l 750 -62 m 63 63 l 63 938 l 125 1000 l 563 1000 l 500 938 l 125 938 l 125 63 l 563 63 l 625 0 l 625 -125 l 563 -187 l 563 0 l 125 0 l 63 63 m 625 -250 l 563 -187 l 625 -187 l 625 -250 m 625 -312 l 625 -250 l 875 -250 l 875 -312 l 625 -312 m 375 313 l 438 375 l 813 375 l 813 438 l 875 375 l 813 313 l 875 250 l 875 188 l 813 188 l 813 250 l 438 250 l 375 313 z "},"F":{"ha":897,"x_min":63,"x_max":875,"o":"m 813 750 l 813 875 l 875 813 l 875 750 l 813 750 m 813 375 l 813 500 l 875 438 l 875 375 l 813 375 m 63 0 l 63 1000 l 813 1000 l 875 938 l 875 875 l 813 875 l 813 938 l 125 938 l 125 63 l 375 63 l 375 250 l 438 313 l 813 313 l 813 375 l 875 313 l 813 250 l 438 250 l 438 63 l 375 0 l 63 0 m 438 563 l 375 625 l 438 688 l 813 688 l 813 750 l 875 688 l 813 625 l 875 563 l 875 500 l 813 500 l 813 563 l 438 563 z "},"G":{"ha":1046,"x_min":0,"x_max":1000,"o":"m 63 125 l 63 250 l 0 250 l 0 750 l 63 750 l 63 875 l 125 875 l 188 938 l 313 938 l 250 875 l 188 875 l 188 813 l 125 813 l 125 688 l 63 688 l 63 313 l 125 313 l 125 188 l 188 188 l 188 125 l 250 63 l 375 63 l 375 0 l 625 0 l 688 63 l 813 63 l 813 125 l 875 125 l 938 188 l 938 563 l 563 563 l 563 375 l 625 375 l 688 313 l 625 250 l 375 250 l 375 625 l 438 688 l 438 750 l 563 750 l 625 688 l 938 688 l 938 813 l 875 875 l 750 875 l 750 938 l 938 938 l 938 875 l 1000 813 l 1000 688 l 938 625 l 1000 563 l 1000 188 l 938 125 l 938 63 l 875 63 l 813 0 l 688 0 l 688 -62 l 375 -62 l 313 0 l 188 0 l 188 63 l 125 125 l 63 125 m 438 313 l 563 313 l 500 375 l 500 625 l 563 625 l 563 688 l 500 688 l 438 625 l 438 313 z "},"Ğ":{"ha":1046,"x_min":0,"x_max":1000,"o":"m 63 125 l 63 250 l 0 250 l 0 750 l 63 750 l 63 875 l 125 875 l 188 938 l 313 938 l 250 875 l 188 875 l 188 813 l 125 813 l 125 688 l 63 688 l 63 313 l 125 313 l 125 188 l 188 188 l 188 125 l 250 63 l 375 63 l 375 0 l 625 0 l 688 63 l 813 63 l 813 125 l 875 125 l 938 188 l 938 563 l 563 563 l 563 375 l 625 375 l 688 313 l 625 250 l 375 250 l 375 625 l 438 688 l 438 750 l 563 750 l 625 688 l 938 688 l 938 813 l 875 875 l 750 875 l 750 938 l 938 938 l 938 875 l 1000 813 l 1000 688 l 938 625 l 1000 563 l 1000 188 l 938 125 l 938 63 l 875 63 l 813 0 l 688 0 l 688 -62 l 375 -62 l 313 0 l 188 0 l 188 63 l 125 125 l 63 125 m 438 313 l 563 313 l 500 375 l 500 625 l 563 625 l 563 688 l 500 688 l 438 625 l 438 313 m 708 1125 l 708 1250 l 771 1188 l 771 1125 l 708 1125 m 458 1125 l 458 1250 l 583 1250 l 583 1188 l 521 1125 l 458 1125 m 333 1000 l 333 1063 l 271 1125 l 271 1250 l 333 1250 l 333 1125 l 396 1063 l 646 1063 l 646 1125 l 708 1125 l 771 1063 l 708 1063 l 646 1000 l 333 1000 z "},"Ĝ":{"ha":1046,"x_min":0,"x_max":1000,"o":"m 63 125 l 63 250 l 0 250 l 0 750 l 63 750 l 63 875 l 125 875 l 188 938 l 313 938 l 250 875 l 188 875 l 188 813 l 125 813 l 125 688 l 63 688 l 63 313 l 125 313 l 125 188 l 188 188 l 188 125 l 250 63 l 375 63 l 375 0 l 625 0 l 688 63 l 813 63 l 813 125 l 875 125 l 938 188 l 938 563 l 563 563 l 563 375 l 625 375 l 688 313 l 625 250 l 375 250 l 375 625 l 438 688 l 438 750 l 563 750 l 625 688 l 938 688 l 938 813 l 875 875 l 750 875 l 750 938 l 938 938 l 938 875 l 1000 813 l 1000 688 l 938 625 l 1000 563 l 1000 188 l 938 125 l 938 63 l 875 63 l 813 0 l 688 0 l 688 -62 l 375 -62 l 313 0 l 188 0 l 188 63 l 125 125 l 63 125 m 438 313 l 563 313 l 500 375 l 500 625 l 563 625 l 563 688 l 500 688 l 438 625 l 438 313 m 204 1000 l 204 1125 l 267 1188 l 267 1250 l 392 1250 l 392 1188 l 329 1188 l 267 1125 l 267 1063 l 392 1063 l 392 1125 l 579 1125 l 642 1063 l 767 1063 l 767 1125 l 829 1063 l 767 1000 l 579 1000 l 579 1063 l 454 1063 l 392 1000 l 204 1000 m 704 1125 l 704 1188 l 642 1250 l 704 1250 l 767 1188 l 829 1188 l 829 1125 l 704 1125 z "},"Ģ":{"ha":1046,"x_min":0,"x_max":1000,"o":"m 63 125 l 63 250 l 0 250 l 0 750 l 63 750 l 63 875 l 125 875 l 188 938 l 313 938 l 250 875 l 188 875 l 188 813 l 125 813 l 125 688 l 63 688 l 63 313 l 125 313 l 125 188 l 188 188 l 188 125 l 250 63 l 375 63 l 375 0 l 625 0 l 688 63 l 813 63 l 813 125 l 875 125 l 938 188 l 938 563 l 563 563 l 563 375 l 625 375 l 688 313 l 625 250 l 375 250 l 375 625 l 438 688 l 438 750 l 563 750 l 625 688 l 938 688 l 938 813 l 875 875 l 750 875 l 750 938 l 938 938 l 938 875 l 1000 813 l 1000 688 l 938 625 l 1000 563 l 1000 188 l 938 125 l 938 63 l 875 63 l 813 0 l 688 0 l 688 -62 l 375 -62 l 313 0 l 188 0 l 188 63 l 125 125 l 63 125 m 438 313 l 563 313 l 500 375 l 500 625 l 563 625 l 563 688 l 500 688 l 438 625 l 438 313 m 332 -125 l 394 -62 l 707 -62 l 707 -125 l 644 -125 l 707 -187 l 644 -187 l 644 -312 l 582 -375 l 332 -375 l 332 -125 m 394 -125 l 394 -312 l 582 -312 l 582 -125 l 394 -125 z "},"Ġ":{"ha":1046,"x_min":0,"x_max":1000,"o":"m 63 125 l 63 250 l 0 250 l 0 750 l 63 750 l 63 875 l 125 875 l 188 938 l 313 938 l 250 875 l 188 875 l 188 813 l 125 813 l 125 688 l 63 688 l 63 313 l 125 313 l 125 188 l 188 188 l 188 125 l 250 63 l 375 63 l 375 0 l 625 0 l 688 63 l 813 63 l 813 125 l 875 125 l 938 188 l 938 563 l 563 563 l 563 375 l 625 375 l 688 313 l 625 250 l 375 250 l 375 625 l 438 688 l 438 750 l 563 750 l 625 688 l 938 688 l 938 813 l 875 875 l 750 875 l 750 938 l 938 938 l 938 875 l 1000 813 l 1000 688 l 938 625 l 1000 563 l 1000 188 l 938 125 l 938 63 l 875 63 l 813 0 l 688 0 l 688 -62 l 375 -62 l 313 0 l 188 0 l 188 63 l 125 125 l 63 125 m 438 313 l 563 313 l 500 375 l 500 625 l 563 625 l 563 688 l 500 688 l 438 625 l 438 313 m 640 1125 l 640 1250 l 703 1188 l 703 1125 l 640 1125 m 390 1000 l 390 1250 l 453 1313 l 703 1313 l 703 1250 l 453 1250 l 453 1063 l 578 1063 l 578 1125 l 640 1125 l 703 1063 l 640 1063 l 578 1000 l 390 1000 z "},"H":{"ha":1072,"x_min":63,"x_max":1000,"o":"m 938 750 l 938 875 l 1000 813 l 1000 750 l 938 750 m 938 625 l 938 750 l 1000 688 l 1000 625 l 938 625 m 63 375 l 63 1000 l 375 1000 l 438 938 l 438 688 l 625 688 l 625 1000 l 938 1000 l 1000 938 l 1000 875 l 938 875 l 938 938 l 688 938 l 688 688 l 625 625 l 375 625 l 375 938 l 125 938 l 125 438 l 63 375 m 938 500 l 938 625 l 1000 563 l 1000 500 l 938 500 m 938 375 l 938 500 l 1000 438 l 1000 375 l 938 375 m 938 250 l 938 375 l 1000 313 l 1000 250 l 938 250 m 938 125 l 938 250 l 1000 188 l 1000 125 l 938 125 m 63 0 l 63 375 l 125 375 l 125 63 l 375 63 l 375 375 l 625 375 l 688 313 l 688 63 l 875 63 l 813 0 l 625 0 l 625 313 l 438 313 l 438 63 l 375 0 l 63 0 m 938 63 l 938 125 l 1000 63 l 938 63 m 875 0 l 875 63 l 938 63 l 938 0 l 875 0 z "},"Ħ":{"ha":1072,"x_min":63,"x_max":1000,"o":"m 938 750 l 938 875 l 1000 813 l 1000 750 l 938 750 m 938 625 l 938 750 l 1000 688 l 1000 625 l 938 625 m 938 500 l 938 625 l 1000 563 l 1000 500 l 938 500 m 938 375 l 938 500 l 1000 438 l 1000 375 l 938 375 m 938 250 l 938 375 l 1000 313 l 1000 250 l 938 250 m 938 125 l 938 250 l 1000 188 l 1000 125 l 938 125 m 625 0 l 625 250 l 688 188 l 688 63 l 938 63 l 938 125 l 1000 63 l 938 0 l 625 0 m 63 0 l 63 1000 l 375 1000 l 438 938 l 625 938 l 625 1000 l 938 1000 l 1000 938 l 1000 875 l 938 875 l 938 938 l 688 938 l 625 875 l 375 875 l 375 938 l 125 938 l 125 63 l 375 63 l 375 375 l 625 375 l 688 313 l 688 250 l 625 250 l 625 313 l 438 313 l 438 63 l 375 0 l 63 0 m 375 625 l 375 750 l 625 750 l 688 688 l 625 625 l 375 625 z "},"Ĥ":{"ha":1072,"x_min":63,"x_max":1000,"o":"m 938 750 l 938 875 l 1000 813 l 1000 750 l 938 750 m 938 625 l 938 750 l 1000 688 l 1000 625 l 938 625 m 63 375 l 63 1000 l 375 1000 l 438 938 l 438 688 l 625 688 l 625 1000 l 938 1000 l 1000 938 l 1000 875 l 938 875 l 938 938 l 688 938 l 688 688 l 625 625 l 375 625 l 375 938 l 125 938 l 125 438 l 63 375 m 938 500 l 938 625 l 1000 563 l 1000 500 l 938 500 m 938 375 l 938 500 l 1000 438 l 1000 375 l 938 375 m 938 250 l 938 375 l 1000 313 l 1000 250 l 938 250 m 938 125 l 938 250 l 1000 188 l 1000 125 l 938 125 m 63 0 l 63 375 l 125 375 l 125 63 l 375 63 l 375 375 l 625 375 l 688 313 l 688 63 l 875 63 l 813 0 l 625 0 l 625 313 l 438 313 l 438 63 l 375 0 l 63 0 m 938 63 l 938 125 l 1000 63 l 938 63 m 875 0 l 875 63 l 938 63 l 938 0 l 875 0 m 217 1000 l 217 1125 l 279 1188 l 279 1250 l 404 1250 l 404 1188 l 342 1188 l 279 1125 l 279 1063 l 404 1063 l 404 1125 l 592 1125 l 654 1063 l 779 1063 l 779 1125 l 842 1063 l 779 1000 l 592 1000 l 592 1063 l 467 1063 l 404 1000 l 217 1000 m 717 1125 l 717 1188 l 654 1250 l 717 1250 l 779 1188 l 842 1188 l 842 1125 l 717 1125 z "},"I":{"ha":511,"x_min":63,"x_max":438,"o":"m 375 750 l 375 875 l 438 813 l 438 750 l 375 750 m 375 625 l 375 750 l 438 688 l 438 625 l 375 625 m 63 625 l 63 1000 l 375 1000 l 438 938 l 438 875 l 375 875 l 375 938 l 125 938 l 125 688 l 63 625 m 375 500 l 375 625 l 438 563 l 438 500 l 375 500 m 375 375 l 375 500 l 438 438 l 438 375 l 375 375 m 375 250 l 375 375 l 438 313 l 438 250 l 375 250 m 375 125 l 375 250 l 438 188 l 438 125 l 375 125 m 63 0 l 63 625 l 125 563 l 125 63 l 375 63 l 375 125 l 438 63 l 375 0 l 63 0 z "},"Ĳ":{"ha":1121,"x_min":63,"x_max":1063,"o":"m 1000 813 l 1000 938 l 1063 875 l 1063 813 l 1000 813 m 1000 688 l 1000 813 l 1063 750 l 1063 688 l 1000 688 m 1000 563 l 1000 688 l 1063 625 l 1063 563 l 1000 563 m 1000 438 l 1000 563 l 1063 500 l 1063 438 l 1000 438 m 1000 313 l 1000 438 l 1063 375 l 1063 313 l 1000 313 m 63 63 l 63 938 l 125 938 l 125 63 l 375 63 l 375 938 l 438 938 l 438 0 l 125 0 l 63 63 m 1000 188 l 1000 313 l 1063 250 l 1063 188 l 1000 188 m 500 -62 l 500 313 l 625 313 l 688 375 l 688 938 l 750 938 l 750 375 l 688 313 l 688 250 l 563 250 l 563 0 l 750 0 l 750 63 l 875 63 l 938 125 l 938 188 l 1000 188 l 1063 125 l 1000 125 l 938 63 l 938 0 l 813 0 l 750 -62 l 500 -62 z "},"Í":{"ha":511,"x_min":56,"x_max":556,"o":"m 375 750 l 375 875 l 438 813 l 438 750 l 375 750 m 375 625 l 375 750 l 438 688 l 438 625 l 375 625 m 63 625 l 63 1000 l 375 1000 l 438 938 l 438 875 l 375 875 l 375 938 l 125 938 l 125 688 l 63 625 m 375 500 l 375 625 l 438 563 l 438 500 l 375 500 m 375 375 l 375 500 l 438 438 l 438 375 l 375 375 m 375 250 l 375 375 l 438 313 l 438 250 l 375 250 m 375 125 l 375 250 l 438 188 l 438 125 l 375 125 m 63 0 l 63 625 l 125 563 l 125 63 l 375 63 l 375 125 l 438 63 l 375 0 l 63 0 m 118 1000 l 56 1063 l 118 1125 l 118 1188 l 181 1188 l 243 1250 l 306 1250 l 243 1188 l 243 1125 l 181 1125 l 118 1063 l 368 1063 l 431 1125 l 431 1188 l 556 1188 l 556 1125 l 493 1125 l 431 1063 l 431 1000 l 118 1000 z "},"Ĭ":{"ha":511,"x_min":3,"x_max":503,"o":"m 375 750 l 375 875 l 438 813 l 438 750 l 375 750 m 375 625 l 375 750 l 438 688 l 438 625 l 375 625 m 63 625 l 63 1000 l 375 1000 l 438 938 l 438 875 l 375 875 l 375 938 l 125 938 l 125 688 l 63 625 m 375 500 l 375 625 l 438 563 l 438 500 l 375 500 m 375 375 l 375 500 l 438 438 l 438 375 l 375 375 m 375 250 l 375 375 l 438 313 l 438 250 l 375 250 m 375 125 l 375 250 l 438 188 l 438 125 l 375 125 m 63 0 l 63 625 l 125 563 l 125 63 l 375 63 l 375 125 l 438 63 l 375 0 l 63 0 m 440 1125 l 440 1250 l 503 1188 l 503 1125 l 440 1125 m 190 1125 l 190 1250 l 315 1250 l 315 1188 l 253 1125 l 190 1125 m 65 1000 l 65 1063 l 3 1125 l 3 1250 l 65 1250 l 65 1125 l 128 1063 l 378 1063 l 378 1125 l 440 1125 l 503 1063 l 440 1063 l 378 1000 l 65 1000 z "},"Î":{"ha":511,"x_min":-64,"x_max":561,"o":"m 375 750 l 375 875 l 438 813 l 438 750 l 375 750 m 375 625 l 375 750 l 438 688 l 438 625 l 375 625 m 63 625 l 63 1000 l 375 1000 l 438 938 l 438 875 l 375 875 l 375 938 l 125 938 l 125 688 l 63 625 m 375 500 l 375 625 l 438 563 l 438 500 l 375 500 m 375 375 l 375 500 l 438 438 l 438 375 l 375 375 m 375 250 l 375 375 l 438 313 l 438 250 l 375 250 m 375 125 l 375 250 l 438 188 l 438 125 l 375 125 m 63 0 l 63 625 l 125 563 l 125 63 l 375 63 l 375 125 l 438 63 l 375 0 l 63 0 m -64 1000 l -64 1125 l -1 1188 l -1 1250 l 124 1250 l 124 1188 l 61 1188 l -1 1125 l -1 1063 l 124 1063 l 124 1125 l 311 1125 l 374 1063 l 499 1063 l 499 1125 l 561 1063 l 499 1000 l 311 1000 l 311 1063 l 186 1063 l 124 1000 l -64 1000 m 436 1125 l 436 1188 l 374 1250 l 436 1250 l 499 1188 l 561 1188 l 561 1125 l 436 1125 z "},"Ï":{"ha":511,"x_min":-57,"x_max":568,"o":"m 375 750 l 375 875 l 438 813 l 438 750 l 375 750 m 375 625 l 375 750 l 438 688 l 438 625 l 375 625 m 63 625 l 63 1000 l 375 1000 l 438 938 l 438 875 l 375 875 l 375 938 l 125 938 l 125 688 l 63 625 m 375 500 l 375 625 l 438 563 l 438 500 l 375 500 m 375 375 l 375 500 l 438 438 l 438 375 l 375 375 m 375 250 l 375 375 l 438 313 l 438 250 l 375 250 m 375 125 l 375 250 l 438 188 l 438 125 l 375 125 m 63 0 l 63 625 l 125 563 l 125 63 l 375 63 l 375 125 l 438 63 l 375 0 l 63 0 m 506 1125 l 506 1250 l 568 1188 l 568 1125 l 506 1125 m 318 1000 l 318 1250 l 381 1250 l 381 1063 l 506 1063 l 506 1125 l 568 1063 l 506 1000 l 318 1000 m -57 1000 l -57 1250 l 6 1250 l 6 1063 l 131 1063 l 131 1250 l 193 1250 l 193 1063 l 131 1000 l -57 1000 z "},"İ":{"ha":511,"x_min":63,"x_max":438,"o":"m 375 750 l 375 875 l 438 813 l 438 750 l 375 750 m 375 625 l 375 750 l 438 688 l 438 625 l 375 625 m 63 625 l 63 1000 l 375 1000 l 438 938 l 438 875 l 375 875 l 375 938 l 125 938 l 125 688 l 63 625 m 375 500 l 375 625 l 438 563 l 438 500 l 375 500 m 375 375 l 375 500 l 438 438 l 438 375 l 375 375 m 375 250 l 375 375 l 438 313 l 438 250 l 375 250 m 375 125 l 375 250 l 438 188 l 438 125 l 375 125 m 63 0 l 63 625 l 125 563 l 125 63 l 375 63 l 375 125 l 438 63 l 375 0 l 63 0 m 372 1125 l 372 1250 l 435 1188 l 435 1125 l 372 1125 m 122 1000 l 122 1250 l 185 1313 l 435 1313 l 435 1250 l 185 1250 l 185 1063 l 310 1063 l 310 1125 l 372 1125 l 435 1063 l 372 1063 l 310 1000 l 122 1000 z "},"Ì":{"ha":511,"x_min":-104,"x_max":438,"o":"m 375 750 l 375 875 l 438 813 l 438 750 l 375 750 m 375 625 l 375 750 l 438 688 l 438 625 l 375 625 m 63 625 l 63 1000 l 375 1000 l 438 938 l 438 875 l 375 875 l 375 938 l 125 938 l 125 688 l 63 625 m 375 500 l 375 625 l 438 563 l 438 500 l 375 500 m 375 375 l 375 500 l 438 438 l 438 375 l 375 375 m 375 250 l 375 375 l 438 313 l 438 250 l 375 250 m 375 125 l 375 250 l 438 188 l 438 125 l 375 125 m 63 0 l 63 625 l 125 563 l 125 63 l 375 63 l 375 125 l 438 63 l 375 0 l 63 0 m 271 1125 l 271 1188 l 208 1250 l 271 1250 l 333 1188 l 396 1188 l 396 1125 l 271 1125 m 83 1000 l 83 1063 l 21 1125 l -42 1125 l -42 1188 l -104 1250 l -42 1250 l 21 1188 l 83 1188 l 83 1125 l 146 1063 l 396 1063 l 396 1000 l 83 1000 z "},"Ī":{"ha":511,"x_min":-46,"x_max":579,"o":"m 375 750 l 375 875 l 438 813 l 438 750 l 375 750 m 375 625 l 375 750 l 438 688 l 438 625 l 375 625 m 63 625 l 63 1000 l 375 1000 l 438 938 l 438 875 l 375 875 l 375 938 l 125 938 l 125 688 l 63 625 m 375 500 l 375 625 l 438 563 l 438 500 l 375 500 m 375 375 l 375 500 l 438 438 l 438 375 l 375 375 m 375 250 l 375 375 l 438 313 l 438 250 l 375 250 m 375 125 l 375 250 l 438 188 l 438 125 l 375 125 m 63 0 l 63 625 l 125 563 l 125 63 l 375 63 l 375 125 l 438 63 l 375 0 l 63 0 m 517 1125 l 517 1250 l 579 1188 l 579 1125 l 517 1125 m -46 1000 l -46 1250 l 17 1250 l 17 1063 l 517 1063 l 517 1125 l 579 1063 l 517 1000 l -46 1000 z "},"Į":{"ha":511,"x_min":63,"x_max":438,"o":"m 125 938 l 125 1000 l 438 1000 l 438 938 l 125 938 m 375 813 l 375 938 l 438 875 l 438 813 l 375 813 m 375 688 l 375 813 l 438 750 l 375 688 m 375 563 l 375 688 l 438 625 l 438 563 l 375 563 m 375 438 l 375 563 l 438 500 l 438 438 l 375 438 m 375 313 l 375 438 l 438 375 l 438 313 l 375 313 m 375 188 l 375 313 l 438 250 l 438 188 l 375 188 m 375 63 l 375 188 l 438 125 l 438 63 l 375 63 m 313 -62 l 375 0 l 375 63 l 438 0 l 375 -62 l 375 -125 l 438 -125 l 438 -187 l 313 -187 l 313 -62 m 63 63 l 63 938 l 125 875 l 125 63 l 188 0 l 188 -187 l 250 -250 l 375 -250 l 375 -187 l 438 -250 l 375 -312 l 188 -312 l 188 -250 l 125 -187 l 125 0 l 63 63 z "},"Ĩ":{"ha":511,"x_min":-35,"x_max":590,"o":"m 375 750 l 375 875 l 438 813 l 438 750 l 375 750 m 375 625 l 375 750 l 438 688 l 438 625 l 375 625 m 63 625 l 63 1000 l 375 1000 l 438 938 l 438 875 l 375 875 l 375 938 l 125 938 l 125 688 l 63 625 m 375 500 l 375 625 l 438 563 l 438 500 l 375 500 m 375 375 l 375 500 l 438 438 l 438 375 l 375 375 m 375 250 l 375 375 l 438 313 l 438 250 l 375 250 m 375 125 l 375 250 l 438 188 l 438 125 l 375 125 m 63 0 l 63 625 l 125 563 l 125 63 l 375 63 l 375 125 l 438 63 l 375 0 l 63 0 m 278 1188 l 215 1250 l 403 1250 l 403 1188 l 278 1188 m -35 1000 l -35 1250 l 90 1250 l 90 1188 l 28 1188 l 28 1063 l 90 1063 l 90 1125 l 215 1125 l 278 1063 l 403 1063 l 403 1125 l 465 1125 l 528 1188 l 528 1250 l 590 1188 l 528 1125 l 528 1063 l 465 1063 l 403 1000 l 215 1000 l 215 1063 l 153 1063 l 90 1000 l -35 1000 z "},"J":{"ha":975,"x_min":0,"x_max":938,"o":"m 875 813 l 875 938 l 938 875 l 938 813 l 875 813 m 875 688 l 875 813 l 938 750 l 938 688 l 875 688 m 875 563 l 875 688 l 938 625 l 938 563 l 875 563 m 875 438 l 875 563 l 938 500 l 938 438 l 875 438 m 875 313 l 875 438 l 938 375 l 938 313 l 875 313 m 63 63 l 63 125 l 0 188 l 0 313 l 63 375 l 438 375 l 438 313 l 500 313 l 500 688 l 63 688 l 63 938 l 125 938 l 125 750 l 563 750 l 563 250 l 438 250 l 375 313 l 63 313 l 63 188 l 125 125 l 188 125 l 188 63 l 313 63 l 375 0 l 563 0 l 563 63 l 750 63 l 813 125 l 813 188 l 875 250 l 875 313 l 938 250 l 875 188 l 875 125 l 813 63 l 813 0 l 625 0 l 563 -62 l 313 -62 l 313 0 l 188 0 l 125 63 l 63 63 z "},"Ĵ":{"ha":975,"x_min":0,"x_max":938,"o":"m 875 813 l 875 938 l 938 875 l 938 813 l 875 813 m 875 688 l 875 813 l 938 750 l 938 688 l 875 688 m 875 563 l 875 688 l 938 625 l 938 563 l 875 563 m 875 438 l 875 563 l 938 500 l 938 438 l 875 438 m 875 313 l 875 438 l 938 375 l 938 313 l 875 313 m 63 63 l 63 125 l 0 188 l 0 313 l 63 375 l 438 375 l 438 313 l 500 313 l 500 688 l 63 688 l 63 938 l 125 938 l 125 750 l 563 750 l 563 250 l 438 250 l 375 313 l 63 313 l 63 188 l 125 125 l 188 125 l 188 63 l 313 63 l 375 0 l 563 0 l 563 63 l 750 63 l 813 125 l 813 188 l 875 250 l 875 313 l 938 250 l 875 188 l 875 125 l 813 63 l 813 0 l 625 0 l 563 -62 l 313 -62 l 313 0 l 188 0 l 125 63 l 63 63 m 196 1000 l 196 1125 l 258 1188 l 258 1250 l 383 1250 l 383 1188 l 321 1188 l 258 1125 l 258 1063 l 383 1063 l 383 1125 l 571 1125 l 633 1063 l 758 1063 l 758 1125 l 821 1063 l 758 1000 l 571 1000 l 571 1063 l 446 1063 l 383 1000 l 196 1000 m 696 1125 l 696 1188 l 633 1250 l 696 1250 l 758 1188 l 821 1188 l 821 1125 l 696 1125 z "},"K":{"ha":993,"x_min":63,"x_max":1000,"o":"m 750 375 l 750 500 l 813 438 l 750 375 m 750 375 l 813 375 l 875 313 l 875 250 l 938 188 l 1000 188 l 1000 125 l 875 125 l 875 188 l 813 250 l 813 313 l 750 375 m 63 0 l 63 1000 l 375 1000 l 438 938 l 438 750 l 500 813 l 500 875 l 563 938 l 563 1000 l 938 1000 l 1000 938 l 938 875 l 938 813 l 875 750 l 875 688 l 813 625 l 813 563 l 750 563 l 750 500 l 688 500 l 688 625 l 750 625 l 813 688 l 813 750 l 875 813 l 875 875 l 938 938 l 625 938 l 563 875 l 563 813 l 500 750 l 500 688 l 438 688 l 375 750 l 375 938 l 125 938 l 125 63 l 375 63 l 375 250 l 438 313 l 500 313 l 500 188 l 563 188 l 563 125 l 625 63 l 938 63 l 938 125 l 1000 63 l 938 0 l 563 0 l 563 63 l 500 125 l 438 125 l 438 63 l 375 0 l 63 0 z "},"Ķ":{"ha":993,"x_min":63,"x_max":1000,"o":"m 750 375 l 750 500 l 813 438 l 750 375 m 750 375 l 813 375 l 875 313 l 875 250 l 938 188 l 1000 188 l 1000 125 l 875 125 l 875 188 l 813 250 l 813 313 l 750 375 m 63 0 l 63 1000 l 375 1000 l 438 938 l 438 750 l 500 813 l 500 875 l 563 938 l 563 1000 l 938 1000 l 1000 938 l 938 875 l 938 813 l 875 750 l 875 688 l 813 625 l 813 563 l 750 563 l 750 500 l 688 500 l 688 625 l 750 625 l 813 688 l 813 750 l 875 813 l 875 875 l 938 938 l 625 938 l 563 875 l 563 813 l 500 750 l 500 688 l 438 688 l 375 750 l 375 938 l 125 938 l 125 63 l 375 63 l 375 250 l 438 313 l 500 313 l 500 188 l 563 188 l 563 125 l 625 63 l 938 63 l 938 125 l 1000 63 l 938 0 l 563 0 l 563 63 l 500 125 l 438 125 l 438 63 l 375 0 l 63 0 m 306 -125 l 368 -62 l 681 -62 l 681 -125 l 618 -125 l 681 -187 l 618 -187 l 618 -312 l 556 -375 l 306 -375 l 306 -125 m 368 -125 l 368 -312 l 556 -312 l 556 -125 l 368 -125 z "},"L":{"ha":869,"x_min":63,"x_max":875,"o":"m 63 0 l 63 1000 l 375 1000 l 438 938 l 438 313 l 625 313 l 563 250 l 375 250 l 375 938 l 125 938 l 125 63 l 63 0 m 625 250 l 625 313 l 750 313 l 688 250 l 625 250 m 750 250 l 750 313 l 875 313 l 875 250 l 750 250 m 813 125 l 813 250 l 875 188 l 875 125 l 813 125 m 125 0 l 125 63 l 813 63 l 813 125 l 875 63 l 813 0 l 125 0 z "},"Ĺ":{"ha":869,"x_min":40,"x_max":875,"o":"m 63 0 l 63 1000 l 375 1000 l 438 938 l 438 313 l 625 313 l 563 250 l 375 250 l 375 938 l 125 938 l 125 63 l 63 0 m 625 250 l 625 313 l 750 313 l 688 250 l 625 250 m 750 250 l 750 313 l 875 313 l 875 250 l 750 250 m 813 125 l 813 250 l 875 188 l 875 125 l 813 125 m 125 0 l 125 63 l 813 63 l 813 125 l 875 63 l 813 0 l 125 0 m 103 1000 l 40 1063 l 103 1125 l 103 1188 l 165 1188 l 228 1250 l 290 1250 l 228 1188 l 228 1125 l 165 1125 l 103 1063 l 353 1063 l 415 1125 l 415 1188 l 540 1188 l 540 1125 l 478 1125 l 415 1063 l 415 1000 l 103 1000 z "},"Ľ":{"ha":869,"x_min":63,"x_max":886,"o":"m 63 0 l 63 1000 l 375 1000 l 438 938 l 438 313 l 625 313 l 563 250 l 375 250 l 375 938 l 125 938 l 125 63 l 63 0 m 625 250 l 625 313 l 750 313 l 688 250 l 625 250 m 750 250 l 750 313 l 875 313 l 875 250 l 750 250 m 813 125 l 813 250 l 875 188 l 875 125 l 813 125 m 125 0 l 125 63 l 813 63 l 813 125 l 875 63 l 813 0 l 125 0 m 574 658 l 699 658 l 699 721 l 761 721 l 761 846 l 574 846 l 574 658 m 511 596 l 511 846 l 574 908 l 886 908 l 886 846 l 824 846 l 886 783 l 824 783 l 824 658 l 761 658 l 699 596 l 511 596 z "},"Ļ":{"ha":869,"x_min":63,"x_max":875,"o":"m 63 0 l 63 1000 l 375 1000 l 438 938 l 438 313 l 625 313 l 563 250 l 375 250 l 375 938 l 125 938 l 125 63 l 63 0 m 625 250 l 625 313 l 750 313 l 688 250 l 625 250 m 750 250 l 750 313 l 875 313 l 875 250 l 750 250 m 813 125 l 813 250 l 875 188 l 875 125 l 813 125 m 125 0 l 125 63 l 813 63 l 813 125 l 875 63 l 813 0 l 125 0 m 243 -125 l 306 -62 l 618 -62 l 618 -125 l 556 -125 l 618 -187 l 556 -187 l 556 -312 l 493 -375 l 243 -375 l 243 -125 m 306 -125 l 306 -312 l 493 -312 l 493 -125 l 306 -125 z "},"Ŀ":{"ha":874,"x_min":63,"x_max":875,"o":"m 63 0 l 63 1000 l 375 1000 l 438 938 l 438 313 l 625 313 l 563 250 l 375 250 l 375 938 l 125 938 l 125 63 l 63 0 m 625 250 l 625 313 l 750 313 l 688 250 l 625 250 m 750 250 l 750 313 l 875 313 l 875 250 l 750 250 m 813 125 l 813 250 l 875 188 l 875 125 l 813 125 m 125 0 l 125 63 l 813 63 l 813 125 l 875 63 l 813 0 l 125 0 m 744 375 l 557 375 l 557 625 l 619 625 l 619 438 l 744 438 l 744 500 l 807 438 l 744 375 z "},"Ł":{"ha":881,"x_min":0,"x_max":875,"o":"m 0 250 l 0 500 l 63 563 l 63 1000 l 438 1000 l 500 938 l 500 750 l 563 750 l 625 813 l 688 813 l 688 563 l 625 500 l 625 438 l 500 438 l 500 313 l 813 313 l 813 250 l 438 250 l 438 500 l 563 500 l 625 563 l 625 688 l 500 688 l 438 750 l 438 938 l 125 938 l 125 563 l 63 500 l 63 313 l 125 313 l 125 250 l 0 250 m 813 125 l 813 250 l 875 188 l 875 125 l 813 125 m 63 0 l 63 250 l 125 188 l 125 63 l 813 63 l 813 125 l 875 63 l 813 0 l 63 0 z "},"M":{"ha":1189,"x_min":63,"x_max":1125,"o":"m 1063 750 l 1063 875 l 1125 813 l 1125 750 l 1063 750 m 1063 625 l 1063 750 l 1125 688 l 1125 625 l 1063 625 m 1063 500 l 1063 625 l 1125 563 l 1125 500 l 1063 500 m 1063 375 l 1063 500 l 1125 438 l 1125 375 l 1063 375 m 63 250 l 63 1000 l 375 1000 l 438 938 l 438 875 l 500 813 l 563 813 l 563 688 l 625 688 l 625 750 l 688 813 l 688 875 l 750 875 l 750 1000 l 1063 1000 l 1125 938 l 1125 875 l 1063 875 l 1063 938 l 813 938 l 813 813 l 750 813 l 688 750 l 688 688 l 625 625 l 500 625 l 500 750 l 438 750 l 438 813 l 375 875 l 375 938 l 125 938 l 125 250 l 63 250 m 1063 250 l 1063 375 l 1125 313 l 1125 250 l 1063 250 m 1063 125 l 1063 250 l 1125 188 l 1125 125 l 1063 125 m 63 0 l 63 250 l 125 188 l 125 63 l 375 63 l 375 375 l 438 375 l 500 313 l 563 313 l 563 250 l 625 250 l 688 313 l 688 375 l 750 375 l 813 313 l 813 63 l 1063 63 l 1063 125 l 1125 63 l 1063 0 l 750 0 l 750 313 l 688 250 l 688 188 l 563 188 l 500 250 l 438 250 l 438 63 l 375 0 l 63 0 z "},"N":{"ha":1028,"x_min":63,"x_max":938,"o":"m 63 250 l 63 750 l 125 688 l 125 313 l 63 250 m 63 0 l 63 250 l 125 250 l 125 63 l 375 63 l 375 375 l 438 375 l 500 313 l 500 250 l 563 188 l 625 188 l 625 63 l 938 63 l 938 0 l 563 0 l 563 125 l 500 125 l 500 188 l 438 250 l 438 63 l 375 0 l 63 0 m 63 750 l 63 1000 l 375 1000 l 438 938 l 438 875 l 500 813 l 563 813 l 563 688 l 625 688 l 625 1000 l 875 1000 l 938 938 l 688 938 l 688 563 l 625 500 l 563 500 l 563 625 l 500 625 l 500 750 l 438 750 l 438 813 l 375 875 l 375 938 l 125 938 l 125 750 l 63 750 z "},"Ń":{"ha":1028,"x_min":63,"x_max":938,"o":"m 63 250 l 63 750 l 125 688 l 125 313 l 63 250 m 63 0 l 63 250 l 125 250 l 125 63 l 375 63 l 375 375 l 438 375 l 500 313 l 500 250 l 563 188 l 625 188 l 625 63 l 938 63 l 938 0 l 563 0 l 563 125 l 500 125 l 500 188 l 438 250 l 438 63 l 375 0 l 63 0 m 63 750 l 63 1000 l 375 1000 l 438 938 l 438 875 l 500 813 l 563 813 l 563 688 l 625 688 l 625 1000 l 875 1000 l 938 938 l 688 938 l 688 563 l 625 500 l 563 500 l 563 625 l 500 625 l 500 750 l 438 750 l 438 813 l 375 875 l 375 938 l 125 938 l 125 750 l 63 750 m 376 1000 l 314 1063 l 376 1125 l 376 1188 l 439 1188 l 501 1250 l 564 1250 l 501 1188 l 501 1125 l 439 1125 l 376 1063 l 626 1063 l 689 1125 l 689 1188 l 814 1188 l 814 1125 l 751 1125 l 689 1063 l 689 1000 l 376 1000 z "},"Ň":{"ha":1028,"x_min":63,"x_max":938,"o":"m 63 250 l 63 750 l 125 688 l 125 313 l 63 250 m 63 0 l 63 250 l 125 250 l 125 63 l 375 63 l 375 375 l 438 375 l 500 313 l 500 250 l 563 188 l 625 188 l 625 63 l 938 63 l 938 0 l 563 0 l 563 125 l 500 125 l 500 188 l 438 250 l 438 63 l 375 0 l 63 0 m 63 750 l 63 1000 l 375 1000 l 438 938 l 438 875 l 500 813 l 563 813 l 563 688 l 625 688 l 625 1000 l 875 1000 l 938 938 l 688 938 l 688 563 l 625 500 l 563 500 l 563 625 l 500 625 l 500 750 l 438 750 l 438 813 l 375 875 l 375 938 l 125 938 l 125 750 l 63 750 m 444 1188 l 382 1250 l 632 1250 l 632 1188 l 444 1188 m 319 1000 l 319 1125 l 257 1125 l 257 1188 l 194 1250 l 257 1250 l 319 1188 l 382 1188 l 382 1063 l 632 1063 l 632 1125 l 694 1125 l 757 1188 l 757 1250 l 819 1188 l 757 1125 l 757 1063 l 694 1063 l 632 1000 l 319 1000 z "},"Ņ":{"ha":1028,"x_min":63,"x_max":938,"o":"m 63 250 l 63 750 l 125 688 l 125 313 l 63 250 m 63 0 l 63 250 l 125 250 l 125 63 l 375 63 l 375 375 l 438 375 l 500 313 l 500 250 l 563 188 l 625 188 l 625 63 l 938 63 l 938 0 l 563 0 l 563 125 l 500 125 l 500 188 l 438 250 l 438 63 l 375 0 l 63 0 m 63 750 l 63 1000 l 375 1000 l 438 938 l 438 875 l 500 813 l 563 813 l 563 688 l 625 688 l 625 1000 l 875 1000 l 938 938 l 688 938 l 688 563 l 625 500 l 563 500 l 563 625 l 500 625 l 500 750 l 438 750 l 438 813 l 375 875 l 375 938 l 125 938 l 125 750 l 63 750 m 328 -125 l 390 -62 l 703 -62 l 703 -125 l 640 -125 l 703 -187 l 640 -187 l 640 -312 l 578 -375 l 328 -375 l 328 -125 m 390 -125 l 390 -312 l 578 -312 l 578 -125 l 390 -125 z "},"Ñ":{"ha":1028,"x_min":63,"x_max":938,"o":"m 63 250 l 63 750 l 125 688 l 125 313 l 63 250 m 63 0 l 63 250 l 125 250 l 125 63 l 375 63 l 375 375 l 438 375 l 500 313 l 500 250 l 563 188 l 625 188 l 625 63 l 938 63 l 938 0 l 563 0 l 563 125 l 500 125 l 500 188 l 438 250 l 438 63 l 375 0 l 63 0 m 63 750 l 63 1000 l 375 1000 l 438 938 l 438 875 l 500 813 l 563 813 l 563 688 l 625 688 l 625 1000 l 875 1000 l 938 938 l 688 938 l 688 563 l 625 500 l 563 500 l 563 625 l 500 625 l 500 750 l 438 750 l 438 813 l 375 875 l 375 938 l 125 938 l 125 750 l 63 750 m 536 1188 l 474 1250 l 661 1250 l 661 1188 l 536 1188 m 224 1000 l 224 1250 l 349 1250 l 349 1188 l 286 1188 l 286 1063 l 349 1063 l 349 1125 l 474 1125 l 536 1063 l 661 1063 l 661 1125 l 724 1125 l 786 1188 l 786 1250 l 849 1188 l 786 1125 l 786 1063 l 724 1063 l 661 1000 l 474 1000 l 474 1063 l 411 1063 l 349 1000 l 224 1000 z "},"Ŋ":{"ha":1028,"x_min":63,"x_max":938,"o":"m 63 63 l 63 438 l 125 375 l 125 63 l 375 63 l 375 313 l 438 375 l 500 375 l 500 250 l 563 250 l 563 188 l 625 125 l 625 0 l 563 -62 l 500 -62 l 500 -250 l 750 -250 l 750 -187 l 813 -187 l 875 -125 l 875 -62 l 938 -125 l 875 -187 l 875 -250 l 813 -250 l 750 -312 l 438 -312 l 438 -62 l 500 0 l 563 0 l 563 125 l 500 188 l 438 188 l 438 0 l 125 0 l 63 63 m 63 438 l 63 938 l 125 1000 l 438 1000 l 438 875 l 500 875 l 500 813 l 563 750 l 563 688 l 625 625 l 625 938 l 688 1000 l 938 1000 l 938 938 l 688 938 l 688 500 l 625 500 l 563 563 l 563 625 l 500 688 l 500 750 l 438 813 l 375 813 l 375 938 l 125 938 l 125 438 l 63 438 z "},"O":{"ha":1031,"x_min":0,"x_max":1000,"o":"m 750 875 l 750 938 l 875 938 l 875 875 l 938 813 l 938 750 l 875 750 l 875 813 l 813 875 l 750 875 m 938 688 l 938 750 l 1000 688 l 938 688 m 938 563 l 938 625 l 1000 563 l 938 563 m 938 438 l 938 500 l 1000 438 l 938 438 m 938 313 l 938 375 l 1000 313 l 938 313 m 375 250 l 375 625 l 438 688 l 438 750 l 563 750 l 625 688 l 625 313 l 563 250 l 375 250 m 63 125 l 63 250 l 0 250 l 0 750 l 63 750 l 63 875 l 125 875 l 188 938 l 313 938 l 250 875 l 188 875 l 188 813 l 125 813 l 125 688 l 63 688 l 63 313 l 125 313 l 125 188 l 188 188 l 188 125 l 250 63 l 375 63 l 375 0 l 625 0 l 688 63 l 813 63 l 813 125 l 875 125 l 875 250 l 938 250 l 1000 188 l 938 188 l 938 63 l 875 63 l 813 0 l 688 0 l 688 -62 l 375 -62 l 313 0 l 188 0 l 188 63 l 125 125 l 63 125 m 563 313 l 563 688 l 500 688 l 438 625 l 438 313 l 563 313 z "},"Ó":{"ha":1031,"x_min":0,"x_max":1000,"o":"m 750 875 l 750 938 l 875 938 l 875 875 l 938 813 l 938 750 l 875 750 l 875 813 l 813 875 l 750 875 m 938 688 l 938 750 l 1000 688 l 938 688 m 938 563 l 938 625 l 1000 563 l 938 563 m 938 438 l 938 500 l 1000 438 l 938 438 m 938 313 l 938 375 l 1000 313 l 938 313 m 375 250 l 375 625 l 438 688 l 438 750 l 563 750 l 625 688 l 625 313 l 563 250 l 375 250 m 63 125 l 63 250 l 0 250 l 0 750 l 63 750 l 63 875 l 125 875 l 188 938 l 313 938 l 250 875 l 188 875 l 188 813 l 125 813 l 125 688 l 63 688 l 63 313 l 125 313 l 125 188 l 188 188 l 188 125 l 250 63 l 375 63 l 375 0 l 625 0 l 688 63 l 813 63 l 813 125 l 875 125 l 875 250 l 938 250 l 1000 188 l 938 188 l 938 63 l 875 63 l 813 0 l 688 0 l 688 -62 l 375 -62 l 313 0 l 188 0 l 188 63 l 125 125 l 63 125 m 563 313 l 563 688 l 500 688 l 438 625 l 438 313 l 563 313 m 378 1000 l 315 1063 l 378 1125 l 378 1188 l 440 1188 l 503 1250 l 565 1250 l 503 1188 l 503 1125 l 440 1125 l 378 1063 l 628 1063 l 690 1125 l 690 1188 l 815 1188 l 815 1125 l 753 1125 l 690 1063 l 690 1000 l 378 1000 z "},"Ŏ":{"ha":1031,"x_min":0,"x_max":1000,"o":"m 750 875 l 750 938 l 875 938 l 875 875 l 938 813 l 938 750 l 875 750 l 875 813 l 813 875 l 750 875 m 938 688 l 938 750 l 1000 688 l 938 688 m 938 563 l 938 625 l 1000 563 l 938 563 m 938 438 l 938 500 l 1000 438 l 938 438 m 938 313 l 938 375 l 1000 313 l 938 313 m 375 250 l 375 625 l 438 688 l 438 750 l 563 750 l 625 688 l 625 313 l 563 250 l 375 250 m 63 125 l 63 250 l 0 250 l 0 750 l 63 750 l 63 875 l 125 875 l 188 938 l 313 938 l 250 875 l 188 875 l 188 813 l 125 813 l 125 688 l 63 688 l 63 313 l 125 313 l 125 188 l 188 188 l 188 125 l 250 63 l 375 63 l 375 0 l 625 0 l 688 63 l 813 63 l 813 125 l 875 125 l 875 250 l 938 250 l 1000 188 l 938 188 l 938 63 l 875 63 l 813 0 l 688 0 l 688 -62 l 375 -62 l 313 0 l 188 0 l 188 63 l 125 125 l 63 125 m 563 313 l 563 688 l 500 688 l 438 625 l 438 313 l 563 313 m 700 1125 l 700 1250 l 763 1188 l 763 1125 l 700 1125 m 450 1125 l 450 1250 l 575 1250 l 575 1188 l 513 1125 l 450 1125 m 325 1000 l 325 1063 l 263 1125 l 263 1250 l 325 1250 l 325 1125 l 388 1063 l 638 1063 l 638 1125 l 700 1125 l 763 1063 l 700 1063 l 638 1000 l 325 1000 z "},"Ô":{"ha":1031,"x_min":0,"x_max":1000,"o":"m 750 875 l 750 938 l 875 938 l 875 875 l 938 813 l 938 750 l 875 750 l 875 813 l 813 875 l 750 875 m 938 688 l 938 750 l 1000 688 l 938 688 m 938 563 l 938 625 l 1000 563 l 938 563 m 938 438 l 938 500 l 1000 438 l 938 438 m 938 313 l 938 375 l 1000 313 l 938 313 m 375 250 l 375 625 l 438 688 l 438 750 l 563 750 l 625 688 l 625 313 l 563 250 l 375 250 m 63 125 l 63 250 l 0 250 l 0 750 l 63 750 l 63 875 l 125 875 l 188 938 l 313 938 l 250 875 l 188 875 l 188 813 l 125 813 l 125 688 l 63 688 l 63 313 l 125 313 l 125 188 l 188 188 l 188 125 l 250 63 l 375 63 l 375 0 l 625 0 l 688 63 l 813 63 l 813 125 l 875 125 l 875 250 l 938 250 l 1000 188 l 938 188 l 938 63 l 875 63 l 813 0 l 688 0 l 688 -62 l 375 -62 l 313 0 l 188 0 l 188 63 l 125 125 l 63 125 m 563 313 l 563 688 l 500 688 l 438 625 l 438 313 l 563 313 m 196 1000 l 196 1125 l 258 1188 l 258 1250 l 383 1250 l 383 1188 l 321 1188 l 258 1125 l 258 1063 l 383 1063 l 383 1125 l 571 1125 l 633 1063 l 758 1063 l 758 1125 l 821 1063 l 758 1000 l 571 1000 l 571 1063 l 446 1063 l 383 1000 l 196 1000 m 696 1125 l 696 1188 l 633 1250 l 696 1250 l 758 1188 l 821 1188 l 821 1125 l 696 1125 z "},"Ö":{"ha":1031,"x_min":0,"x_max":1000,"o":"m 750 875 l 750 938 l 875 938 l 875 875 l 938 813 l 938 750 l 875 750 l 875 813 l 813 875 l 750 875 m 938 688 l 938 750 l 1000 688 l 938 688 m 938 563 l 938 625 l 1000 563 l 938 563 m 938 438 l 938 500 l 1000 438 l 938 438 m 938 313 l 938 375 l 1000 313 l 938 313 m 375 250 l 375 625 l 438 688 l 438 750 l 563 750 l 625 688 l 625 313 l 563 250 l 375 250 m 63 125 l 63 250 l 0 250 l 0 750 l 63 750 l 63 875 l 125 875 l 188 938 l 313 938 l 250 875 l 188 875 l 188 813 l 125 813 l 125 688 l 63 688 l 63 313 l 125 313 l 125 188 l 188 188 l 188 125 l 250 63 l 375 63 l 375 0 l 625 0 l 688 63 l 813 63 l 813 125 l 875 125 l 875 250 l 938 250 l 1000 188 l 938 188 l 938 63 l 875 63 l 813 0 l 688 0 l 688 -62 l 375 -62 l 313 0 l 188 0 l 188 63 l 125 125 l 63 125 m 563 313 l 563 688 l 500 688 l 438 625 l 438 313 l 563 313 m 765 1125 l 765 1250 l 828 1188 l 828 1125 l 765 1125 m 578 1000 l 578 1250 l 640 1250 l 640 1063 l 765 1063 l 765 1125 l 828 1063 l 765 1000 l 578 1000 m 203 1000 l 203 1250 l 265 1250 l 265 1063 l 390 1063 l 390 1250 l 453 1250 l 453 1063 l 390 1000 l 203 1000 z "},"Ò":{"ha":1031,"x_min":0,"x_max":1000,"o":"m 750 875 l 750 938 l 875 938 l 875 875 l 938 813 l 938 750 l 875 750 l 875 813 l 813 875 l 750 875 m 938 688 l 938 750 l 1000 688 l 938 688 m 938 563 l 938 625 l 1000 563 l 938 563 m 938 438 l 938 500 l 1000 438 l 938 438 m 938 313 l 938 375 l 1000 313 l 938 313 m 375 250 l 375 625 l 438 688 l 438 750 l 563 750 l 625 688 l 625 313 l 563 250 l 375 250 m 63 125 l 63 250 l 0 250 l 0 750 l 63 750 l 63 875 l 125 875 l 188 938 l 313 938 l 250 875 l 188 875 l 188 813 l 125 813 l 125 688 l 63 688 l 63 313 l 125 313 l 125 188 l 188 188 l 188 125 l 250 63 l 375 63 l 375 0 l 625 0 l 688 63 l 813 63 l 813 125 l 875 125 l 875 250 l 938 250 l 1000 188 l 938 188 l 938 63 l 875 63 l 813 0 l 688 0 l 688 -62 l 375 -62 l 313 0 l 188 0 l 188 63 l 125 125 l 63 125 m 563 313 l 563 688 l 500 688 l 438 625 l 438 313 l 563 313 m 531 1125 l 531 1188 l 468 1250 l 531 1250 l 593 1188 l 656 1188 l 656 1125 l 531 1125 m 343 1000 l 343 1063 l 281 1125 l 218 1125 l 218 1188 l 156 1250 l 218 1250 l 281 1188 l 343 1188 l 343 1125 l 406 1063 l 656 1063 l 656 1000 l 343 1000 z "},"Ő":{"ha":1031,"x_min":0,"x_max":1000,"o":"m 750 875 l 750 938 l 875 938 l 875 875 l 938 813 l 938 750 l 875 750 l 875 813 l 813 875 l 750 875 m 938 688 l 938 750 l 1000 688 l 938 688 m 938 563 l 938 625 l 1000 563 l 938 563 m 938 438 l 938 500 l 1000 438 l 938 438 m 938 313 l 938 375 l 1000 313 l 938 313 m 375 250 l 375 625 l 438 688 l 438 750 l 563 750 l 625 688 l 625 313 l 563 250 l 375 250 m 63 125 l 63 250 l 0 250 l 0 750 l 63 750 l 63 875 l 125 875 l 188 938 l 313 938 l 250 875 l 188 875 l 188 813 l 125 813 l 125 688 l 63 688 l 63 313 l 125 313 l 125 188 l 188 188 l 188 125 l 250 63 l 375 63 l 375 0 l 625 0 l 688 63 l 813 63 l 813 125 l 875 125 l 875 250 l 938 250 l 1000 188 l 938 188 l 938 63 l 875 63 l 813 0 l 688 0 l 688 -62 l 375 -62 l 313 0 l 188 0 l 188 63 l 125 125 l 63 125 m 563 313 l 563 688 l 500 688 l 438 625 l 438 313 l 563 313 m 246 1000 l 246 1250 l 371 1250 l 371 1188 l 308 1188 l 308 1063 l 433 1063 l 433 1125 l 496 1125 l 558 1188 l 558 1250 l 621 1250 l 683 1188 l 621 1125 l 621 1063 l 746 1063 l 746 1125 l 808 1125 l 871 1188 l 871 1250 l 933 1250 l 996 1188 l 933 1188 l 871 1125 l 871 1063 l 808 1063 l 746 1000 l 558 1000 l 558 1063 l 496 1063 l 433 1000 l 246 1000 z "},"Ō":{"ha":1031,"x_min":0,"x_max":1000,"o":"m 750 875 l 750 938 l 875 938 l 875 875 l 938 813 l 938 750 l 875 750 l 875 813 l 813 875 l 750 875 m 938 688 l 938 750 l 1000 688 l 938 688 m 938 563 l 938 625 l 1000 563 l 938 563 m 938 438 l 938 500 l 1000 438 l 938 438 m 938 313 l 938 375 l 1000 313 l 938 313 m 375 250 l 375 625 l 438 688 l 438 750 l 563 750 l 625 688 l 625 313 l 563 250 l 375 250 m 63 125 l 63 250 l 0 250 l 0 750 l 63 750 l 63 875 l 125 875 l 188 938 l 313 938 l 250 875 l 188 875 l 188 813 l 125 813 l 125 688 l 63 688 l 63 313 l 125 313 l 125 188 l 188 188 l 188 125 l 250 63 l 375 63 l 375 0 l 625 0 l 688 63 l 813 63 l 813 125 l 875 125 l 875 250 l 938 250 l 1000 188 l 938 188 l 938 63 l 875 63 l 813 0 l 688 0 l 688 -62 l 375 -62 l 313 0 l 188 0 l 188 63 l 125 125 l 63 125 m 563 313 l 563 688 l 500 688 l 438 625 l 438 313 l 563 313 m 776 1125 l 776 1250 l 839 1188 l 839 1125 l 776 1125 m 214 1000 l 214 1250 l 276 1250 l 276 1063 l 776 1063 l 776 1125 l 839 1063 l 776 1000 l 214 1000 z "},"Ø":{"ha":1031,"x_min":0,"x_max":1000,"o":"m 750 1000 l 750 1063 l 875 1063 l 875 1000 l 813 1000 l 750 938 l 313 938 l 313 875 l 188 875 l 125 813 l 125 750 l 63 688 l 63 313 l 125 250 l 125 188 l 188 125 l 188 63 l 313 63 l 375 0 l 625 0 l 625 63 l 813 63 l 875 125 l 875 188 l 938 250 l 938 125 l 875 63 l 875 0 l 688 0 l 625 -62 l 313 -62 l 313 0 l 250 0 l 250 -125 l 125 -125 l 63 -62 l 63 63 l 125 63 l 125 125 l 63 188 l 63 250 l 0 313 l 0 688 l 63 750 l 63 813 l 125 875 l 125 938 l 250 938 l 313 1000 l 750 1000 m 875 1063 l 938 1063 l 1000 1000 l 938 1000 l 875 1063 m 938 813 l 1000 750 l 938 750 l 875 813 l 813 813 l 813 938 l 875 938 l 938 1000 l 938 813 m 625 625 l 563 625 l 563 500 l 500 500 l 438 438 l 375 438 l 375 688 l 438 688 l 500 750 l 625 750 l 625 625 m 1000 625 l 938 625 l 938 688 l 1000 625 m 438 625 l 438 563 l 500 563 l 500 625 l 438 625 m 1000 500 l 938 500 l 938 563 l 1000 500 m 438 313 l 500 375 l 500 438 l 563 500 l 625 500 l 625 250 l 500 250 l 438 313 m 1000 375 l 938 375 l 938 438 l 1000 375 m 500 313 l 563 313 l 563 375 l 500 313 m 938 250 l 938 313 l 1000 250 l 938 250 m 125 -62 l 188 -62 l 188 0 l 125 0 l 125 -62 z "},"Ǿ":{"ha":1031,"x_min":0,"x_max":1000,"o":"m 750 1000 l 750 1063 l 875 1063 l 875 1000 l 813 1000 l 750 938 l 313 938 l 313 875 l 188 875 l 125 813 l 125 750 l 63 688 l 63 313 l 125 250 l 125 188 l 188 125 l 188 63 l 313 63 l 375 0 l 625 0 l 625 63 l 813 63 l 875 125 l 875 188 l 938 250 l 938 125 l 875 63 l 875 0 l 688 0 l 625 -62 l 313 -62 l 313 0 l 250 0 l 250 -125 l 125 -125 l 63 -62 l 63 63 l 125 63 l 125 125 l 63 188 l 63 250 l 0 313 l 0 688 l 63 750 l 63 813 l 125 875 l 125 938 l 250 938 l 313 1000 l 750 1000 m 875 1063 l 938 1063 l 1000 1000 l 938 1000 l 875 1063 m 938 813 l 1000 750 l 938 750 l 875 813 l 813 813 l 813 938 l 875 938 l 938 1000 l 938 813 m 625 625 l 563 625 l 563 500 l 500 500 l 438 438 l 375 438 l 375 688 l 438 688 l 500 750 l 625 750 l 625 625 m 1000 625 l 938 625 l 938 688 l 1000 625 m 438 625 l 438 563 l 500 563 l 500 625 l 438 625 m 1000 500 l 938 500 l 938 563 l 1000 500 m 438 313 l 500 375 l 500 438 l 563 500 l 625 500 l 625 250 l 500 250 l 438 313 m 1000 375 l 938 375 l 938 438 l 1000 375 m 500 313 l 563 313 l 563 375 l 500 313 m 938 250 l 938 313 l 1000 250 l 938 250 m 125 -62 l 188 -62 l 188 0 l 125 0 l 125 -62 m 378 1000 l 315 1063 l 378 1125 l 378 1188 l 440 1188 l 503 1250 l 565 1250 l 503 1188 l 503 1125 l 440 1125 l 378 1063 l 628 1063 l 690 1125 l 690 1188 l 815 1188 l 815 1125 l 753 1125 l 690 1063 l 690 1000 l 378 1000 z "},"Õ":{"ha":1031,"x_min":0,"x_max":1000,"o":"m 750 875 l 750 938 l 875 938 l 875 875 l 938 813 l 938 750 l 875 750 l 875 813 l 813 875 l 750 875 m 938 688 l 938 750 l 1000 688 l 938 688 m 938 563 l 938 625 l 1000 563 l 938 563 m 938 438 l 938 500 l 1000 438 l 938 438 m 938 313 l 938 375 l 1000 313 l 938 313 m 375 250 l 375 625 l 438 688 l 438 750 l 563 750 l 625 688 l 625 313 l 563 250 l 375 250 m 63 125 l 63 250 l 0 250 l 0 750 l 63 750 l 63 875 l 125 875 l 188 938 l 313 938 l 250 875 l 188 875 l 188 813 l 125 813 l 125 688 l 63 688 l 63 313 l 125 313 l 125 188 l 188 188 l 188 125 l 250 63 l 375 63 l 375 0 l 625 0 l 688 63 l 813 63 l 813 125 l 875 125 l 875 250 l 938 250 l 1000 188 l 938 188 l 938 63 l 875 63 l 813 0 l 688 0 l 688 -62 l 375 -62 l 313 0 l 188 0 l 188 63 l 125 125 l 63 125 m 563 313 l 563 688 l 500 688 l 438 625 l 438 313 l 563 313 m 538 1188 l 475 1250 l 663 1250 l 663 1188 l 538 1188 m 225 1000 l 225 1250 l 350 1250 l 350 1188 l 288 1188 l 288 1063 l 350 1063 l 350 1125 l 475 1125 l 538 1063 l 663 1063 l 663 1125 l 725 1125 l 788 1188 l 788 1250 l 850 1188 l 788 1125 l 788 1063 l 725 1063 l 663 1000 l 475 1000 l 475 1063 l 413 1063 l 350 1000 l 225 1000 z "},"Œ":{"ha":1392,"x_min":0,"x_max":1375,"o":"m 1313 875 l 1313 938 l 1375 875 l 1313 875 m 1313 750 l 1313 813 l 1375 750 l 1313 750 m 375 313 l 375 688 l 438 688 l 500 750 l 625 750 l 625 250 l 438 250 l 375 313 m 1313 125 l 1313 188 l 1375 125 l 1313 125 m 125 63 l 125 125 l 63 188 l 63 250 l 0 313 l 0 688 l 63 688 l 63 813 l 125 813 l 188 875 l 188 938 l 250 938 l 313 1000 l 1313 1000 l 1313 938 l 313 938 l 313 875 l 250 875 l 188 813 l 188 750 l 125 750 l 125 625 l 63 625 l 63 313 l 125 250 l 125 188 l 188 125 l 250 125 l 250 63 l 1313 63 l 1375 0 l 250 0 l 188 63 l 125 63 m 563 313 l 563 688 l 500 688 l 500 625 l 438 625 l 438 313 l 563 313 m 875 313 l 938 375 l 1250 375 l 1250 563 l 875 563 l 875 688 l 938 750 l 1313 750 l 1313 688 l 938 688 l 938 625 l 1313 625 l 1313 375 l 1250 313 l 1313 313 l 1375 250 l 938 250 l 875 313 z "},"P":{"ha":979,"x_min":63,"x_max":1000,"o":"m 438 563 l 500 563 l 500 625 l 563 625 l 563 688 l 438 688 l 438 563 m 63 0 l 63 1000 l 688 1000 l 750 938 l 875 938 l 875 875 l 938 813 l 938 750 l 1000 688 l 1000 625 l 938 625 l 938 688 l 875 750 l 875 813 l 813 875 l 688 875 l 688 938 l 125 938 l 125 63 l 438 63 l 438 250 l 500 313 l 625 313 l 625 375 l 813 375 l 875 438 l 875 500 l 938 563 l 938 625 l 1000 563 l 938 500 l 938 438 l 875 375 l 875 313 l 688 313 l 625 250 l 500 250 l 500 63 l 438 0 l 63 0 m 375 500 l 375 750 l 563 750 l 625 688 l 625 563 l 563 563 l 500 500 l 375 500 z "},"Þ":{"ha":979,"x_min":63,"x_max":1000,"o":"m 438 438 l 563 438 l 563 563 l 438 563 l 438 438 m 63 0 l 63 1000 l 375 1000 l 438 938 l 500 938 l 500 875 l 688 875 l 750 813 l 875 813 l 875 750 l 938 688 l 938 625 l 1000 563 l 1000 500 l 938 500 l 938 563 l 875 625 l 875 688 l 813 750 l 688 750 l 688 813 l 500 813 l 438 875 l 375 875 l 375 938 l 125 938 l 125 63 l 438 63 l 438 125 l 500 188 l 688 188 l 688 250 l 813 250 l 875 313 l 875 375 l 938 438 l 938 500 l 1000 438 l 938 375 l 938 313 l 875 250 l 875 188 l 750 188 l 688 125 l 500 125 l 500 63 l 438 0 l 63 0 m 375 375 l 375 625 l 563 625 l 625 563 l 625 438 l 563 375 l 375 375 z "},"Q":{"ha":1031,"x_min":0,"x_max":1000,"o":"m 625 938 l 688 1000 l 750 1000 l 750 938 l 625 938 m 125 63 l 125 125 l 63 188 l 63 250 l 0 313 l 0 688 l 63 750 l 63 813 l 125 875 l 125 938 l 250 938 l 313 1000 l 625 1000 l 625 938 l 313 938 l 313 875 l 188 875 l 125 813 l 125 750 l 63 688 l 63 313 l 125 250 l 125 188 l 188 125 l 250 125 l 250 63 l 313 63 l 375 0 l 688 0 l 688 -62 l 938 -62 l 938 0 l 875 63 l 875 188 l 938 250 l 938 750 l 875 813 l 813 813 l 813 875 l 750 938 l 813 1000 l 813 938 l 875 875 l 938 875 l 938 813 l 1000 750 l 1000 250 l 938 188 l 938 63 l 1000 0 l 1000 -125 l 688 -125 l 625 -62 l 313 -62 l 313 0 l 250 0 l 188 63 l 125 63 m 563 313 l 563 688 l 500 688 l 500 625 l 438 625 l 438 313 l 563 313 m 375 313 l 375 688 l 438 688 l 500 750 l 625 750 l 625 250 l 438 250 l 375 313 z "},"R":{"ha":1003,"x_min":63,"x_max":1000,"o":"m 438 688 l 438 625 l 563 625 l 563 688 l 438 688 m 813 375 l 875 438 l 875 500 l 938 563 l 938 625 l 1000 563 l 938 500 l 938 438 l 875 375 l 813 375 m 813 250 l 813 375 l 875 313 l 875 188 l 813 250 m 63 0 l 63 1000 l 688 1000 l 750 938 l 875 938 l 875 875 l 938 813 l 938 750 l 1000 688 l 1000 625 l 938 625 l 938 688 l 875 750 l 875 813 l 813 875 l 688 875 l 688 938 l 125 938 l 125 63 l 375 63 l 375 250 l 438 313 l 563 313 l 563 125 l 625 63 l 938 63 l 875 125 l 875 188 l 938 188 l 938 125 l 1000 63 l 938 0 l 563 0 l 563 63 l 500 125 l 500 250 l 438 250 l 438 63 l 375 0 l 63 0 m 438 563 l 375 625 l 375 750 l 563 750 l 625 688 l 625 563 l 438 563 z "},"Ŕ":{"ha":1003,"x_min":63,"x_max":1000,"o":"m 438 688 l 438 625 l 563 625 l 563 688 l 438 688 m 813 375 l 875 438 l 875 500 l 938 563 l 938 625 l 1000 563 l 938 500 l 938 438 l 875 375 l 813 375 m 813 250 l 813 375 l 875 313 l 875 188 l 813 250 m 63 0 l 63 1000 l 688 1000 l 750 938 l 875 938 l 875 875 l 938 813 l 938 750 l 1000 688 l 1000 625 l 938 625 l 938 688 l 875 750 l 875 813 l 813 875 l 688 875 l 688 938 l 125 938 l 125 63 l 375 63 l 375 250 l 438 313 l 563 313 l 563 125 l 625 63 l 938 63 l 875 125 l 875 188 l 938 188 l 938 125 l 1000 63 l 938 0 l 563 0 l 563 63 l 500 125 l 500 250 l 438 250 l 438 63 l 375 0 l 63 0 m 438 563 l 375 625 l 375 750 l 563 750 l 625 688 l 625 563 l 438 563 m 336 1000 l 274 1063 l 336 1125 l 336 1188 l 399 1188 l 461 1250 l 524 1250 l 461 1188 l 461 1125 l 399 1125 l 336 1063 l 586 1063 l 649 1125 l 649 1188 l 774 1188 l 774 1125 l 711 1125 l 649 1063 l 649 1000 l 336 1000 z "},"Ř":{"ha":1003,"x_min":63,"x_max":1000,"o":"m 438 688 l 438 625 l 563 625 l 563 688 l 438 688 m 813 375 l 875 438 l 875 500 l 938 563 l 938 625 l 1000 563 l 938 500 l 938 438 l 875 375 l 813 375 m 813 250 l 813 375 l 875 313 l 875 188 l 813 250 m 63 0 l 63 1000 l 688 1000 l 750 938 l 875 938 l 875 875 l 938 813 l 938 750 l 1000 688 l 1000 625 l 938 625 l 938 688 l 875 750 l 875 813 l 813 875 l 688 875 l 688 938 l 125 938 l 125 63 l 375 63 l 375 250 l 438 313 l 563 313 l 563 125 l 625 63 l 938 63 l 875 125 l 875 188 l 938 188 l 938 125 l 1000 63 l 938 0 l 563 0 l 563 63 l 500 125 l 500 250 l 438 250 l 438 63 l 375 0 l 63 0 m 438 563 l 375 625 l 375 750 l 563 750 l 625 688 l 625 563 l 438 563 m 404 1188 l 342 1250 l 592 1250 l 592 1188 l 404 1188 m 279 1000 l 279 1125 l 217 1125 l 217 1188 l 154 1250 l 217 1250 l 279 1188 l 342 1188 l 342 1063 l 592 1063 l 592 1125 l 654 1125 l 717 1188 l 717 1250 l 779 1188 l 717 1125 l 717 1063 l 654 1063 l 592 1000 l 279 1000 z "},"Ŗ":{"ha":1003,"x_min":63,"x_max":1000,"o":"m 438 688 l 438 625 l 563 625 l 563 688 l 438 688 m 813 375 l 875 438 l 875 500 l 938 563 l 938 625 l 1000 563 l 938 500 l 938 438 l 875 375 l 813 375 m 813 250 l 813 375 l 875 313 l 875 188 l 813 250 m 63 0 l 63 1000 l 688 1000 l 750 938 l 875 938 l 875 875 l 938 813 l 938 750 l 1000 688 l 1000 625 l 938 625 l 938 688 l 875 750 l 875 813 l 813 875 l 688 875 l 688 938 l 125 938 l 125 63 l 375 63 l 375 250 l 438 313 l 563 313 l 563 125 l 625 63 l 938 63 l 875 125 l 875 188 l 938 188 l 938 125 l 1000 63 l 938 0 l 563 0 l 563 63 l 500 125 l 500 250 l 438 250 l 438 63 l 375 0 l 63 0 m 438 563 l 375 625 l 375 750 l 563 750 l 625 688 l 625 563 l 438 563 m 321 -125 l 383 -62 l 696 -62 l 696 -125 l 633 -125 l 696 -187 l 633 -187 l 633 -312 l 571 -375 l 321 -375 l 321 -125 m 383 -125 l 383 -312 l 571 -312 l 571 -125 l 383 -125 z "},"S":{"ha":968,"x_min":0,"x_max":938,"o":"m 750 813 l 750 875 l 688 938 l 750 938 l 813 875 l 875 875 l 875 813 l 938 750 l 938 688 l 875 688 l 875 750 l 813 813 l 750 813 m 500 563 l 500 625 l 438 625 l 375 688 l 438 750 l 563 750 l 563 688 l 875 688 l 938 625 l 813 625 l 813 563 l 875 563 l 938 500 l 938 438 l 875 438 l 875 500 l 813 500 l 750 563 l 500 563 m 875 188 l 875 313 l 938 250 l 938 188 l 875 188 m 63 63 l 63 125 l 0 188 l 0 313 l 63 375 l 188 375 l 125 438 l 63 438 l 63 563 l 0 563 l 0 813 l 63 813 l 125 875 l 125 938 l 250 938 l 250 875 l 188 875 l 125 813 l 125 750 l 63 750 l 63 625 l 125 625 l 125 500 l 188 500 l 188 438 l 313 438 l 375 375 l 625 375 l 625 250 l 375 250 l 313 313 l 63 313 l 63 188 l 125 125 l 188 125 l 188 63 l 313 63 l 375 0 l 625 0 l 625 63 l 750 63 l 813 125 l 813 188 l 875 188 l 938 125 l 875 125 l 813 63 l 813 0 l 688 0 l 625 -62 l 313 -62 l 313 0 l 188 0 l 125 63 l 63 63 z "},"Ś":{"ha":968,"x_min":0,"x_max":938,"o":"m 750 813 l 750 875 l 688 938 l 750 938 l 813 875 l 875 875 l 875 813 l 938 750 l 938 688 l 875 688 l 875 750 l 813 813 l 750 813 m 500 563 l 500 625 l 438 625 l 375 688 l 438 750 l 563 750 l 563 688 l 875 688 l 938 625 l 813 625 l 813 563 l 875 563 l 938 500 l 938 438 l 875 438 l 875 500 l 813 500 l 750 563 l 500 563 m 875 188 l 875 313 l 938 250 l 938 188 l 875 188 m 63 63 l 63 125 l 0 188 l 0 313 l 63 375 l 188 375 l 125 438 l 63 438 l 63 563 l 0 563 l 0 813 l 63 813 l 125 875 l 125 938 l 250 938 l 250 875 l 188 875 l 125 813 l 125 750 l 63 750 l 63 625 l 125 625 l 125 500 l 188 500 l 188 438 l 313 438 l 375 375 l 625 375 l 625 250 l 375 250 l 313 313 l 63 313 l 63 188 l 125 125 l 188 125 l 188 63 l 313 63 l 375 0 l 625 0 l 625 63 l 750 63 l 813 125 l 813 188 l 875 188 l 938 125 l 875 125 l 813 63 l 813 0 l 688 0 l 625 -62 l 313 -62 l 313 0 l 188 0 l 125 63 l 63 63 m 347 1000 l 285 1063 l 347 1125 l 347 1188 l 410 1188 l 472 1250 l 535 1250 l 472 1188 l 472 1125 l 410 1125 l 347 1063 l 597 1063 l 660 1125 l 660 1188 l 785 1188 l 785 1125 l 722 1125 l 660 1063 l 660 1000 l 347 1000 z "},"Š":{"ha":968,"x_min":0,"x_max":938,"o":"m 750 813 l 750 875 l 688 938 l 750 938 l 813 875 l 875 875 l 875 813 l 938 750 l 938 688 l 875 688 l 875 750 l 813 813 l 750 813 m 500 563 l 500 625 l 438 625 l 375 688 l 438 750 l 563 750 l 563 688 l 875 688 l 938 625 l 813 625 l 813 563 l 875 563 l 938 500 l 938 438 l 875 438 l 875 500 l 813 500 l 750 563 l 500 563 m 875 188 l 875 313 l 938 250 l 938 188 l 875 188 m 63 63 l 63 125 l 0 188 l 0 313 l 63 375 l 188 375 l 125 438 l 63 438 l 63 563 l 0 563 l 0 813 l 63 813 l 125 875 l 125 938 l 250 938 l 250 875 l 188 875 l 125 813 l 125 750 l 63 750 l 63 625 l 125 625 l 125 500 l 188 500 l 188 438 l 313 438 l 375 375 l 625 375 l 625 250 l 375 250 l 313 313 l 63 313 l 63 188 l 125 125 l 188 125 l 188 63 l 313 63 l 375 0 l 625 0 l 625 63 l 750 63 l 813 125 l 813 188 l 875 188 l 938 125 l 875 125 l 813 63 l 813 0 l 688 0 l 625 -62 l 313 -62 l 313 0 l 188 0 l 125 63 l 63 63 m 415 1188 l 353 1250 l 603 1250 l 603 1188 l 415 1188 m 290 1000 l 290 1125 l 228 1125 l 228 1188 l 165 1250 l 228 1250 l 290 1188 l 353 1188 l 353 1063 l 603 1063 l 603 1125 l 665 1125 l 728 1188 l 728 1250 l 790 1188 l 728 1125 l 728 1063 l 665 1063 l 603 1000 l 290 1000 z "},"Ş":{"ha":968,"x_min":0,"x_max":938,"o":"m 500 563 l 500 625 l 438 625 l 375 688 l 438 750 l 563 750 l 563 688 l 875 688 l 938 625 l 813 625 l 813 563 l 875 563 l 938 500 l 938 438 l 875 438 l 875 500 l 813 500 l 750 563 l 500 563 m 875 188 l 875 313 l 938 250 l 938 188 l 875 188 m 63 63 l 63 125 l 0 188 l 0 313 l 63 375 l 188 375 l 125 438 l 63 438 l 63 563 l 0 563 l 0 813 l 63 813 l 125 875 l 125 938 l 188 938 l 250 1000 l 750 1000 l 750 938 l 813 875 l 875 875 l 875 813 l 938 750 l 938 688 l 875 688 l 875 750 l 813 813 l 750 813 l 750 875 l 688 938 l 250 938 l 250 875 l 188 875 l 125 813 l 125 750 l 63 750 l 63 625 l 125 625 l 125 500 l 188 500 l 188 438 l 313 438 l 375 375 l 625 375 l 625 250 l 375 250 l 313 313 l 63 313 l 63 188 l 125 125 l 188 125 l 188 63 l 313 63 l 375 0 l 438 0 l 438 -125 l 563 -125 l 500 -62 l 563 0 l 625 0 l 625 63 l 750 63 l 813 125 l 813 188 l 875 188 l 938 125 l 875 125 l 813 63 l 813 0 l 688 0 l 625 -62 l 563 -62 l 625 -125 l 625 -250 l 563 -312 l 313 -312 l 313 -187 l 375 -187 l 375 -62 l 313 -62 l 313 0 l 188 0 l 125 63 l 63 63 z "},"Ŝ":{"ha":968,"x_min":0,"x_max":938,"o":"m 750 813 l 750 875 l 688 938 l 750 938 l 813 875 l 875 875 l 875 813 l 938 750 l 938 688 l 875 688 l 875 750 l 813 813 l 750 813 m 500 563 l 500 625 l 438 625 l 375 688 l 438 750 l 563 750 l 563 688 l 875 688 l 938 625 l 813 625 l 813 563 l 875 563 l 938 500 l 938 438 l 875 438 l 875 500 l 813 500 l 750 563 l 500 563 m 875 188 l 875 313 l 938 250 l 938 188 l 875 188 m 63 63 l 63 125 l 0 188 l 0 313 l 63 375 l 188 375 l 125 438 l 63 438 l 63 563 l 0 563 l 0 813 l 63 813 l 125 875 l 125 938 l 250 938 l 250 875 l 188 875 l 125 813 l 125 750 l 63 750 l 63 625 l 125 625 l 125 500 l 188 500 l 188 438 l 313 438 l 375 375 l 625 375 l 625 250 l 375 250 l 313 313 l 63 313 l 63 188 l 125 125 l 188 125 l 188 63 l 313 63 l 375 0 l 625 0 l 625 63 l 750 63 l 813 125 l 813 188 l 875 188 l 938 125 l 875 125 l 813 63 l 813 0 l 688 0 l 625 -62 l 313 -62 l 313 0 l 188 0 l 125 63 l 63 63 m 165 1000 l 165 1125 l 228 1188 l 228 1250 l 353 1250 l 353 1188 l 290 1188 l 228 1125 l 228 1063 l 353 1063 l 353 1125 l 540 1125 l 603 1063 l 728 1063 l 728 1125 l 790 1063 l 728 1000 l 540 1000 l 540 1063 l 415 1063 l 353 1000 l 165 1000 m 665 1125 l 665 1188 l 603 1250 l 665 1250 l 728 1188 l 790 1188 l 790 1125 l 665 1125 z "},"Ș":{"ha":968,"x_min":0,"x_max":938,"o":"m 750 813 l 750 875 l 688 938 l 750 938 l 813 875 l 875 875 l 875 813 l 938 750 l 938 688 l 875 688 l 875 750 l 813 813 l 750 813 m 500 563 l 500 625 l 438 625 l 375 688 l 438 750 l 563 750 l 563 688 l 875 688 l 938 625 l 813 625 l 813 563 l 875 563 l 938 500 l 938 438 l 875 438 l 875 500 l 813 500 l 750 563 l 500 563 m 875 188 l 875 313 l 938 250 l 938 188 l 875 188 m 63 63 l 63 125 l 0 188 l 0 313 l 63 375 l 188 375 l 125 438 l 63 438 l 63 563 l 0 563 l 0 813 l 63 813 l 125 875 l 125 938 l 250 938 l 250 875 l 188 875 l 125 813 l 125 750 l 63 750 l 63 625 l 125 625 l 125 500 l 188 500 l 188 438 l 313 438 l 375 375 l 625 375 l 625 250 l 375 250 l 313 313 l 63 313 l 63 188 l 125 125 l 188 125 l 188 63 l 313 63 l 375 0 l 625 0 l 625 63 l 750 63 l 813 125 l 813 188 l 875 188 l 938 125 l 875 125 l 813 63 l 813 0 l 688 0 l 625 -62 l 313 -62 l 313 0 l 188 0 l 125 63 l 63 63 m 293 -125 l 356 -62 l 668 -62 l 668 -125 l 606 -125 l 668 -187 l 606 -187 l 606 -312 l 543 -375 l 293 -375 l 293 -125 m 356 -125 l 356 -312 l 543 -312 l 543 -125 l 356 -125 z "},"T":{"ha":936,"x_min":0,"x_max":938,"o":"m 875 750 l 875 875 l 938 813 l 938 750 l 875 750 m 250 0 l 250 625 l 0 625 l 0 1000 l 875 1000 l 938 938 l 938 875 l 875 875 l 875 938 l 63 938 l 63 688 l 313 688 l 313 63 l 625 63 l 625 625 l 688 688 l 875 688 l 875 750 l 938 688 l 875 625 l 688 625 l 688 63 l 625 0 l 250 0 z "},"Ŧ":{"ha":947,"x_min":0,"x_max":938,"o":"m 875 750 l 875 875 l 938 813 l 938 750 l 875 750 m 125 375 l 125 500 l 188 563 l 250 563 l 250 625 l 0 625 l 0 1000 l 875 1000 l 938 938 l 938 875 l 875 875 l 875 938 l 63 938 l 63 688 l 313 688 l 313 563 l 250 500 l 188 500 l 188 438 l 125 375 m 250 0 l 250 313 l 188 313 l 125 375 l 250 375 l 313 313 l 313 63 l 625 63 l 625 375 l 750 375 l 813 438 l 750 500 l 625 500 l 625 625 l 688 688 l 875 688 l 875 750 l 938 688 l 875 625 l 688 625 l 688 563 l 813 563 l 813 500 l 875 438 l 813 375 l 813 313 l 688 313 l 688 63 l 625 0 l 250 0 z "},"Ť":{"ha":936,"x_min":0,"x_max":938,"o":"m 875 750 l 875 875 l 938 813 l 938 750 l 875 750 m 250 0 l 250 625 l 0 625 l 0 1000 l 875 1000 l 938 938 l 938 875 l 875 875 l 875 938 l 63 938 l 63 688 l 313 688 l 313 63 l 625 63 l 625 625 l 688 688 l 875 688 l 875 750 l 938 688 l 875 625 l 688 625 l 688 63 l 625 0 l 250 0 m 399 1188 l 336 1250 l 586 1250 l 586 1188 l 399 1188 m 274 1000 l 274 1125 l 211 1125 l 211 1188 l 149 1250 l 211 1250 l 274 1188 l 336 1188 l 336 1063 l 586 1063 l 586 1125 l 649 1125 l 711 1188 l 711 1250 l 774 1188 l 711 1125 l 711 1063 l 649 1063 l 586 1000 l 274 1000 z "},"Ț":{"ha":936,"x_min":0,"x_max":938,"o":"m 875 750 l 875 875 l 938 813 l 938 750 l 875 750 m 250 0 l 250 625 l 0 625 l 0 1000 l 875 1000 l 938 938 l 938 875 l 875 875 l 875 938 l 63 938 l 63 688 l 313 688 l 313 63 l 625 63 l 625 625 l 688 688 l 875 688 l 875 750 l 938 688 l 875 625 l 688 625 l 688 63 l 625 0 l 250 0 m 276 -125 l 339 -62 l 651 -62 l 651 -125 l 589 -125 l 651 -187 l 589 -187 l 589 -312 l 526 -375 l 276 -375 l 276 -125 m 339 -125 l 339 -312 l 526 -312 l 526 -125 l 339 -125 z "},"U":{"ha":1036,"x_min":63,"x_max":1000,"o":"m 938 813 l 938 938 l 1000 875 l 1000 813 l 938 813 m 938 688 l 938 813 l 1000 750 l 1000 688 l 938 688 m 938 563 l 938 688 l 1000 625 l 1000 563 l 938 563 m 938 438 l 938 563 l 1000 500 l 1000 438 l 938 438 m 375 313 l 375 938 l 438 938 l 438 313 l 563 313 l 563 938 l 625 938 l 625 250 l 438 250 l 375 313 m 938 313 l 938 438 l 1000 375 l 1000 313 l 938 313 m 63 313 l 63 938 l 125 938 l 125 375 l 63 313 m 125 63 l 125 125 l 63 188 l 63 313 l 125 313 l 125 188 l 188 125 l 250 125 l 250 63 l 313 63 l 375 0 l 625 0 l 625 63 l 813 63 l 875 125 l 875 188 l 938 250 l 938 313 l 1000 250 l 938 188 l 938 125 l 875 63 l 875 0 l 688 0 l 625 -62 l 313 -62 l 313 0 l 250 0 l 188 63 l 125 63 z "},"Ú":{"ha":1036,"x_min":63,"x_max":1000,"o":"m 938 813 l 938 938 l 1000 875 l 1000 813 l 938 813 m 938 688 l 938 813 l 1000 750 l 1000 688 l 938 688 m 938 563 l 938 688 l 1000 625 l 1000 563 l 938 563 m 938 438 l 938 563 l 1000 500 l 1000 438 l 938 438 m 375 313 l 375 938 l 438 938 l 438 313 l 563 313 l 563 938 l 625 938 l 625 250 l 438 250 l 375 313 m 938 313 l 938 438 l 1000 375 l 1000 313 l 938 313 m 63 313 l 63 938 l 125 938 l 125 375 l 63 313 m 125 63 l 125 125 l 63 188 l 63 313 l 125 313 l 125 188 l 188 125 l 250 125 l 250 63 l 313 63 l 375 0 l 625 0 l 625 63 l 813 63 l 875 125 l 875 188 l 938 250 l 938 313 l 1000 250 l 938 188 l 938 125 l 875 63 l 875 0 l 688 0 l 625 -62 l 313 -62 l 313 0 l 250 0 l 188 63 l 125 63 m 381 1000 l 318 1063 l 381 1125 l 381 1188 l 443 1188 l 506 1250 l 568 1250 l 506 1188 l 506 1125 l 443 1125 l 381 1063 l 631 1063 l 693 1125 l 693 1188 l 818 1188 l 818 1125 l 756 1125 l 693 1063 l 693 1000 l 381 1000 z "},"Ŭ":{"ha":1036,"x_min":63,"x_max":1000,"o":"m 938 813 l 938 938 l 1000 875 l 1000 813 l 938 813 m 938 688 l 938 813 l 1000 750 l 1000 688 l 938 688 m 938 563 l 938 688 l 1000 625 l 1000 563 l 938 563 m 938 438 l 938 563 l 1000 500 l 1000 438 l 938 438 m 375 313 l 375 938 l 438 938 l 438 313 l 563 313 l 563 938 l 625 938 l 625 250 l 438 250 l 375 313 m 938 313 l 938 438 l 1000 375 l 1000 313 l 938 313 m 63 313 l 63 938 l 125 938 l 125 375 l 63 313 m 125 63 l 125 125 l 63 188 l 63 313 l 125 313 l 125 188 l 188 125 l 250 125 l 250 63 l 313 63 l 375 0 l 625 0 l 625 63 l 813 63 l 875 125 l 875 188 l 938 250 l 938 313 l 1000 250 l 938 188 l 938 125 l 875 63 l 875 0 l 688 0 l 625 -62 l 313 -62 l 313 0 l 250 0 l 188 63 l 125 63 m 703 1125 l 703 1250 l 765 1188 l 765 1125 l 703 1125 m 453 1125 l 453 1250 l 578 1250 l 578 1188 l 515 1125 l 453 1125 m 328 1000 l 328 1063 l 265 1125 l 265 1250 l 328 1250 l 328 1125 l 390 1063 l 640 1063 l 640 1125 l 703 1125 l 765 1063 l 703 1063 l 640 1000 l 328 1000 z "},"Û":{"ha":1036,"x_min":63,"x_max":1000,"o":"m 938 813 l 938 938 l 1000 875 l 1000 813 l 938 813 m 938 688 l 938 813 l 1000 750 l 1000 688 l 938 688 m 938 563 l 938 688 l 1000 625 l 1000 563 l 938 563 m 938 438 l 938 563 l 1000 500 l 1000 438 l 938 438 m 375 313 l 375 938 l 438 938 l 438 313 l 563 313 l 563 938 l 625 938 l 625 250 l 438 250 l 375 313 m 938 313 l 938 438 l 1000 375 l 1000 313 l 938 313 m 63 313 l 63 938 l 125 938 l 125 375 l 63 313 m 125 63 l 125 125 l 63 188 l 63 313 l 125 313 l 125 188 l 188 125 l 250 125 l 250 63 l 313 63 l 375 0 l 625 0 l 625 63 l 813 63 l 875 125 l 875 188 l 938 250 l 938 313 l 1000 250 l 938 188 l 938 125 l 875 63 l 875 0 l 688 0 l 625 -62 l 313 -62 l 313 0 l 250 0 l 188 63 l 125 63 m 199 1000 l 199 1125 l 261 1188 l 261 1250 l 386 1250 l 386 1188 l 324 1188 l 261 1125 l 261 1063 l 386 1063 l 386 1125 l 574 1125 l 636 1063 l 761 1063 l 761 1125 l 824 1063 l 761 1000 l 574 1000 l 574 1063 l 449 1063 l 386 1000 l 199 1000 m 699 1125 l 699 1188 l 636 1250 l 699 1250 l 761 1188 l 824 1188 l 824 1125 l 699 1125 z "},"Ü":{"ha":1036,"x_min":63,"x_max":1000,"o":"m 938 813 l 938 938 l 1000 875 l 1000 813 l 938 813 m 938 688 l 938 813 l 1000 750 l 1000 688 l 938 688 m 938 563 l 938 688 l 1000 625 l 1000 563 l 938 563 m 938 438 l 938 563 l 1000 500 l 1000 438 l 938 438 m 375 313 l 375 938 l 438 938 l 438 313 l 563 313 l 563 938 l 625 938 l 625 250 l 438 250 l 375 313 m 938 313 l 938 438 l 1000 375 l 1000 313 l 938 313 m 63 313 l 63 938 l 125 938 l 125 375 l 63 313 m 125 63 l 125 125 l 63 188 l 63 313 l 125 313 l 125 188 l 188 125 l 250 125 l 250 63 l 313 63 l 375 0 l 625 0 l 625 63 l 813 63 l 875 125 l 875 188 l 938 250 l 938 313 l 1000 250 l 938 188 l 938 125 l 875 63 l 875 0 l 688 0 l 625 -62 l 313 -62 l 313 0 l 250 0 l 188 63 l 125 63 m 768 1125 l 768 1250 l 831 1188 l 831 1125 l 768 1125 m 581 1000 l 581 1250 l 643 1250 l 643 1063 l 768 1063 l 768 1125 l 831 1063 l 768 1000 l 581 1000 m 206 1000 l 206 1250 l 268 1250 l 268 1063 l 393 1063 l 393 1250 l 456 1250 l 456 1063 l 393 1000 l 206 1000 z "},"Ù":{"ha":1036,"x_min":63,"x_max":1000,"o":"m 938 813 l 938 938 l 1000 875 l 1000 813 l 938 813 m 938 688 l 938 813 l 1000 750 l 1000 688 l 938 688 m 938 563 l 938 688 l 1000 625 l 1000 563 l 938 563 m 938 438 l 938 563 l 1000 500 l 1000 438 l 938 438 m 375 313 l 375 938 l 438 938 l 438 313 l 563 313 l 563 938 l 625 938 l 625 250 l 438 250 l 375 313 m 938 313 l 938 438 l 1000 375 l 1000 313 l 938 313 m 63 313 l 63 938 l 125 938 l 125 375 l 63 313 m 125 63 l 125 125 l 63 188 l 63 313 l 125 313 l 125 188 l 188 125 l 250 125 l 250 63 l 313 63 l 375 0 l 625 0 l 625 63 l 813 63 l 875 125 l 875 188 l 938 250 l 938 313 l 1000 250 l 938 188 l 938 125 l 875 63 l 875 0 l 688 0 l 625 -62 l 313 -62 l 313 0 l 250 0 l 188 63 l 125 63 m 533 1125 l 533 1188 l 471 1250 l 533 1250 l 596 1188 l 658 1188 l 658 1125 l 533 1125 m 346 1000 l 346 1063 l 283 1125 l 221 1125 l 221 1188 l 158 1250 l 221 1250 l 283 1188 l 346 1188 l 346 1125 l 408 1063 l 658 1063 l 658 1000 l 346 1000 z "},"Ű":{"ha":1036,"x_min":63,"x_max":1000,"o":"m 938 813 l 938 938 l 1000 875 l 1000 813 l 938 813 m 938 688 l 938 813 l 1000 750 l 1000 688 l 938 688 m 938 563 l 938 688 l 1000 625 l 1000 563 l 938 563 m 938 438 l 938 563 l 1000 500 l 1000 438 l 938 438 m 375 313 l 375 938 l 438 938 l 438 313 l 563 313 l 563 938 l 625 938 l 625 250 l 438 250 l 375 313 m 938 313 l 938 438 l 1000 375 l 1000 313 l 938 313 m 63 313 l 63 938 l 125 938 l 125 375 l 63 313 m 125 63 l 125 125 l 63 188 l 63 313 l 125 313 l 125 188 l 188 125 l 250 125 l 250 63 l 313 63 l 375 0 l 625 0 l 625 63 l 813 63 l 875 125 l 875 188 l 938 250 l 938 313 l 1000 250 l 938 188 l 938 125 l 875 63 l 875 0 l 688 0 l 625 -62 l 313 -62 l 313 0 l 250 0 l 188 63 l 125 63 m 249 1000 l 249 1250 l 374 1250 l 374 1188 l 311 1188 l 311 1063 l 436 1063 l 436 1125 l 499 1125 l 561 1188 l 561 1250 l 624 1250 l 686 1188 l 624 1125 l 624 1063 l 749 1063 l 749 1125 l 811 1125 l 874 1188 l 874 1250 l 936 1250 l 999 1188 l 936 1188 l 874 1125 l 874 1063 l 811 1063 l 749 1000 l 561 1000 l 561 1063 l 499 1063 l 436 1000 l 249 1000 z "},"Ū":{"ha":1036,"x_min":63,"x_max":1000,"o":"m 938 813 l 938 938 l 1000 875 l 1000 813 l 938 813 m 938 688 l 938 813 l 1000 750 l 1000 688 l 938 688 m 938 563 l 938 688 l 1000 625 l 1000 563 l 938 563 m 938 438 l 938 563 l 1000 500 l 1000 438 l 938 438 m 375 313 l 375 938 l 438 938 l 438 313 l 563 313 l 563 938 l 625 938 l 625 250 l 438 250 l 375 313 m 938 313 l 938 438 l 1000 375 l 1000 313 l 938 313 m 63 313 l 63 938 l 125 938 l 125 375 l 63 313 m 125 63 l 125 125 l 63 188 l 63 313 l 125 313 l 125 188 l 188 125 l 250 125 l 250 63 l 313 63 l 375 0 l 625 0 l 625 63 l 813 63 l 875 125 l 875 188 l 938 250 l 938 313 l 1000 250 l 938 188 l 938 125 l 875 63 l 875 0 l 688 0 l 625 -62 l 313 -62 l 313 0 l 250 0 l 188 63 l 125 63 m 779 1125 l 779 1250 l 842 1188 l 842 1125 l 779 1125 m 217 1000 l 217 1250 l 279 1250 l 279 1063 l 779 1063 l 779 1125 l 842 1063 l 779 1000 l 217 1000 z "},"Ų":{"ha":1036,"x_min":63,"x_max":1000,"o":"m 938 813 l 938 938 l 1000 875 l 1000 813 l 938 813 m 938 688 l 938 813 l 1000 750 l 1000 688 l 938 688 m 938 563 l 938 688 l 1000 625 l 1000 563 l 938 563 m 938 438 l 938 563 l 1000 500 l 1000 438 l 938 438 m 938 313 l 938 438 l 1000 375 l 1000 313 l 938 313 m 125 63 l 125 125 l 63 188 l 63 938 l 125 1000 l 438 1000 l 438 313 l 563 313 l 563 938 l 625 1000 l 1000 1000 l 1000 938 l 625 938 l 625 250 l 438 250 l 375 313 l 375 938 l 125 938 l 125 188 l 188 125 l 250 125 l 250 63 l 375 63 l 438 0 l 438 -187 l 500 -250 l 688 -250 l 688 -187 l 563 -187 l 563 -62 l 625 0 l 625 63 l 813 63 l 875 125 l 875 188 l 938 250 l 938 313 l 1000 250 l 938 188 l 938 125 l 875 63 l 875 0 l 688 0 l 625 -62 l 625 -125 l 750 -125 l 750 -250 l 688 -312 l 438 -312 l 438 -250 l 375 -187 l 375 0 l 250 0 l 188 63 l 125 63 z "},"Ů":{"ha":1036,"x_min":63,"x_max":1000,"o":"m 938 813 l 938 938 l 1000 875 l 1000 813 l 938 813 m 938 688 l 938 813 l 1000 750 l 1000 688 l 938 688 m 938 563 l 938 688 l 1000 625 l 1000 563 l 938 563 m 938 438 l 938 563 l 1000 500 l 1000 438 l 938 438 m 375 313 l 375 938 l 438 938 l 438 313 l 563 313 l 563 938 l 625 938 l 625 250 l 438 250 l 375 313 m 938 313 l 938 438 l 1000 375 l 1000 313 l 938 313 m 63 313 l 63 938 l 125 938 l 125 375 l 63 313 m 125 63 l 125 125 l 63 188 l 63 313 l 125 313 l 125 188 l 188 125 l 250 125 l 250 63 l 313 63 l 375 0 l 625 0 l 625 63 l 813 63 l 875 125 l 875 188 l 938 250 l 938 313 l 1000 250 l 938 188 l 938 125 l 875 63 l 875 0 l 688 0 l 625 -62 l 313 -62 l 313 0 l 250 0 l 188 63 l 125 63 m 372 1000 l 372 1250 l 435 1313 l 622 1313 l 622 1250 l 685 1188 l 685 1125 l 622 1125 l 622 1188 l 560 1250 l 497 1250 l 560 1188 l 497 1125 l 435 1125 l 435 1063 l 560 1063 l 560 1125 l 622 1125 l 685 1063 l 622 1063 l 560 1000 l 372 1000 z "},"Ũ":{"ha":1036,"x_min":63,"x_max":1000,"o":"m 938 813 l 938 938 l 1000 875 l 1000 813 l 938 813 m 938 688 l 938 813 l 1000 750 l 1000 688 l 938 688 m 938 563 l 938 688 l 1000 625 l 1000 563 l 938 563 m 938 438 l 938 563 l 1000 500 l 1000 438 l 938 438 m 375 313 l 375 938 l 438 938 l 438 313 l 563 313 l 563 938 l 625 938 l 625 250 l 438 250 l 375 313 m 938 313 l 938 438 l 1000 375 l 1000 313 l 938 313 m 63 313 l 63 938 l 125 938 l 125 375 l 63 313 m 125 63 l 125 125 l 63 188 l 63 313 l 125 313 l 125 188 l 188 125 l 250 125 l 250 63 l 313 63 l 375 0 l 625 0 l 625 63 l 813 63 l 875 125 l 875 188 l 938 250 l 938 313 l 1000 250 l 938 188 l 938 125 l 875 63 l 875 0 l 688 0 l 625 -62 l 313 -62 l 313 0 l 250 0 l 188 63 l 125 63 m 540 1188 l 478 1250 l 665 1250 l 665 1188 l 540 1188 m 228 1000 l 228 1250 l 353 1250 l 353 1188 l 290 1188 l 290 1063 l 353 1063 l 353 1125 l 478 1125 l 540 1063 l 665 1063 l 665 1125 l 728 1125 l 790 1188 l 790 1250 l 853 1188 l 790 1125 l 790 1063 l 728 1063 l 665 1000 l 478 1000 l 478 1063 l 415 1063 l 353 1000 l 228 1000 z "},"V":{"ha":1008,"x_min":0,"x_max":1000,"o":"m 188 125 l 188 313 l 125 375 l 125 563 l 63 625 l 63 750 l 0 750 l 0 1000 l 313 1000 l 375 938 l 438 938 l 438 688 l 500 688 l 500 625 l 563 688 l 563 875 l 625 938 l 625 1000 l 938 1000 l 1000 938 l 1000 875 l 938 875 l 938 938 l 688 938 l 625 875 l 625 688 l 563 625 l 563 438 l 500 375 l 438 375 l 438 625 l 375 625 l 375 875 l 313 875 l 313 938 l 63 938 l 63 813 l 125 813 l 125 625 l 188 563 l 188 375 l 250 313 l 250 188 l 313 188 l 313 63 l 688 63 l 688 125 l 750 188 l 750 375 l 813 375 l 813 500 l 875 563 l 875 750 l 938 813 l 938 875 l 1000 813 l 938 750 l 938 563 l 875 500 l 875 313 l 813 313 l 813 188 l 750 125 l 750 63 l 688 0 l 250 0 l 250 125 l 188 125 z "},"W":{"ha":1189,"x_min":0,"x_max":1188,"o":"m 1125 875 l 1125 938 l 1188 875 l 1125 875 m 1125 750 l 1125 813 l 1188 750 l 1125 750 m 125 63 l 125 250 l 63 313 l 63 688 l 0 688 l 0 938 l 63 1000 l 375 1000 l 375 938 l 438 875 l 438 688 l 500 750 l 500 813 l 625 813 l 688 750 l 750 750 l 750 938 l 813 938 l 875 1000 l 1125 1000 l 1125 938 l 875 938 l 875 875 l 813 875 l 813 625 l 750 563 l 688 563 l 688 688 l 625 688 l 625 750 l 563 750 l 500 688 l 500 625 l 438 563 l 375 563 l 375 875 l 313 938 l 63 938 l 63 750 l 125 750 l 125 313 l 188 250 l 188 63 l 438 63 l 500 125 l 500 188 l 563 250 l 688 250 l 688 125 l 750 125 l 750 63 l 1000 63 l 1000 313 l 1063 313 l 1063 688 l 1125 750 l 1125 250 l 1063 250 l 1063 0 l 750 0 l 688 63 l 625 63 l 625 188 l 563 188 l 563 125 l 500 63 l 500 0 l 188 0 l 125 63 z "},"Ẃ":{"ha":1189,"x_min":0,"x_max":1188,"o":"m 1125 875 l 1125 938 l 1188 875 l 1125 875 m 1125 750 l 1125 813 l 1188 750 l 1125 750 m 125 63 l 125 250 l 63 313 l 63 688 l 0 688 l 0 938 l 63 1000 l 375 1000 l 375 938 l 438 875 l 438 688 l 500 750 l 500 813 l 625 813 l 688 750 l 750 750 l 750 938 l 813 938 l 875 1000 l 1125 1000 l 1125 938 l 875 938 l 875 875 l 813 875 l 813 625 l 750 563 l 688 563 l 688 688 l 625 688 l 625 750 l 563 750 l 500 688 l 500 625 l 438 563 l 375 563 l 375 875 l 313 938 l 63 938 l 63 750 l 125 750 l 125 313 l 188 250 l 188 63 l 438 63 l 500 125 l 500 188 l 563 250 l 688 250 l 688 125 l 750 125 l 750 63 l 1000 63 l 1000 313 l 1063 313 l 1063 688 l 1125 750 l 1125 250 l 1063 250 l 1063 0 l 750 0 l 688 63 l 625 63 l 625 188 l 563 188 l 563 125 l 500 63 l 500 0 l 188 0 l 125 63 m 457 1000 l 394 1063 l 457 1125 l 457 1188 l 519 1188 l 582 1250 l 644 1250 l 582 1188 l 582 1125 l 519 1125 l 457 1063 l 707 1063 l 769 1125 l 769 1188 l 894 1188 l 894 1125 l 832 1125 l 769 1063 l 769 1000 l 457 1000 z "},"Ŵ":{"ha":1189,"x_min":0,"x_max":1188,"o":"m 1125 875 l 1125 938 l 1188 875 l 1125 875 m 1125 750 l 1125 813 l 1188 750 l 1125 750 m 125 63 l 125 250 l 63 313 l 63 688 l 0 688 l 0 938 l 63 1000 l 375 1000 l 375 938 l 438 875 l 438 688 l 500 750 l 500 813 l 625 813 l 688 750 l 750 750 l 750 938 l 813 938 l 875 1000 l 1125 1000 l 1125 938 l 875 938 l 875 875 l 813 875 l 813 625 l 750 563 l 688 563 l 688 688 l 625 688 l 625 750 l 563 750 l 500 688 l 500 625 l 438 563 l 375 563 l 375 875 l 313 938 l 63 938 l 63 750 l 125 750 l 125 313 l 188 250 l 188 63 l 438 63 l 500 125 l 500 188 l 563 250 l 688 250 l 688 125 l 750 125 l 750 63 l 1000 63 l 1000 313 l 1063 313 l 1063 688 l 1125 750 l 1125 250 l 1063 250 l 1063 0 l 750 0 l 688 63 l 625 63 l 625 188 l 563 188 l 563 125 l 500 63 l 500 0 l 188 0 l 125 63 m 275 1000 l 275 1125 l 338 1188 l 338 1250 l 463 1250 l 463 1188 l 400 1188 l 338 1125 l 338 1063 l 463 1063 l 463 1125 l 650 1125 l 713 1063 l 838 1063 l 838 1125 l 900 1063 l 838 1000 l 650 1000 l 650 1063 l 525 1063 l 463 1000 l 275 1000 m 775 1125 l 775 1188 l 713 1250 l 775 1250 l 838 1188 l 900 1188 l 900 1125 l 775 1125 z "},"Ẅ":{"ha":1189,"x_min":0,"x_max":1188,"o":"m 1125 875 l 1125 938 l 1188 875 l 1125 875 m 1125 750 l 1125 813 l 1188 750 l 1125 750 m 125 63 l 125 250 l 63 313 l 63 688 l 0 688 l 0 938 l 63 1000 l 375 1000 l 375 938 l 438 875 l 438 688 l 500 750 l 500 813 l 625 813 l 688 750 l 750 750 l 750 938 l 813 938 l 875 1000 l 1125 1000 l 1125 938 l 875 938 l 875 875 l 813 875 l 813 625 l 750 563 l 688 563 l 688 688 l 625 688 l 625 750 l 563 750 l 500 688 l 500 625 l 438 563 l 375 563 l 375 875 l 313 938 l 63 938 l 63 750 l 125 750 l 125 313 l 188 250 l 188 63 l 438 63 l 500 125 l 500 188 l 563 250 l 688 250 l 688 125 l 750 125 l 750 63 l 1000 63 l 1000 313 l 1063 313 l 1063 688 l 1125 750 l 1125 250 l 1063 250 l 1063 0 l 750 0 l 688 63 l 625 63 l 625 188 l 563 188 l 563 125 l 500 63 l 500 0 l 188 0 l 125 63 m 844 1125 l 844 1250 l 907 1188 l 907 1125 l 844 1125 m 657 1000 l 657 1250 l 719 1250 l 719 1063 l 844 1063 l 844 1125 l 907 1063 l 844 1000 l 657 1000 m 282 1000 l 282 1250 l 344 1250 l 344 1063 l 469 1063 l 469 1250 l 532 1250 l 532 1063 l 469 1000 l 282 1000 z "},"Ẁ":{"ha":1189,"x_min":0,"x_max":1188,"o":"m 1125 875 l 1125 938 l 1188 875 l 1125 875 m 1125 750 l 1125 813 l 1188 750 l 1125 750 m 125 63 l 125 250 l 63 313 l 63 688 l 0 688 l 0 938 l 63 1000 l 375 1000 l 375 938 l 438 875 l 438 688 l 500 750 l 500 813 l 625 813 l 688 750 l 750 750 l 750 938 l 813 938 l 875 1000 l 1125 1000 l 1125 938 l 875 938 l 875 875 l 813 875 l 813 625 l 750 563 l 688 563 l 688 688 l 625 688 l 625 750 l 563 750 l 500 688 l 500 625 l 438 563 l 375 563 l 375 875 l 313 938 l 63 938 l 63 750 l 125 750 l 125 313 l 188 250 l 188 63 l 438 63 l 500 125 l 500 188 l 563 250 l 688 250 l 688 125 l 750 125 l 750 63 l 1000 63 l 1000 313 l 1063 313 l 1063 688 l 1125 750 l 1125 250 l 1063 250 l 1063 0 l 750 0 l 688 63 l 625 63 l 625 188 l 563 188 l 563 125 l 500 63 l 500 0 l 188 0 l 125 63 m 610 1125 l 610 1188 l 547 1250 l 610 1250 l 672 1188 l 735 1188 l 735 1125 l 610 1125 m 422 1000 l 422 1063 l 360 1125 l 297 1125 l 297 1188 l 235 1250 l 297 1250 l 360 1188 l 422 1188 l 422 1125 l 485 1063 l 735 1063 l 735 1000 l 422 1000 z "},"X":{"ha":1026,"x_min":0,"x_max":1063,"o":"m 63 63 l 375 63 l 375 125 l 438 125 l 438 250 l 500 250 l 563 188 l 625 188 l 625 63 l 1000 63 l 938 125 l 875 125 l 875 250 l 813 250 l 813 313 l 750 375 l 750 438 l 688 500 l 750 563 l 750 625 l 813 688 l 813 750 l 875 750 l 875 875 l 938 875 l 938 938 l 625 938 l 625 813 l 563 813 l 500 750 l 438 750 l 438 875 l 375 875 l 375 938 l 125 938 l 125 813 l 188 813 l 188 688 l 250 688 l 250 625 l 313 563 l 313 438 l 250 375 l 250 313 l 188 313 l 188 188 l 125 188 l 63 125 l 63 63 m 0 0 l 0 125 l 63 188 l 63 250 l 125 250 l 125 375 l 188 375 l 250 438 l 250 563 l 188 625 l 125 625 l 125 750 l 63 750 l 63 875 l 0 875 l 0 1000 l 375 1000 l 438 938 l 500 938 l 500 875 l 563 875 l 563 1000 l 938 1000 l 1000 938 l 1000 813 l 938 813 l 938 688 l 875 688 l 813 625 l 813 563 l 750 500 l 813 438 l 813 375 l 875 313 l 938 313 l 938 188 l 1000 188 l 1000 125 l 1063 63 l 1000 0 l 563 0 l 563 125 l 500 125 l 500 63 l 438 63 l 375 0 l 0 0 z "},"Y":{"ha":986,"x_min":0,"x_max":1000,"o":"m 313 125 l 313 313 l 250 375 l 250 438 l 188 500 l 188 563 l 125 625 l 125 688 l 63 750 l 63 813 l 0 875 l 0 1000 l 313 1000 l 375 938 l 438 938 l 438 813 l 500 813 l 500 750 l 563 813 l 563 875 l 625 938 l 625 1000 l 938 1000 l 1000 938 l 1000 875 l 938 875 l 938 938 l 688 938 l 625 875 l 625 813 l 563 750 l 563 688 l 500 625 l 438 625 l 438 750 l 375 750 l 375 875 l 313 875 l 313 938 l 63 938 l 63 875 l 125 813 l 125 750 l 188 688 l 188 625 l 250 563 l 250 500 l 313 438 l 313 375 l 375 313 l 375 188 l 313 125 m 500 0 l 500 63 l 625 63 l 625 375 l 688 375 l 688 500 l 750 500 l 750 625 l 813 625 l 813 750 l 875 750 l 875 875 l 938 875 l 1000 813 l 938 813 l 938 688 l 875 688 l 875 563 l 813 563 l 813 438 l 750 438 l 750 313 l 688 313 l 688 63 l 625 0 l 500 0 m 313 0 l 313 125 l 375 125 l 375 63 l 500 63 l 438 0 l 313 0 z "},"Ý":{"ha":986,"x_min":0,"x_max":1000,"o":"m 313 125 l 313 313 l 250 375 l 250 438 l 188 500 l 188 563 l 125 625 l 125 688 l 63 750 l 63 813 l 0 875 l 0 1000 l 313 1000 l 375 938 l 438 938 l 438 813 l 500 813 l 500 750 l 563 813 l 563 875 l 625 938 l 625 1000 l 938 1000 l 1000 938 l 1000 875 l 938 875 l 938 938 l 688 938 l 625 875 l 625 813 l 563 750 l 563 688 l 500 625 l 438 625 l 438 750 l 375 750 l 375 875 l 313 875 l 313 938 l 63 938 l 63 875 l 125 813 l 125 750 l 188 688 l 188 625 l 250 563 l 250 500 l 313 438 l 313 375 l 375 313 l 375 188 l 313 125 m 500 0 l 500 63 l 625 63 l 625 375 l 688 375 l 688 500 l 750 500 l 750 625 l 813 625 l 813 750 l 875 750 l 875 875 l 938 875 l 1000 813 l 938 813 l 938 688 l 875 688 l 875 563 l 813 563 l 813 438 l 750 438 l 750 313 l 688 313 l 688 63 l 625 0 l 500 0 m 313 0 l 313 125 l 375 125 l 375 63 l 500 63 l 438 0 l 313 0 m 356 1000 l 293 1063 l 356 1125 l 356 1188 l 418 1188 l 481 1250 l 543 1250 l 481 1188 l 481 1125 l 418 1125 l 356 1063 l 606 1063 l 668 1125 l 668 1188 l 793 1188 l 793 1125 l 731 1125 l 668 1063 l 668 1000 l 356 1000 z "},"Ŷ":{"ha":986,"x_min":0,"x_max":1000,"o":"m 313 125 l 313 313 l 250 375 l 250 438 l 188 500 l 188 563 l 125 625 l 125 688 l 63 750 l 63 813 l 0 875 l 0 1000 l 313 1000 l 375 938 l 438 938 l 438 813 l 500 813 l 500 750 l 563 813 l 563 875 l 625 938 l 625 1000 l 938 1000 l 1000 938 l 1000 875 l 938 875 l 938 938 l 688 938 l 625 875 l 625 813 l 563 750 l 563 688 l 500 625 l 438 625 l 438 750 l 375 750 l 375 875 l 313 875 l 313 938 l 63 938 l 63 875 l 125 813 l 125 750 l 188 688 l 188 625 l 250 563 l 250 500 l 313 438 l 313 375 l 375 313 l 375 188 l 313 125 m 500 0 l 500 63 l 625 63 l 625 375 l 688 375 l 688 500 l 750 500 l 750 625 l 813 625 l 813 750 l 875 750 l 875 875 l 938 875 l 1000 813 l 938 813 l 938 688 l 875 688 l 875 563 l 813 563 l 813 438 l 750 438 l 750 313 l 688 313 l 688 63 l 625 0 l 500 0 m 313 0 l 313 125 l 375 125 l 375 63 l 500 63 l 438 0 l 313 0 m 174 1000 l 174 1125 l 236 1188 l 236 1250 l 361 1250 l 361 1188 l 299 1188 l 236 1125 l 236 1063 l 361 1063 l 361 1125 l 549 1125 l 611 1063 l 736 1063 l 736 1125 l 799 1063 l 736 1000 l 549 1000 l 549 1063 l 424 1063 l 361 1000 l 174 1000 m 674 1125 l 674 1188 l 611 1250 l 674 1250 l 736 1188 l 799 1188 l 799 1125 l 674 1125 z "},"Ÿ":{"ha":986,"x_min":0,"x_max":1000,"o":"m 313 125 l 313 313 l 250 375 l 250 438 l 188 500 l 188 563 l 125 625 l 125 688 l 63 750 l 63 813 l 0 875 l 0 1000 l 313 1000 l 375 938 l 438 938 l 438 813 l 500 813 l 500 750 l 563 813 l 563 875 l 625 938 l 625 1000 l 938 1000 l 1000 938 l 1000 875 l 938 875 l 938 938 l 688 938 l 625 875 l 625 813 l 563 750 l 563 688 l 500 625 l 438 625 l 438 750 l 375 750 l 375 875 l 313 875 l 313 938 l 63 938 l 63 875 l 125 813 l 125 750 l 188 688 l 188 625 l 250 563 l 250 500 l 313 438 l 313 375 l 375 313 l 375 188 l 313 125 m 500 0 l 500 63 l 625 63 l 625 375 l 688 375 l 688 500 l 750 500 l 750 625 l 813 625 l 813 750 l 875 750 l 875 875 l 938 875 l 1000 813 l 938 813 l 938 688 l 875 688 l 875 563 l 813 563 l 813 438 l 750 438 l 750 313 l 688 313 l 688 63 l 625 0 l 500 0 m 313 0 l 313 125 l 375 125 l 375 63 l 500 63 l 438 0 l 313 0 m 743 1125 l 743 1250 l 806 1188 l 806 1125 l 743 1125 m 556 1000 l 556 1250 l 618 1250 l 618 1063 l 743 1063 l 743 1125 l 806 1063 l 743 1000 l 556 1000 m 181 1000 l 181 1250 l 243 1250 l 243 1063 l 368 1063 l 368 1250 l 431 1250 l 431 1063 l 368 1000 l 181 1000 z "},"Ỳ":{"ha":986,"x_min":0,"x_max":1000,"o":"m 313 125 l 313 313 l 250 375 l 250 438 l 188 500 l 188 563 l 125 625 l 125 688 l 63 750 l 63 813 l 0 875 l 0 1000 l 313 1000 l 375 938 l 438 938 l 438 813 l 500 813 l 500 750 l 563 813 l 563 875 l 625 938 l 625 1000 l 938 1000 l 1000 938 l 1000 875 l 938 875 l 938 938 l 688 938 l 625 875 l 625 813 l 563 750 l 563 688 l 500 625 l 438 625 l 438 750 l 375 750 l 375 875 l 313 875 l 313 938 l 63 938 l 63 875 l 125 813 l 125 750 l 188 688 l 188 625 l 250 563 l 250 500 l 313 438 l 313 375 l 375 313 l 375 188 l 313 125 m 500 0 l 500 63 l 625 63 l 625 375 l 688 375 l 688 500 l 750 500 l 750 625 l 813 625 l 813 750 l 875 750 l 875 875 l 938 875 l 1000 813 l 938 813 l 938 688 l 875 688 l 875 563 l 813 563 l 813 438 l 750 438 l 750 313 l 688 313 l 688 63 l 625 0 l 500 0 m 313 0 l 313 125 l 375 125 l 375 63 l 500 63 l 438 0 l 313 0 m 508 1125 l 508 1188 l 446 1250 l 508 1250 l 571 1188 l 633 1188 l 633 1125 l 508 1125 m 321 1000 l 321 1063 l 258 1125 l 196 1125 l 196 1188 l 133 1250 l 196 1250 l 258 1188 l 321 1188 l 321 1125 l 383 1063 l 633 1063 l 633 1000 l 321 1000 z "},"Z":{"ha":963,"x_min":0,"x_max":938,"o":"m 813 938 l 875 1000 l 875 938 l 813 938 m 875 875 l 875 938 l 938 875 l 875 875 m 875 750 l 875 813 l 938 750 l 875 750 m 750 500 l 750 563 l 813 625 l 813 688 l 875 688 l 938 625 l 875 625 l 813 563 l 813 500 l 750 500 m 500 313 l 563 375 l 563 438 l 625 438 l 688 500 l 750 500 l 688 438 l 688 375 l 625 375 l 563 313 l 875 313 l 938 250 l 563 250 l 500 313 m 0 63 l 0 313 l 63 313 l 125 375 l 125 438 l 188 438 l 250 500 l 250 563 l 313 563 l 375 625 l 375 688 l 63 688 l 63 938 l 125 1000 l 813 1000 l 813 938 l 125 938 l 125 750 l 500 750 l 500 625 l 438 625 l 375 563 l 375 500 l 313 500 l 250 438 l 250 375 l 188 375 l 125 313 l 125 250 l 63 250 l 63 63 l 875 63 l 938 0 l 63 0 l 0 63 m 875 125 l 875 188 l 938 125 l 875 125 z "},"Ź":{"ha":963,"x_min":0,"x_max":938,"o":"m 813 938 l 875 1000 l 875 938 l 813 938 m 875 875 l 875 938 l 938 875 l 875 875 m 875 750 l 875 813 l 938 750 l 875 750 m 750 500 l 750 563 l 813 625 l 813 688 l 875 688 l 938 625 l 875 625 l 813 563 l 813 500 l 750 500 m 500 313 l 563 375 l 563 438 l 625 438 l 688 500 l 750 500 l 688 438 l 688 375 l 625 375 l 563 313 l 875 313 l 938 250 l 563 250 l 500 313 m 0 63 l 0 313 l 63 313 l 125 375 l 125 438 l 188 438 l 250 500 l 250 563 l 313 563 l 375 625 l 375 688 l 63 688 l 63 938 l 125 1000 l 813 1000 l 813 938 l 125 938 l 125 750 l 500 750 l 500 625 l 438 625 l 375 563 l 375 500 l 313 500 l 250 438 l 250 375 l 188 375 l 125 313 l 125 250 l 63 250 l 63 63 l 875 63 l 938 0 l 63 0 l 0 63 m 875 125 l 875 188 l 938 125 l 875 125 m 331 1000 l 268 1063 l 331 1125 l 331 1188 l 393 1188 l 456 1250 l 518 1250 l 456 1188 l 456 1125 l 393 1125 l 331 1063 l 581 1063 l 643 1125 l 643 1188 l 768 1188 l 768 1125 l 706 1125 l 643 1063 l 643 1000 l 331 1000 z "},"Ž":{"ha":963,"x_min":0,"x_max":938,"o":"m 813 938 l 875 1000 l 875 938 l 813 938 m 875 875 l 875 938 l 938 875 l 875 875 m 875 750 l 875 813 l 938 750 l 875 750 m 750 500 l 750 563 l 813 625 l 813 688 l 875 688 l 938 625 l 875 625 l 813 563 l 813 500 l 750 500 m 500 313 l 563 375 l 563 438 l 625 438 l 688 500 l 750 500 l 688 438 l 688 375 l 625 375 l 563 313 l 875 313 l 938 250 l 563 250 l 500 313 m 0 63 l 0 313 l 63 313 l 125 375 l 125 438 l 188 438 l 250 500 l 250 563 l 313 563 l 375 625 l 375 688 l 63 688 l 63 938 l 125 1000 l 813 1000 l 813 938 l 125 938 l 125 750 l 500 750 l 500 625 l 438 625 l 375 563 l 375 500 l 313 500 l 250 438 l 250 375 l 188 375 l 125 313 l 125 250 l 63 250 l 63 63 l 875 63 l 938 0 l 63 0 l 0 63 m 875 125 l 875 188 l 938 125 l 875 125 m 399 1188 l 336 1250 l 586 1250 l 586 1188 l 399 1188 m 274 1000 l 274 1125 l 211 1125 l 211 1188 l 149 1250 l 211 1250 l 274 1188 l 336 1188 l 336 1063 l 586 1063 l 586 1125 l 649 1125 l 711 1188 l 711 1250 l 774 1188 l 711 1125 l 711 1063 l 649 1063 l 586 1000 l 274 1000 z "},"Ż":{"ha":963,"x_min":0,"x_max":938,"o":"m 813 938 l 875 1000 l 875 938 l 813 938 m 875 875 l 875 938 l 938 875 l 875 875 m 875 750 l 875 813 l 938 750 l 875 750 m 750 500 l 750 563 l 813 625 l 813 688 l 875 688 l 938 625 l 875 625 l 813 563 l 813 500 l 750 500 m 500 313 l 563 375 l 563 438 l 625 438 l 688 500 l 750 500 l 688 438 l 688 375 l 625 375 l 563 313 l 875 313 l 938 250 l 563 250 l 500 313 m 0 63 l 0 313 l 63 313 l 125 375 l 125 438 l 188 438 l 250 500 l 250 563 l 313 563 l 375 625 l 375 688 l 63 688 l 63 938 l 125 1000 l 813 1000 l 813 938 l 125 938 l 125 750 l 500 750 l 500 625 l 438 625 l 375 563 l 375 500 l 313 500 l 250 438 l 250 375 l 188 375 l 125 313 l 125 250 l 63 250 l 63 63 l 875 63 l 938 0 l 63 0 l 0 63 m 875 125 l 875 188 l 938 125 l 875 125 m 585 1125 l 585 1250 l 647 1188 l 647 1125 l 585 1125 m 335 1000 l 335 1250 l 397 1313 l 647 1313 l 647 1250 l 397 1250 l 397 1063 l 522 1063 l 522 1125 l 585 1125 l 647 1063 l 585 1063 l 522 1000 l 335 1000 z "},"a":{"ha":864,"x_min":0,"x_max":813,"o":"m 688 563 l 688 625 l 625 688 l 688 688 l 750 625 l 813 625 l 813 563 l 688 563 m 750 438 l 750 563 l 813 500 l 813 438 l 750 438 m 750 313 l 750 438 l 813 375 l 813 313 l 750 313 m 750 188 l 750 313 l 813 250 l 813 188 l 750 188 m 750 63 l 750 188 l 813 125 l 813 63 l 750 63 m 0 63 l 0 313 l 63 375 l 63 688 l 250 688 l 250 625 l 125 625 l 125 500 l 313 500 l 313 563 l 438 563 l 500 500 l 438 500 l 438 438 l 313 438 l 313 375 l 125 375 l 63 313 l 63 125 l 125 125 l 125 63 l 188 63 l 250 0 l 375 0 l 375 63 l 750 63 l 813 0 l 438 0 l 375 -62 l 188 -62 l 188 0 l 125 0 l 63 63 l 0 63 m 313 188 l 313 313 l 438 313 l 500 250 l 438 188 l 313 188 z "},"á":{"ha":864,"x_min":0,"x_max":813,"o":"m 688 563 l 688 625 l 625 688 l 688 688 l 750 625 l 813 625 l 813 563 l 688 563 m 750 438 l 750 563 l 813 500 l 813 438 l 750 438 m 750 313 l 750 438 l 813 375 l 813 313 l 750 313 m 750 188 l 750 313 l 813 250 l 813 188 l 750 188 m 750 63 l 750 188 l 813 125 l 813 63 l 750 63 m 0 63 l 0 313 l 63 375 l 63 688 l 250 688 l 250 625 l 125 625 l 125 500 l 313 500 l 313 563 l 438 563 l 500 500 l 438 500 l 438 438 l 313 438 l 313 375 l 125 375 l 63 313 l 63 125 l 125 125 l 125 63 l 188 63 l 250 0 l 375 0 l 375 63 l 750 63 l 813 0 l 438 0 l 375 -62 l 188 -62 l 188 0 l 125 0 l 63 63 l 0 63 m 313 188 l 313 313 l 438 313 l 500 250 l 438 188 l 313 188 m 283 813 l 283 938 l 346 938 l 346 1063 l 533 1063 l 533 1000 l 408 1000 l 408 875 l 533 875 l 533 938 l 658 938 l 721 1000 l 721 1063 l 783 1000 l 721 938 l 721 875 l 596 875 l 533 813 l 283 813 z "},"ă":{"ha":864,"x_min":0,"x_max":813,"o":"m 688 563 l 688 625 l 625 688 l 688 688 l 750 625 l 813 625 l 813 563 l 688 563 m 750 438 l 750 563 l 813 500 l 813 438 l 750 438 m 750 313 l 750 438 l 813 375 l 813 313 l 750 313 m 750 188 l 750 313 l 813 250 l 813 188 l 750 188 m 750 63 l 750 188 l 813 125 l 813 63 l 750 63 m 0 63 l 0 313 l 63 375 l 63 688 l 250 688 l 250 625 l 125 625 l 125 500 l 313 500 l 313 563 l 438 563 l 500 500 l 438 500 l 438 438 l 313 438 l 313 375 l 125 375 l 63 313 l 63 125 l 125 125 l 125 63 l 188 63 l 250 0 l 375 0 l 375 63 l 750 63 l 813 0 l 438 0 l 375 -62 l 188 -62 l 188 0 l 125 0 l 63 63 l 0 63 m 313 188 l 313 313 l 438 313 l 500 250 l 438 188 l 313 188 m 622 938 l 622 1063 l 685 1000 l 685 938 l 622 938 m 372 938 l 372 1000 l 310 1063 l 372 1063 l 435 1000 l 435 1063 l 560 1063 l 560 1000 l 497 1000 l 435 938 l 372 938 m 247 813 l 247 875 l 185 938 l 185 1063 l 247 1063 l 247 938 l 310 875 l 560 875 l 560 938 l 622 938 l 685 875 l 622 875 l 560 813 l 247 813 z "},"â":{"ha":864,"x_min":0,"x_max":813,"o":"m 688 563 l 688 625 l 625 688 l 688 688 l 750 625 l 813 625 l 813 563 l 688 563 m 750 438 l 750 563 l 813 500 l 813 438 l 750 438 m 750 313 l 750 438 l 813 375 l 813 313 l 750 313 m 750 188 l 750 313 l 813 250 l 813 188 l 750 188 m 750 63 l 750 188 l 813 125 l 813 63 l 750 63 m 0 63 l 0 313 l 63 375 l 63 688 l 250 688 l 250 625 l 125 625 l 125 500 l 313 500 l 313 563 l 438 563 l 500 500 l 438 500 l 438 438 l 313 438 l 313 375 l 125 375 l 63 313 l 63 125 l 125 125 l 125 63 l 188 63 l 250 0 l 375 0 l 375 63 l 750 63 l 813 0 l 438 0 l 375 -62 l 188 -62 l 188 0 l 125 0 l 63 63 l 0 63 m 313 188 l 313 313 l 438 313 l 500 250 l 438 188 l 313 188 m 126 813 l 126 938 l 189 938 l 251 1000 l 251 1063 l 376 1063 l 376 1000 l 314 1000 l 251 938 l 251 875 l 376 875 l 376 938 l 439 938 l 501 875 l 689 875 l 626 938 l 564 938 l 564 1000 l 501 1063 l 564 1063 l 626 1000 l 689 1000 l 689 938 l 751 875 l 689 813 l 439 813 l 439 875 l 376 813 l 126 813 z "},"ä":{"ha":864,"x_min":0,"x_max":813,"o":"m 688 563 l 688 625 l 625 688 l 688 688 l 750 625 l 813 625 l 813 563 l 688 563 m 750 438 l 750 563 l 813 500 l 813 438 l 750 438 m 750 313 l 750 438 l 813 375 l 813 313 l 750 313 m 750 188 l 750 313 l 813 250 l 813 188 l 750 188 m 750 63 l 750 188 l 813 125 l 813 63 l 750 63 m 0 63 l 0 313 l 63 375 l 63 688 l 250 688 l 250 625 l 125 625 l 125 500 l 313 500 l 313 563 l 438 563 l 500 500 l 438 500 l 438 438 l 313 438 l 313 375 l 125 375 l 63 313 l 63 125 l 125 125 l 125 63 l 188 63 l 250 0 l 375 0 l 375 63 l 750 63 l 813 0 l 438 0 l 375 -62 l 188 -62 l 188 0 l 125 0 l 63 63 l 0 63 m 313 188 l 313 313 l 438 313 l 500 250 l 438 188 l 313 188 m 701 938 l 701 1000 l 639 1063 l 701 1063 l 764 1000 l 764 938 l 701 938 m 139 813 l 139 1063 l 201 1063 l 201 875 l 326 875 l 326 1063 l 389 1063 l 389 875 l 326 813 l 139 813 m 451 813 l 451 1063 l 514 1063 l 514 875 l 701 875 l 701 938 l 764 875 l 701 813 l 451 813 z "},"à":{"ha":864,"x_min":0,"x_max":813,"o":"m 688 563 l 688 625 l 625 688 l 688 688 l 750 625 l 813 625 l 813 563 l 688 563 m 750 438 l 750 563 l 813 500 l 813 438 l 750 438 m 750 313 l 750 438 l 813 375 l 813 313 l 750 313 m 750 188 l 750 313 l 813 250 l 813 188 l 750 188 m 750 63 l 750 188 l 813 125 l 813 63 l 750 63 m 0 63 l 0 313 l 63 375 l 63 688 l 250 688 l 250 625 l 125 625 l 125 500 l 313 500 l 313 563 l 438 563 l 500 500 l 438 500 l 438 438 l 313 438 l 313 375 l 125 375 l 63 313 l 63 125 l 125 125 l 125 63 l 188 63 l 250 0 l 375 0 l 375 63 l 750 63 l 813 0 l 438 0 l 375 -62 l 188 -62 l 188 0 l 125 0 l 63 63 l 0 63 m 313 188 l 313 313 l 438 313 l 500 250 l 438 188 l 313 188 m 263 813 l 263 875 l 200 875 l 138 938 l 75 938 l 75 1063 l 138 1063 l 138 1000 l 200 1000 l 200 938 l 263 938 l 325 875 l 513 875 l 450 938 l 450 1000 l 388 1000 l 325 1063 l 450 1063 l 513 1000 l 513 938 l 575 875 l 513 813 l 263 813 z "},"ā":{"ha":864,"x_min":0,"x_max":813,"o":"m 688 563 l 688 625 l 625 688 l 688 688 l 750 625 l 813 625 l 813 563 l 688 563 m 750 438 l 750 563 l 813 500 l 813 438 l 750 438 m 750 313 l 750 438 l 813 375 l 813 313 l 750 313 m 750 188 l 750 313 l 813 250 l 813 188 l 750 188 m 750 63 l 750 188 l 813 125 l 813 63 l 750 63 m 0 63 l 0 313 l 63 375 l 63 688 l 250 688 l 250 625 l 125 625 l 125 500 l 313 500 l 313 563 l 438 563 l 500 500 l 438 500 l 438 438 l 313 438 l 313 375 l 125 375 l 63 313 l 63 125 l 125 125 l 125 63 l 188 63 l 250 0 l 375 0 l 375 63 l 750 63 l 813 0 l 438 0 l 375 -62 l 188 -62 l 188 0 l 125 0 l 63 63 l 0 63 m 313 188 l 313 313 l 438 313 l 500 250 l 438 188 l 313 188 m 164 813 l 164 1063 l 664 1063 l 726 1000 l 726 938 l 664 938 l 664 1000 l 226 1000 l 226 875 l 664 875 l 664 938 l 726 875 l 664 813 l 164 813 z "},"ą":{"ha":864,"x_min":0,"x_max":813,"o":"m 750 438 l 750 563 l 813 500 l 813 438 l 750 438 m 750 313 l 750 438 l 813 375 l 813 313 l 750 313 m 750 188 l 750 313 l 813 250 l 813 188 l 750 188 m 750 63 l 750 188 l 813 125 l 813 63 l 750 63 m 0 63 l 0 313 l 63 375 l 63 688 l 188 688 l 250 750 l 688 750 l 688 688 l 750 625 l 813 625 l 813 563 l 688 563 l 688 625 l 625 688 l 250 688 l 250 625 l 125 625 l 125 500 l 313 500 l 313 563 l 438 563 l 500 500 l 438 438 l 313 438 l 313 375 l 125 375 l 63 313 l 63 125 l 125 125 l 125 63 l 188 63 l 250 0 l 375 0 l 375 63 l 500 63 l 563 0 l 563 -187 l 625 -250 l 750 -250 l 750 -187 l 813 -250 l 750 -312 l 563 -312 l 563 -250 l 500 -187 l 500 0 l 438 0 l 375 -62 l 188 -62 l 188 0 l 125 0 l 63 63 l 0 63 m 688 -187 l 688 63 l 750 63 l 813 0 l 750 0 l 750 -125 l 813 -125 l 813 -187 l 688 -187 m 313 188 l 313 313 l 438 313 l 500 250 l 438 188 l 313 188 z "},"å":{"ha":864,"x_min":0,"x_max":813,"o":"m 688 563 l 688 625 l 625 688 l 688 688 l 750 625 l 813 625 l 813 563 l 688 563 m 750 438 l 750 563 l 813 500 l 813 438 l 750 438 m 750 313 l 750 438 l 813 375 l 813 313 l 750 313 m 750 188 l 750 313 l 813 250 l 813 188 l 750 188 m 750 63 l 750 188 l 813 125 l 813 63 l 750 63 m 0 63 l 0 313 l 63 375 l 63 688 l 250 688 l 250 625 l 125 625 l 125 500 l 313 500 l 313 563 l 438 563 l 500 500 l 438 500 l 438 438 l 313 438 l 313 375 l 125 375 l 63 313 l 63 125 l 125 125 l 125 63 l 188 63 l 250 0 l 375 0 l 375 63 l 750 63 l 813 0 l 438 0 l 375 -62 l 188 -62 l 188 0 l 125 0 l 63 63 l 0 63 m 313 188 l 313 313 l 438 313 l 500 250 l 438 188 l 313 188 m 285 813 l 285 1063 l 347 1063 l 410 1125 l 535 1125 l 535 1063 l 597 1000 l 597 938 l 535 938 l 535 1000 l 472 1063 l 410 1063 l 410 1000 l 347 1000 l 347 875 l 410 875 l 347 938 l 410 1000 l 472 1000 l 472 875 l 535 875 l 535 938 l 597 875 l 535 813 l 285 813 z "},"ã":{"ha":864,"x_min":0,"x_max":813,"o":"m 688 563 l 688 625 l 625 688 l 688 688 l 750 625 l 813 625 l 813 563 l 688 563 m 750 438 l 750 563 l 813 500 l 813 438 l 750 438 m 750 313 l 750 438 l 813 375 l 813 313 l 750 313 m 750 188 l 750 313 l 813 250 l 813 188 l 750 188 m 750 63 l 750 188 l 813 125 l 813 63 l 750 63 m 0 63 l 0 313 l 63 375 l 63 688 l 250 688 l 250 625 l 125 625 l 125 500 l 313 500 l 313 563 l 438 563 l 500 500 l 438 500 l 438 438 l 313 438 l 313 375 l 125 375 l 63 313 l 63 125 l 125 125 l 125 63 l 188 63 l 250 0 l 375 0 l 375 63 l 750 63 l 813 0 l 438 0 l 375 -62 l 188 -62 l 188 0 l 125 0 l 63 63 l 0 63 m 313 188 l 313 313 l 438 313 l 500 250 l 438 188 l 313 188 m 703 1000 l 640 1063 l 703 1063 l 703 1000 m 390 1000 l 328 1063 l 578 1063 l 578 1000 l 390 1000 m 140 813 l 140 1063 l 328 1063 l 328 1000 l 203 1000 l 203 875 l 640 875 l 640 938 l 703 1000 l 703 875 l 640 813 l 140 813 z "},"æ":{"ha":1299,"x_min":0,"x_max":1250,"o":"m 1125 563 l 1125 625 l 1063 688 l 1125 688 l 1188 625 l 1250 625 l 1250 563 l 1125 563 m 1188 438 l 1188 563 l 1250 500 l 1250 438 l 1188 438 m 813 438 l 813 563 l 875 563 l 938 500 l 875 438 l 813 438 m 0 63 l 0 313 l 63 375 l 63 688 l 250 688 l 250 625 l 125 625 l 125 500 l 313 500 l 313 563 l 438 563 l 500 500 l 438 438 l 313 438 l 313 375 l 125 375 l 63 313 l 63 125 l 125 125 l 125 63 l 188 63 l 250 0 l 438 0 l 438 63 l 688 63 l 750 0 l 938 0 l 938 63 l 1125 63 l 1188 125 l 1188 188 l 1250 125 l 1188 63 l 1188 0 l 1000 0 l 938 -62 l 688 -62 l 688 0 l 500 0 l 438 -62 l 188 -62 l 188 0 l 125 0 l 63 63 l 0 63 m 313 188 l 313 313 l 438 313 l 500 250 l 438 188 l 313 188 m 750 188 l 750 313 l 1188 313 l 1250 250 l 1250 188 l 750 188 z "},"ǽ":{"ha":1299,"x_min":0,"x_max":1250,"o":"m 1125 563 l 1125 625 l 1063 688 l 1125 688 l 1188 625 l 1250 625 l 1250 563 l 1125 563 m 1188 438 l 1188 563 l 1250 500 l 1250 438 l 1188 438 m 813 438 l 813 563 l 875 563 l 938 500 l 875 438 l 813 438 m 0 63 l 0 313 l 63 375 l 63 688 l 250 688 l 250 625 l 125 625 l 125 500 l 313 500 l 313 563 l 438 563 l 500 500 l 438 438 l 313 438 l 313 375 l 125 375 l 63 313 l 63 125 l 125 125 l 125 63 l 188 63 l 250 0 l 438 0 l 438 63 l 688 63 l 750 0 l 938 0 l 938 63 l 1125 63 l 1188 125 l 1188 188 l 1250 125 l 1188 63 l 1188 0 l 1000 0 l 938 -62 l 688 -62 l 688 0 l 500 0 l 438 -62 l 188 -62 l 188 0 l 125 0 l 63 63 l 0 63 m 313 188 l 313 313 l 438 313 l 500 250 l 438 188 l 313 188 m 750 188 l 750 313 l 1188 313 l 1250 250 l 1250 188 l 750 188 m 503 813 l 503 938 l 565 938 l 565 1063 l 753 1063 l 753 1000 l 628 1000 l 628 875 l 753 875 l 753 938 l 878 938 l 940 1000 l 940 1063 l 1003 1000 l 940 938 l 940 875 l 815 875 l 753 813 l 503 813 z "},"b":{"ha":918,"x_min":63,"x_max":875,"o":"m 375 688 l 375 938 l 438 938 l 438 750 l 688 750 l 625 688 l 375 688 m 750 563 l 750 625 l 688 688 l 688 750 l 750 750 l 750 688 l 813 625 l 875 625 l 875 563 l 750 563 m 813 438 l 813 563 l 875 500 l 875 438 l 813 438 m 813 313 l 813 438 l 875 375 l 875 313 l 813 313 m 813 188 l 813 313 l 875 250 l 875 188 l 813 188 m 375 188 l 375 438 l 438 500 l 563 500 l 563 250 l 500 188 l 375 188 m 63 63 l 63 938 l 125 938 l 125 63 l 313 63 l 375 125 l 438 125 l 438 63 l 500 0 l 625 0 l 625 63 l 750 63 l 813 125 l 813 188 l 875 125 l 813 63 l 813 0 l 688 0 l 625 -62 l 438 -62 l 438 0 l 375 63 l 375 0 l 125 0 l 63 63 m 438 250 l 500 250 l 500 438 l 438 438 l 438 250 z "},"c":{"ha":864,"x_min":0,"x_max":875,"o":"m 625 625 l 625 688 l 750 688 l 750 625 l 813 563 l 813 500 l 750 500 l 750 563 l 688 625 l 625 625 m 813 438 l 813 500 l 875 438 l 813 438 m 375 250 l 375 500 l 500 500 l 563 438 l 813 438 l 813 375 l 500 375 l 500 438 l 438 438 l 438 250 l 500 313 l 813 313 l 813 250 l 500 250 l 500 188 l 438 188 l 375 250 m 125 0 l 125 63 l 63 125 l 63 188 l 0 250 l 0 500 l 63 563 l 63 625 l 125 625 l 188 688 l 250 688 l 188 625 l 188 563 l 125 563 l 63 500 l 63 250 l 125 188 l 125 125 l 188 63 l 313 63 l 313 0 l 500 0 l 563 63 l 688 63 l 688 125 l 750 125 l 813 188 l 813 63 l 750 63 l 688 0 l 563 0 l 563 -62 l 313 -62 l 250 0 l 125 0 m 813 188 l 813 250 l 875 188 l 813 188 z "},"ć":{"ha":864,"x_min":0,"x_max":875,"o":"m 625 625 l 625 688 l 750 688 l 750 625 l 813 563 l 813 500 l 750 500 l 750 563 l 688 625 l 625 625 m 813 438 l 813 500 l 875 438 l 813 438 m 375 250 l 375 500 l 500 500 l 563 438 l 813 438 l 813 375 l 500 375 l 500 438 l 438 438 l 438 250 l 500 313 l 813 313 l 813 250 l 500 250 l 500 188 l 438 188 l 375 250 m 125 0 l 125 63 l 63 125 l 63 188 l 0 250 l 0 500 l 63 563 l 63 625 l 125 625 l 188 688 l 250 688 l 188 625 l 188 563 l 125 563 l 63 500 l 63 250 l 125 188 l 125 125 l 188 63 l 313 63 l 313 0 l 500 0 l 563 63 l 688 63 l 688 125 l 750 125 l 813 188 l 813 63 l 750 63 l 688 0 l 563 0 l 563 -62 l 313 -62 l 250 0 l 125 0 m 813 188 l 813 250 l 875 188 l 813 188 m 285 813 l 285 938 l 347 938 l 347 1063 l 535 1063 l 535 1000 l 410 1000 l 410 875 l 535 875 l 535 938 l 660 938 l 722 1000 l 722 1063 l 785 1000 l 722 938 l 722 875 l 597 875 l 535 813 l 285 813 z "},"č":{"ha":864,"x_min":0,"x_max":875,"o":"m 625 625 l 625 688 l 750 688 l 750 625 l 813 563 l 813 500 l 750 500 l 750 563 l 688 625 l 625 625 m 813 438 l 813 500 l 875 438 l 813 438 m 375 250 l 375 500 l 500 500 l 563 438 l 813 438 l 813 375 l 500 375 l 500 438 l 438 438 l 438 250 l 500 313 l 813 313 l 813 250 l 500 250 l 500 188 l 438 188 l 375 250 m 125 0 l 125 63 l 63 125 l 63 188 l 0 250 l 0 500 l 63 563 l 63 625 l 125 625 l 188 688 l 250 688 l 188 625 l 188 563 l 125 563 l 63 500 l 63 250 l 125 188 l 125 125 l 188 63 l 313 63 l 313 0 l 500 0 l 563 63 l 688 63 l 688 125 l 750 125 l 813 188 l 813 63 l 750 63 l 688 0 l 563 0 l 563 -62 l 313 -62 l 250 0 l 125 0 m 813 188 l 813 250 l 875 188 l 813 188 m 253 813 l 253 875 l 190 938 l 128 938 l 128 1063 l 190 1063 l 190 1000 l 253 1000 l 253 938 l 315 875 l 565 875 l 565 938 l 628 938 l 690 1000 l 690 1063 l 753 1000 l 690 938 l 690 875 l 628 875 l 565 813 l 253 813 m 378 938 l 378 1000 l 253 1000 l 190 1063 l 378 1063 l 440 1000 l 440 1063 l 628 1063 l 628 1000 l 503 1000 l 440 938 l 378 938 z "},"ç":{"ha":864,"x_min":0,"x_max":875,"o":"m 813 438 l 813 500 l 875 438 l 813 438 m 375 250 l 375 500 l 500 500 l 563 438 l 813 438 l 813 375 l 500 375 l 500 438 l 438 438 l 438 250 l 500 313 l 813 313 l 813 250 l 500 250 l 500 188 l 438 188 l 375 250 m 813 188 l 813 250 l 875 188 l 813 188 m 125 0 l 125 63 l 63 125 l 63 188 l 0 250 l 0 500 l 63 563 l 63 625 l 125 625 l 188 688 l 188 750 l 625 750 l 688 688 l 750 688 l 750 625 l 813 563 l 813 500 l 750 500 l 750 563 l 688 625 l 625 625 l 625 688 l 250 688 l 188 625 l 188 563 l 125 563 l 63 500 l 63 250 l 125 188 l 125 125 l 188 63 l 313 63 l 313 0 l 375 -62 l 375 -125 l 438 -125 l 500 -187 l 438 -250 l 500 -250 l 563 -187 l 500 -125 l 438 -125 l 438 0 l 500 0 l 563 63 l 688 63 l 688 125 l 750 125 l 813 188 l 813 63 l 750 63 l 688 0 l 563 0 l 563 -125 l 625 -187 l 563 -250 l 563 -312 l 375 -312 l 313 -250 l 375 -187 l 313 -125 l 313 -62 l 250 0 l 125 0 z "},"ĉ":{"ha":864,"x_min":0,"x_max":875,"o":"m 625 625 l 625 688 l 750 688 l 750 625 l 813 563 l 813 500 l 750 500 l 750 563 l 688 625 l 625 625 m 813 438 l 813 500 l 875 438 l 813 438 m 375 250 l 375 500 l 500 500 l 563 438 l 813 438 l 813 375 l 500 375 l 500 438 l 438 438 l 438 250 l 500 313 l 813 313 l 813 250 l 500 250 l 500 188 l 438 188 l 375 250 m 125 0 l 125 63 l 63 125 l 63 188 l 0 250 l 0 500 l 63 563 l 63 625 l 125 625 l 188 688 l 250 688 l 188 625 l 188 563 l 125 563 l 63 500 l 63 250 l 125 188 l 125 125 l 188 63 l 313 63 l 313 0 l 500 0 l 563 63 l 688 63 l 688 125 l 750 125 l 813 188 l 813 63 l 750 63 l 688 0 l 563 0 l 563 -62 l 313 -62 l 250 0 l 125 0 m 813 188 l 813 250 l 875 188 l 813 188 m 128 813 l 128 938 l 190 938 l 253 1000 l 253 1063 l 378 1063 l 378 1000 l 315 1000 l 253 938 l 253 875 l 378 875 l 378 938 l 440 938 l 503 875 l 690 875 l 628 938 l 565 938 l 565 1000 l 503 1063 l 565 1063 l 628 1000 l 690 1000 l 690 938 l 753 875 l 690 813 l 440 813 l 440 875 l 378 813 l 128 813 z "},"ċ":{"ha":864,"x_min":0,"x_max":875,"o":"m 625 625 l 625 688 l 750 688 l 750 625 l 813 563 l 813 500 l 750 500 l 750 563 l 688 625 l 625 625 m 813 438 l 813 500 l 875 438 l 813 438 m 375 250 l 375 500 l 500 500 l 563 438 l 813 438 l 813 375 l 500 375 l 500 438 l 438 438 l 438 250 l 500 313 l 813 313 l 813 250 l 500 250 l 500 188 l 438 188 l 375 250 m 125 0 l 125 63 l 63 125 l 63 188 l 0 250 l 0 500 l 63 563 l 63 625 l 125 625 l 188 688 l 250 688 l 188 625 l 188 563 l 125 563 l 63 500 l 63 250 l 125 188 l 125 125 l 188 63 l 313 63 l 313 0 l 500 0 l 563 63 l 688 63 l 688 125 l 750 125 l 813 188 l 813 63 l 750 63 l 688 0 l 563 0 l 563 -62 l 313 -62 l 250 0 l 125 0 m 813 188 l 813 250 l 875 188 l 813 188 m 301 813 l 301 1063 l 364 1063 l 364 875 l 551 875 l 551 813 l 301 813 z "},"d":{"ha":918,"x_min":0,"x_max":875,"o":"m 813 813 l 813 875 l 875 813 l 813 813 m 813 688 l 813 750 l 875 688 l 813 688 m 63 625 l 125 688 l 125 750 l 500 750 l 500 938 l 563 938 l 563 688 l 188 688 l 125 625 l 63 625 m 813 563 l 813 625 l 875 563 l 813 563 m 125 0 l 125 63 l 63 125 l 63 188 l 0 250 l 0 500 l 63 563 l 63 625 l 125 563 l 63 500 l 63 250 l 125 188 l 125 125 l 188 63 l 250 63 l 250 0 l 375 0 l 438 63 l 813 63 l 813 0 l 438 0 l 438 -62 l 250 -62 l 188 0 l 125 0 m 438 250 l 500 313 l 500 438 l 438 438 l 438 250 m 813 438 l 813 500 l 875 438 l 813 438 m 813 313 l 813 375 l 875 313 l 813 313 m 813 188 l 813 250 l 875 188 l 813 188 m 813 63 l 813 125 l 875 63 l 813 63 m 375 250 l 375 500 l 500 500 l 563 438 l 563 313 l 500 250 l 500 188 l 438 188 l 375 250 z "},"ð":{"ha":886,"x_min":0,"x_max":875,"o":"m 563 875 l 563 938 l 688 938 l 625 875 l 563 875 m 750 625 l 750 688 l 688 750 l 688 875 l 750 875 l 750 938 l 813 938 l 813 813 l 750 813 l 750 750 l 813 688 l 813 625 l 875 563 l 813 563 l 750 625 m 813 438 l 813 500 l 875 438 l 813 438 m 813 313 l 813 375 l 875 313 l 813 313 m 438 250 l 500 313 l 438 375 l 438 250 m 813 188 l 813 250 l 875 188 l 813 188 m 0 125 l 0 500 l 63 500 l 125 563 l 125 625 l 188 625 l 188 750 l 250 813 l 313 813 l 250 875 l 188 875 l 188 938 l 313 938 l 313 875 l 375 813 l 313 750 l 250 750 l 250 688 l 313 688 l 313 750 l 438 750 l 500 688 l 438 625 l 313 625 l 313 563 l 188 563 l 125 500 l 125 438 l 63 438 l 63 188 l 125 188 l 125 125 l 188 63 l 313 63 l 313 0 l 563 0 l 625 63 l 688 63 l 688 125 l 750 125 l 813 188 l 813 63 l 750 63 l 688 0 l 625 0 l 625 -62 l 313 -62 l 250 0 l 125 0 l 125 63 l 63 125 l 0 125 m 375 250 l 375 375 l 438 438 l 500 438 l 500 375 l 563 313 l 500 250 l 500 188 l 438 188 l 375 250 z "},"ď":{"ha":1131,"x_min":0,"x_max":1296,"o":"m 813 813 l 813 875 l 875 813 l 813 813 m 813 688 l 813 750 l 875 688 l 813 688 m 63 625 l 125 688 l 125 750 l 500 750 l 500 938 l 563 938 l 563 688 l 188 688 l 125 625 l 63 625 m 813 563 l 813 625 l 875 563 l 813 563 m 125 0 l 125 63 l 63 125 l 63 188 l 0 250 l 0 500 l 63 563 l 63 625 l 125 563 l 63 500 l 63 250 l 125 188 l 125 125 l 188 63 l 250 63 l 250 0 l 375 0 l 438 63 l 813 63 l 813 0 l 438 0 l 438 -62 l 250 -62 l 188 0 l 125 0 m 438 250 l 500 313 l 500 438 l 438 438 l 438 250 m 813 438 l 813 500 l 875 438 l 813 438 m 813 313 l 813 375 l 875 313 l 813 313 m 813 188 l 813 250 l 875 188 l 813 188 m 813 63 l 813 125 l 875 63 l 813 63 m 375 250 l 375 500 l 500 500 l 563 438 l 563 313 l 500 250 l 500 188 l 438 188 l 375 250 m 983 743 l 1108 743 l 1108 806 l 1171 806 l 1171 931 l 983 931 l 983 743 m 921 681 l 921 931 l 983 993 l 1296 993 l 1296 931 l 1233 931 l 1296 868 l 1233 868 l 1233 743 l 1171 743 l 1108 681 l 921 681 z "},"đ":{"ha":919,"x_min":0,"x_max":938,"o":"m 125 0 l 125 63 l 63 125 l 63 188 l 0 250 l 0 500 l 63 563 l 63 625 l 125 688 l 125 750 l 438 750 l 438 875 l 500 938 l 563 938 l 500 875 l 500 813 l 563 813 l 563 688 l 188 688 l 125 625 l 125 563 l 63 500 l 63 250 l 125 188 l 125 125 l 188 63 l 250 63 l 250 0 l 125 0 m 438 250 l 500 313 l 500 438 l 438 438 l 438 250 m 250 -62 l 250 0 l 313 -62 l 250 -62 m 313 -62 l 313 0 l 375 0 l 438 63 l 813 63 l 813 750 l 875 813 l 875 875 l 813 875 l 813 938 l 938 938 l 938 813 l 875 750 l 875 63 l 813 0 l 438 0 l 438 -62 l 313 -62 m 375 250 l 375 500 l 500 500 l 563 438 l 563 313 l 500 250 l 500 188 l 438 188 l 375 250 z "},"e":{"ha":865,"x_min":0,"x_max":875,"o":"m 625 625 l 625 688 l 750 688 l 750 625 l 813 563 l 813 500 l 875 438 l 813 438 l 750 500 l 750 563 l 688 625 l 625 625 m 125 0 l 125 63 l 63 125 l 63 188 l 0 250 l 0 500 l 63 563 l 63 625 l 125 625 l 188 688 l 250 688 l 188 625 l 188 563 l 125 563 l 63 500 l 63 250 l 125 188 l 125 125 l 188 63 l 313 63 l 313 0 l 125 0 m 438 438 l 375 500 l 438 563 l 500 563 l 500 438 l 438 438 m 813 313 l 813 375 l 875 313 l 813 313 m 313 -62 l 313 0 l 563 0 l 625 63 l 688 63 l 688 125 l 750 125 l 750 188 l 438 188 l 375 250 l 438 313 l 813 313 l 813 250 l 750 250 l 813 188 l 813 63 l 750 63 l 688 0 l 625 0 l 625 -62 l 313 -62 z "},"é":{"ha":865,"x_min":0,"x_max":875,"o":"m 625 625 l 625 688 l 750 688 l 750 625 l 813 563 l 813 500 l 875 438 l 813 438 l 750 500 l 750 563 l 688 625 l 625 625 m 125 0 l 125 63 l 63 125 l 63 188 l 0 250 l 0 500 l 63 563 l 63 625 l 125 625 l 188 688 l 250 688 l 188 625 l 188 563 l 125 563 l 63 500 l 63 250 l 125 188 l 125 125 l 188 63 l 313 63 l 313 0 l 125 0 m 438 438 l 375 500 l 438 563 l 500 563 l 500 438 l 438 438 m 813 313 l 813 375 l 875 313 l 813 313 m 313 -62 l 313 0 l 563 0 l 625 63 l 688 63 l 688 125 l 750 125 l 750 188 l 438 188 l 375 250 l 438 313 l 813 313 l 813 250 l 750 250 l 813 188 l 813 63 l 750 63 l 688 0 l 625 0 l 625 -62 l 313 -62 m 286 813 l 286 938 l 349 938 l 349 1063 l 536 1063 l 536 1000 l 411 1000 l 411 875 l 536 875 l 536 938 l 661 938 l 724 1000 l 724 1063 l 786 1000 l 724 938 l 724 875 l 599 875 l 536 813 l 286 813 z "},"ĕ":{"ha":865,"x_min":0,"x_max":875,"o":"m 625 625 l 625 688 l 750 688 l 750 625 l 813 563 l 813 500 l 875 438 l 813 438 l 750 500 l 750 563 l 688 625 l 625 625 m 125 0 l 125 63 l 63 125 l 63 188 l 0 250 l 0 500 l 63 563 l 63 625 l 125 625 l 188 688 l 250 688 l 188 625 l 188 563 l 125 563 l 63 500 l 63 250 l 125 188 l 125 125 l 188 63 l 313 63 l 313 0 l 125 0 m 438 438 l 375 500 l 438 563 l 500 563 l 500 438 l 438 438 m 813 313 l 813 375 l 875 313 l 813 313 m 313 -62 l 313 0 l 563 0 l 625 63 l 688 63 l 688 125 l 750 125 l 750 188 l 438 188 l 375 250 l 438 313 l 813 313 l 813 250 l 750 250 l 813 188 l 813 63 l 750 63 l 688 0 l 625 0 l 625 -62 l 313 -62 m 625 938 l 625 1063 l 688 1000 l 688 938 l 625 938 m 375 938 l 375 1000 l 313 1063 l 375 1063 l 438 1000 l 438 1063 l 563 1063 l 563 1000 l 500 1000 l 438 938 l 375 938 m 250 813 l 250 875 l 188 938 l 188 1063 l 250 1063 l 250 938 l 313 875 l 563 875 l 563 938 l 625 938 l 688 875 l 625 875 l 563 813 l 250 813 z "},"ě":{"ha":865,"x_min":0,"x_max":875,"o":"m 625 625 l 625 688 l 750 688 l 750 625 l 813 563 l 813 500 l 875 438 l 813 438 l 750 500 l 750 563 l 688 625 l 625 625 m 125 0 l 125 63 l 63 125 l 63 188 l 0 250 l 0 500 l 63 563 l 63 625 l 125 625 l 188 688 l 250 688 l 188 625 l 188 563 l 125 563 l 63 500 l 63 250 l 125 188 l 125 125 l 188 63 l 313 63 l 313 0 l 125 0 m 438 438 l 375 500 l 438 563 l 500 563 l 500 438 l 438 438 m 813 313 l 813 375 l 875 313 l 813 313 m 313 -62 l 313 0 l 563 0 l 625 63 l 688 63 l 688 125 l 750 125 l 750 188 l 438 188 l 375 250 l 438 313 l 813 313 l 813 250 l 750 250 l 813 188 l 813 63 l 750 63 l 688 0 l 625 0 l 625 -62 l 313 -62 m 254 813 l 254 875 l 192 938 l 129 938 l 129 1063 l 192 1063 l 192 1000 l 254 1000 l 254 938 l 317 875 l 567 875 l 567 938 l 629 938 l 692 1000 l 692 1063 l 754 1000 l 692 938 l 692 875 l 629 875 l 567 813 l 254 813 m 379 938 l 379 1000 l 254 1000 l 192 1063 l 379 1063 l 442 1000 l 442 1063 l 629 1063 l 629 1000 l 504 1000 l 442 938 l 379 938 z "},"ê":{"ha":865,"x_min":0,"x_max":875,"o":"m 625 625 l 625 688 l 750 688 l 750 625 l 813 563 l 813 500 l 875 438 l 813 438 l 750 500 l 750 563 l 688 625 l 625 625 m 125 0 l 125 63 l 63 125 l 63 188 l 0 250 l 0 500 l 63 563 l 63 625 l 125 625 l 188 688 l 250 688 l 188 625 l 188 563 l 125 563 l 63 500 l 63 250 l 125 188 l 125 125 l 188 63 l 313 63 l 313 0 l 125 0 m 438 438 l 375 500 l 438 563 l 500 563 l 500 438 l 438 438 m 813 313 l 813 375 l 875 313 l 813 313 m 313 -62 l 313 0 l 563 0 l 625 63 l 688 63 l 688 125 l 750 125 l 750 188 l 438 188 l 375 250 l 438 313 l 813 313 l 813 250 l 750 250 l 813 188 l 813 63 l 750 63 l 688 0 l 625 0 l 625 -62 l 313 -62 m 129 813 l 129 938 l 192 938 l 254 1000 l 254 1063 l 379 1063 l 379 1000 l 317 1000 l 254 938 l 254 875 l 379 875 l 379 938 l 442 938 l 504 875 l 692 875 l 629 938 l 567 938 l 567 1000 l 504 1063 l 567 1063 l 629 1000 l 692 1000 l 692 938 l 754 875 l 692 813 l 442 813 l 442 875 l 379 813 l 129 813 z "},"ë":{"ha":865,"x_min":0,"x_max":875,"o":"m 625 625 l 625 688 l 750 688 l 750 625 l 813 563 l 813 500 l 875 438 l 813 438 l 750 500 l 750 563 l 688 625 l 625 625 m 125 0 l 125 63 l 63 125 l 63 188 l 0 250 l 0 500 l 63 563 l 63 625 l 125 625 l 188 688 l 250 688 l 188 625 l 188 563 l 125 563 l 63 500 l 63 250 l 125 188 l 125 125 l 188 63 l 313 63 l 313 0 l 125 0 m 438 438 l 375 500 l 438 563 l 500 563 l 500 438 l 438 438 m 813 313 l 813 375 l 875 313 l 813 313 m 313 -62 l 313 0 l 563 0 l 625 63 l 688 63 l 688 125 l 750 125 l 750 188 l 438 188 l 375 250 l 438 313 l 813 313 l 813 250 l 750 250 l 813 188 l 813 63 l 750 63 l 688 0 l 625 0 l 625 -62 l 313 -62 m 704 938 l 704 1000 l 642 1063 l 704 1063 l 767 1000 l 767 938 l 704 938 m 142 813 l 142 1063 l 204 1063 l 204 875 l 329 875 l 329 1063 l 392 1063 l 392 875 l 329 813 l 142 813 m 454 813 l 454 1063 l 517 1063 l 517 875 l 704 875 l 704 938 l 767 875 l 704 813 l 454 813 z "},"ė":{"ha":865,"x_min":0,"x_max":875,"o":"m 625 625 l 625 688 l 750 688 l 750 625 l 813 563 l 813 500 l 875 438 l 813 438 l 750 500 l 750 563 l 688 625 l 625 625 m 125 0 l 125 63 l 63 125 l 63 188 l 0 250 l 0 500 l 63 563 l 63 625 l 125 625 l 188 688 l 250 688 l 188 625 l 188 563 l 125 563 l 63 500 l 63 250 l 125 188 l 125 125 l 188 63 l 313 63 l 313 0 l 125 0 m 438 438 l 375 500 l 438 563 l 500 563 l 500 438 l 438 438 m 813 313 l 813 375 l 875 313 l 813 313 m 313 -62 l 313 0 l 563 0 l 625 63 l 688 63 l 688 125 l 750 125 l 750 188 l 438 188 l 375 250 l 438 313 l 813 313 l 813 250 l 750 250 l 813 188 l 813 63 l 750 63 l 688 0 l 625 0 l 625 -62 l 313 -62 m 303 813 l 303 1063 l 365 1063 l 365 875 l 553 875 l 553 813 l 303 813 z "},"è":{"ha":865,"x_min":0,"x_max":875,"o":"m 625 625 l 625 688 l 750 688 l 750 625 l 813 563 l 813 500 l 875 438 l 813 438 l 750 500 l 750 563 l 688 625 l 625 625 m 125 0 l 125 63 l 63 125 l 63 188 l 0 250 l 0 500 l 63 563 l 63 625 l 125 625 l 188 688 l 250 688 l 188 625 l 188 563 l 125 563 l 63 500 l 63 250 l 125 188 l 125 125 l 188 63 l 313 63 l 313 0 l 125 0 m 438 438 l 375 500 l 438 563 l 500 563 l 500 438 l 438 438 m 813 313 l 813 375 l 875 313 l 813 313 m 313 -62 l 313 0 l 563 0 l 625 63 l 688 63 l 688 125 l 750 125 l 750 188 l 438 188 l 375 250 l 438 313 l 813 313 l 813 250 l 750 250 l 813 188 l 813 63 l 750 63 l 688 0 l 625 0 l 625 -62 l 313 -62 m 265 813 l 265 875 l 203 875 l 140 938 l 78 938 l 78 1063 l 140 1063 l 140 1000 l 203 1000 l 203 938 l 265 938 l 328 875 l 515 875 l 453 938 l 453 1000 l 390 1000 l 328 1063 l 453 1063 l 515 1000 l 515 938 l 578 875 l 515 813 l 265 813 z "},"ē":{"ha":865,"x_min":0,"x_max":875,"o":"m 625 625 l 625 688 l 750 688 l 750 625 l 813 563 l 813 500 l 875 438 l 813 438 l 750 500 l 750 563 l 688 625 l 625 625 m 125 0 l 125 63 l 63 125 l 63 188 l 0 250 l 0 500 l 63 563 l 63 625 l 125 625 l 188 688 l 250 688 l 188 625 l 188 563 l 125 563 l 63 500 l 63 250 l 125 188 l 125 125 l 188 63 l 313 63 l 313 0 l 125 0 m 438 438 l 375 500 l 438 563 l 500 563 l 500 438 l 438 438 m 813 313 l 813 375 l 875 313 l 813 313 m 313 -62 l 313 0 l 563 0 l 625 63 l 688 63 l 688 125 l 750 125 l 750 188 l 438 188 l 375 250 l 438 313 l 813 313 l 813 250 l 750 250 l 813 188 l 813 63 l 750 63 l 688 0 l 625 0 l 625 -62 l 313 -62 m 167 813 l 167 1063 l 667 1063 l 729 1000 l 729 938 l 667 938 l 667 1000 l 229 1000 l 229 875 l 667 875 l 667 938 l 729 875 l 667 813 l 167 813 z "},"ę":{"ha":865,"x_min":0,"x_max":875,"o":"m 438 438 l 375 500 l 438 563 l 500 563 l 500 438 l 438 438 m 813 313 l 813 375 l 875 313 l 813 313 m 125 0 l 125 63 l 63 125 l 63 188 l 0 250 l 0 500 l 63 563 l 63 625 l 125 625 l 188 688 l 188 750 l 625 750 l 688 688 l 750 688 l 750 625 l 813 563 l 813 500 l 875 438 l 813 438 l 750 500 l 750 563 l 688 625 l 625 625 l 625 688 l 250 688 l 188 625 l 188 563 l 125 563 l 63 500 l 63 250 l 125 188 l 125 125 l 188 63 l 313 63 l 313 -187 l 375 -187 l 375 -250 l 563 -250 l 563 -187 l 500 -187 l 438 -125 l 438 0 l 563 0 l 625 63 l 688 63 l 688 125 l 750 125 l 750 188 l 438 188 l 375 250 l 438 313 l 813 313 l 813 250 l 750 250 l 813 188 l 813 63 l 750 63 l 688 0 l 625 0 l 625 -62 l 500 -62 l 500 -125 l 563 -125 l 625 -187 l 625 -312 l 375 -312 l 313 -250 l 250 -250 l 250 0 l 125 0 z "},"f":{"ha":683,"x_min":0,"x_max":688,"o":"m 688 1063 l 688 1000 l 375 1000 l 375 938 l 250 938 l 188 875 l 188 688 l 63 688 l 63 500 l 125 500 l 188 438 l 188 63 l 438 63 l 438 500 l 625 500 l 688 438 l 500 438 l 500 63 l 438 0 l 125 0 l 125 438 l 63 438 l 0 500 l 0 750 l 125 750 l 125 875 l 188 938 l 188 1000 l 313 1000 l 375 1063 l 688 1063 m 688 875 l 625 875 l 625 1000 l 688 938 l 688 875 m 500 813 l 625 813 l 625 875 l 688 813 l 625 750 l 688 688 l 688 625 l 625 625 l 625 688 l 500 688 l 438 750 l 500 813 m 688 500 l 625 500 l 625 625 l 688 563 l 688 500 z "},"g":{"ha":925,"x_min":0,"x_max":875,"o":"m 438 313 l 500 313 l 500 438 l 438 438 l 438 313 m 813 -187 l 813 250 l 875 188 l 875 -187 l 813 -187 m 375 0 l 438 -62 l 500 -62 l 500 63 l 438 0 l 375 0 m 125 0 l 125 63 l 63 125 l 63 188 l 0 250 l 0 500 l 63 563 l 63 625 l 125 688 l 125 750 l 438 750 l 500 688 l 500 750 l 813 750 l 875 688 l 875 250 l 813 250 l 813 688 l 563 688 l 500 625 l 438 625 l 438 688 l 188 688 l 125 625 l 125 563 l 63 500 l 63 250 l 125 188 l 125 125 l 188 63 l 438 63 l 438 125 l 500 125 l 563 63 l 563 -62 l 500 -125 l 375 -125 l 375 -62 l 125 -62 l 125 -125 l 188 -187 l 250 -187 l 250 -250 l 688 -250 l 750 -187 l 750 -125 l 813 -187 l 750 -250 l 750 -312 l 250 -312 l 188 -250 l 125 -250 l 125 -187 l 63 -125 l 0 -125 l 0 0 l 125 0 m 375 250 l 375 500 l 500 500 l 563 438 l 563 313 l 500 250 l 375 250 z "},"ğ":{"ha":925,"x_min":0,"x_max":875,"o":"m 438 313 l 500 313 l 500 438 l 438 438 l 438 313 m 813 -187 l 813 250 l 875 188 l 875 -187 l 813 -187 m 375 0 l 438 -62 l 500 -62 l 500 63 l 438 0 l 375 0 m 125 0 l 125 63 l 63 125 l 63 188 l 0 250 l 0 500 l 63 563 l 63 625 l 125 688 l 125 750 l 438 750 l 500 688 l 500 750 l 813 750 l 875 688 l 875 250 l 813 250 l 813 688 l 563 688 l 500 625 l 438 625 l 438 688 l 188 688 l 125 625 l 125 563 l 63 500 l 63 250 l 125 188 l 125 125 l 188 63 l 438 63 l 438 125 l 500 125 l 563 63 l 563 -62 l 500 -125 l 375 -125 l 375 -62 l 125 -62 l 125 -125 l 188 -187 l 250 -187 l 250 -250 l 688 -250 l 750 -187 l 750 -125 l 813 -187 l 750 -250 l 750 -312 l 250 -312 l 188 -250 l 125 -250 l 125 -187 l 63 -125 l 0 -125 l 0 0 l 125 0 m 375 250 l 375 500 l 500 500 l 563 438 l 563 313 l 500 250 l 375 250 m 646 938 l 646 1063 l 708 1000 l 708 938 l 646 938 m 396 938 l 396 1000 l 333 1063 l 396 1063 l 458 1000 l 458 1063 l 583 1063 l 583 1000 l 521 1000 l 458 938 l 396 938 m 271 813 l 271 875 l 208 938 l 208 1063 l 271 1063 l 271 938 l 333 875 l 583 875 l 583 938 l 646 938 l 708 875 l 646 875 l 583 813 l 271 813 z "},"ĝ":{"ha":925,"x_min":0,"x_max":875,"o":"m 438 313 l 500 313 l 500 438 l 438 438 l 438 313 m 813 -187 l 813 250 l 875 188 l 875 -187 l 813 -187 m 375 0 l 438 -62 l 500 -62 l 500 63 l 438 0 l 375 0 m 125 0 l 125 63 l 63 125 l 63 188 l 0 250 l 0 500 l 63 563 l 63 625 l 125 688 l 125 750 l 438 750 l 500 688 l 500 750 l 813 750 l 875 688 l 875 250 l 813 250 l 813 688 l 563 688 l 500 625 l 438 625 l 438 688 l 188 688 l 125 625 l 125 563 l 63 500 l 63 250 l 125 188 l 125 125 l 188 63 l 438 63 l 438 125 l 500 125 l 563 63 l 563 -62 l 500 -125 l 375 -125 l 375 -62 l 125 -62 l 125 -125 l 188 -187 l 250 -187 l 250 -250 l 688 -250 l 750 -187 l 750 -125 l 813 -187 l 750 -250 l 750 -312 l 250 -312 l 188 -250 l 125 -250 l 125 -187 l 63 -125 l 0 -125 l 0 0 l 125 0 m 375 250 l 375 500 l 500 500 l 563 438 l 563 313 l 500 250 l 375 250 m 150 813 l 150 938 l 213 938 l 275 1000 l 275 1063 l 400 1063 l 400 1000 l 338 1000 l 275 938 l 275 875 l 400 875 l 400 938 l 463 938 l 525 875 l 713 875 l 650 938 l 588 938 l 588 1000 l 525 1063 l 588 1063 l 650 1000 l 713 1000 l 713 938 l 775 875 l 713 813 l 463 813 l 463 875 l 400 813 l 150 813 z "},"ģ":{"ha":925,"x_min":0,"x_max":875,"o":"m 438 313 l 500 313 l 500 438 l 438 438 l 438 313 m 813 -187 l 813 250 l 875 188 l 875 -187 l 813 -187 m 375 0 l 438 -62 l 500 -62 l 500 63 l 438 0 l 375 0 m 125 0 l 125 63 l 63 125 l 63 188 l 0 250 l 0 500 l 63 563 l 63 625 l 125 688 l 125 750 l 438 750 l 500 688 l 500 750 l 813 750 l 875 688 l 875 250 l 813 250 l 813 688 l 563 688 l 500 625 l 438 625 l 438 688 l 188 688 l 125 625 l 125 563 l 63 500 l 63 250 l 125 188 l 125 125 l 188 63 l 438 63 l 438 125 l 500 125 l 563 63 l 563 -62 l 500 -125 l 375 -125 l 375 -62 l 125 -62 l 125 -125 l 188 -187 l 250 -187 l 250 -250 l 688 -250 l 750 -187 l 750 -125 l 813 -187 l 750 -250 l 750 -312 l 250 -312 l 188 -250 l 125 -250 l 125 -187 l 63 -125 l 0 -125 l 0 0 l 125 0 m 375 250 l 375 500 l 500 500 l 563 438 l 563 313 l 500 250 l 375 250 m 611 938 l 611 1063 l 674 1000 l 674 938 l 611 938 m 299 813 l 299 938 l 361 1000 l 361 1063 l 424 1125 l 674 1125 l 674 1063 l 424 1063 l 424 1000 l 361 938 l 361 875 l 549 875 l 549 938 l 611 938 l 674 875 l 611 875 l 549 813 l 299 813 z "},"ġ":{"ha":925,"x_min":0,"x_max":875,"o":"m 438 313 l 500 313 l 500 438 l 438 438 l 438 313 m 813 -187 l 813 250 l 875 188 l 875 -187 l 813 -187 m 375 0 l 438 -62 l 500 -62 l 500 63 l 438 0 l 375 0 m 125 0 l 125 63 l 63 125 l 63 188 l 0 250 l 0 500 l 63 563 l 63 625 l 125 688 l 125 750 l 438 750 l 500 688 l 500 750 l 813 750 l 875 688 l 875 250 l 813 250 l 813 688 l 563 688 l 500 625 l 438 625 l 438 688 l 188 688 l 125 625 l 125 563 l 63 500 l 63 250 l 125 188 l 125 125 l 188 63 l 438 63 l 438 125 l 500 125 l 563 63 l 563 -62 l 500 -125 l 375 -125 l 375 -62 l 125 -62 l 125 -125 l 188 -187 l 250 -187 l 250 -250 l 688 -250 l 750 -187 l 750 -125 l 813 -187 l 750 -250 l 750 -312 l 250 -312 l 188 -250 l 125 -250 l 125 -187 l 63 -125 l 0 -125 l 0 0 l 125 0 m 375 250 l 375 500 l 500 500 l 563 438 l 563 313 l 500 250 l 375 250 m 324 813 l 324 1063 l 386 1063 l 386 875 l 574 875 l 574 813 l 324 813 z "},"h":{"ha":951,"x_min":63,"x_max":938,"o":"m 875 375 l 875 500 l 938 438 l 938 375 l 875 375 m 875 250 l 875 375 l 938 313 l 938 250 l 875 250 m 875 125 l 875 250 l 938 188 l 938 125 l 875 125 m 63 0 l 63 1000 l 375 1000 l 438 938 l 438 750 l 750 750 l 813 688 l 875 688 l 875 563 l 938 563 l 938 500 l 813 500 l 813 625 l 750 625 l 750 688 l 500 688 l 438 625 l 375 625 l 375 938 l 125 938 l 125 63 l 375 63 l 375 500 l 500 500 l 563 438 l 563 63 l 875 63 l 875 125 l 938 63 l 875 0 l 500 0 l 500 438 l 438 438 l 438 63 l 375 0 l 63 0 z "},"ħ":{"ha":951,"x_min":-62,"x_max":938,"o":"m 875 375 l 875 438 l 938 375 l 875 375 m 875 250 l 875 313 l 938 250 l 875 250 m 875 125 l 875 188 l 938 125 l 875 125 m 63 63 l 63 688 l 0 688 l 0 750 l -62 813 l -62 938 l 63 938 l 125 1000 l 438 1000 l 438 938 l 500 875 l 500 750 l 813 750 l 813 688 l 875 625 l 875 563 l 938 500 l 875 500 l 813 563 l 813 625 l 750 688 l 500 688 l 500 625 l 438 625 l 375 688 l 438 750 l 438 875 l 375 938 l 125 938 l 125 875 l 0 875 l 0 813 l 63 750 l 125 750 l 125 63 l 375 63 l 375 438 l 438 500 l 563 500 l 563 63 l 875 63 l 938 0 l 563 0 l 500 63 l 500 438 l 438 438 l 438 0 l 125 0 l 63 63 z "},"ĥ":{"ha":951,"x_min":63,"x_max":938,"o":"m 875 375 l 875 500 l 938 438 l 938 375 l 875 375 m 875 250 l 875 375 l 938 313 l 938 250 l 875 250 m 875 125 l 875 250 l 938 188 l 938 125 l 875 125 m 63 0 l 63 1000 l 375 1000 l 438 938 l 438 750 l 750 750 l 813 688 l 875 688 l 875 563 l 938 563 l 938 500 l 813 500 l 813 625 l 750 625 l 750 688 l 500 688 l 438 625 l 375 625 l 375 938 l 125 938 l 125 63 l 375 63 l 375 500 l 500 500 l 563 438 l 563 63 l 875 63 l 875 125 l 938 63 l 875 0 l 500 0 l 500 438 l 438 438 l 438 63 l 375 0 l 63 0 m 172 1029 l 172 1154 l 235 1154 l 297 1217 l 297 1279 l 422 1279 l 422 1217 l 360 1217 l 297 1154 l 297 1092 l 422 1092 l 422 1154 l 485 1154 l 547 1092 l 735 1092 l 672 1154 l 610 1154 l 610 1217 l 547 1279 l 610 1279 l 672 1217 l 735 1217 l 735 1154 l 797 1092 l 735 1029 l 485 1029 l 485 1092 l 422 1029 l 172 1029 z "},"i":{"ha":449,"x_min":63,"x_max":438,"o":"m 375 875 l 375 1000 l 438 938 l 438 875 l 375 875 m 375 500 l 375 625 l 438 563 l 438 500 l 375 500 m 375 375 l 375 500 l 438 438 l 438 375 l 375 375 m 375 250 l 375 375 l 438 313 l 438 250 l 375 250 m 375 125 l 375 250 l 438 188 l 438 125 l 375 125 m 63 0 l 63 1000 l 125 1063 l 438 1063 l 438 1000 l 125 1000 l 125 813 l 313 813 l 313 875 l 375 875 l 438 813 l 375 813 l 313 750 l 375 750 l 438 688 l 438 625 l 375 625 l 375 688 l 125 688 l 125 63 l 375 63 l 375 125 l 438 63 l 375 0 l 63 0 z "},"ı":{"ha":449,"x_min":63,"x_max":438,"o":"m 375 500 l 375 625 l 438 563 l 438 500 l 375 500 m 375 375 l 375 500 l 438 438 l 375 375 m 375 250 l 375 375 l 438 313 l 438 250 l 375 250 m 375 125 l 375 250 l 438 188 l 438 125 l 375 125 m 63 0 l 63 750 l 375 750 l 438 688 l 438 625 l 375 625 l 375 688 l 125 688 l 125 63 l 375 63 l 375 125 l 438 63 l 375 0 l 63 0 z "},"í":{"ha":449,"x_min":63,"x_max":578,"o":"m 375 500 l 375 625 l 438 563 l 438 500 l 375 500 m 375 375 l 375 500 l 438 438 l 375 375 m 375 250 l 375 375 l 438 313 l 438 250 l 375 250 m 375 125 l 375 250 l 438 188 l 438 125 l 375 125 m 63 0 l 63 750 l 375 750 l 438 688 l 438 625 l 375 625 l 375 688 l 125 688 l 125 63 l 375 63 l 375 125 l 438 63 l 375 0 l 63 0 m 78 813 l 78 938 l 140 938 l 140 1063 l 328 1063 l 328 1000 l 203 1000 l 203 875 l 328 875 l 328 938 l 453 938 l 515 1000 l 515 1063 l 578 1000 l 515 938 l 515 875 l 390 875 l 328 813 l 78 813 z "},"ĭ":{"ha":449,"x_min":-21,"x_max":479,"o":"m 375 500 l 375 625 l 438 563 l 438 500 l 375 500 m 375 375 l 375 500 l 438 438 l 375 375 m 375 250 l 375 375 l 438 313 l 438 250 l 375 250 m 375 125 l 375 250 l 438 188 l 438 125 l 375 125 m 63 0 l 63 750 l 375 750 l 438 688 l 438 625 l 375 625 l 375 688 l 125 688 l 125 63 l 375 63 l 375 125 l 438 63 l 375 0 l 63 0 m 417 938 l 417 1063 l 479 1000 l 479 938 l 417 938 m 167 938 l 167 1000 l 104 1063 l 167 1063 l 229 1000 l 229 1063 l 354 1063 l 354 1000 l 292 1000 l 229 938 l 167 938 m 42 813 l 42 875 l -21 938 l -21 1063 l 42 1063 l 42 938 l 104 875 l 354 875 l 354 938 l 417 938 l 479 875 l 417 875 l 354 813 l 42 813 z "},"î":{"ha":449,"x_min":-79,"x_max":546,"o":"m 375 500 l 375 625 l 438 563 l 438 500 l 375 500 m 375 375 l 375 500 l 438 438 l 375 375 m 375 250 l 375 375 l 438 313 l 438 250 l 375 250 m 375 125 l 375 250 l 438 188 l 438 125 l 375 125 m 63 0 l 63 750 l 375 750 l 438 688 l 438 625 l 375 625 l 375 688 l 125 688 l 125 63 l 375 63 l 375 125 l 438 63 l 375 0 l 63 0 m -79 813 l -79 938 l -17 938 l 46 1000 l 46 1063 l 171 1063 l 171 1000 l 108 1000 l 46 938 l 46 875 l 171 875 l 171 938 l 233 938 l 296 875 l 483 875 l 421 938 l 358 938 l 358 1000 l 296 1063 l 358 1063 l 421 1000 l 483 1000 l 483 938 l 546 875 l 483 813 l 233 813 l 233 875 l 171 813 l -79 813 z "},"ï":{"ha":449,"x_min":-67,"x_max":558,"o":"m 375 500 l 375 625 l 438 563 l 438 500 l 375 500 m 375 375 l 375 500 l 438 438 l 375 375 m 375 250 l 375 375 l 438 313 l 438 250 l 375 250 m 375 125 l 375 250 l 438 188 l 438 125 l 375 125 m 63 0 l 63 750 l 375 750 l 438 688 l 438 625 l 375 625 l 375 688 l 125 688 l 125 63 l 375 63 l 375 125 l 438 63 l 375 0 l 63 0 m 496 938 l 496 1000 l 433 1063 l 496 1063 l 558 1000 l 558 938 l 496 938 m -67 813 l -67 1063 l -4 1063 l -4 875 l 121 875 l 121 1063 l 183 1063 l 183 875 l 121 813 l -67 813 m 246 813 l 246 1063 l 308 1063 l 308 875 l 496 875 l 496 938 l 558 875 l 496 813 l 246 813 z "},"ì":{"ha":449,"x_min":-131,"x_max":438,"o":"m 375 500 l 375 625 l 438 563 l 438 500 l 375 500 m 375 375 l 375 500 l 438 438 l 375 375 m 375 250 l 375 375 l 438 313 l 438 250 l 375 250 m 375 125 l 375 250 l 438 188 l 438 125 l 375 125 m 63 0 l 63 750 l 375 750 l 438 688 l 438 625 l 375 625 l 375 688 l 125 688 l 125 63 l 375 63 l 375 125 l 438 63 l 375 0 l 63 0 m 57 813 l 57 875 l -6 875 l -68 938 l -131 938 l -131 1063 l -68 1063 l -68 1000 l -6 1000 l -6 938 l 57 938 l 119 875 l 307 875 l 244 938 l 244 1000 l 182 1000 l 119 1063 l 244 1063 l 307 1000 l 307 938 l 369 875 l 307 813 l 57 813 z "},"ĳ":{"ha":989,"x_min":63,"x_max":947,"o":"m 375 875 l 375 1000 l 438 938 l 438 875 l 375 875 m 375 500 l 375 625 l 438 563 l 438 500 l 375 500 m 375 375 l 375 500 l 438 438 l 438 375 l 375 375 m 375 250 l 375 375 l 438 313 l 438 250 l 375 250 m 375 125 l 375 250 l 438 188 l 438 125 l 375 125 m 63 0 l 63 1000 l 125 1063 l 438 1063 l 438 1000 l 125 1000 l 125 813 l 313 813 l 313 875 l 375 875 l 438 813 l 375 813 l 313 750 l 375 750 l 438 688 l 438 625 l 375 625 l 375 688 l 125 688 l 125 63 l 375 63 l 375 125 l 438 63 l 375 0 l 63 0 m 885 938 l 885 1000 l 947 1000 l 947 938 l 885 938 m 885 813 l 885 938 l 947 875 l 947 813 l 885 813 m 885 563 l 885 688 l 947 625 l 947 563 l 885 563 m 885 438 l 885 563 l 947 500 l 947 438 l 885 438 m 572 313 l 572 688 l 635 750 l 572 813 l 572 1000 l 635 1000 l 635 813 l 885 813 l 947 750 l 947 688 l 635 688 l 635 313 l 572 313 m 885 313 l 885 438 l 947 375 l 947 313 l 885 313 m 885 188 l 885 313 l 947 250 l 947 188 l 885 188 m 885 63 l 885 188 l 947 125 l 947 63 l 885 63 m 885 63 l 947 0 l 947 -62 l 885 -62 l 885 63 m 572 0 l 572 313 l 635 250 l 635 0 l 572 -62 l 447 -62 l 447 -250 l 635 -250 l 635 -187 l 822 -187 l 822 -62 l 885 -62 l 947 -125 l 885 -125 l 885 -250 l 697 -250 l 635 -312 l 385 -312 l 385 -62 l 447 0 l 572 0 z "},"ī":{"ha":449,"x_min":-42,"x_max":521,"o":"m 375 500 l 375 625 l 438 563 l 438 500 l 375 500 m 375 375 l 375 500 l 438 438 l 375 375 m 375 250 l 375 375 l 438 313 l 438 250 l 375 250 m 375 125 l 375 250 l 438 188 l 438 125 l 375 125 m 63 0 l 63 750 l 375 750 l 438 688 l 438 625 l 375 625 l 375 688 l 125 688 l 125 63 l 375 63 l 375 125 l 438 63 l 375 0 l 63 0 m -42 813 l -42 1063 l 458 1063 l 521 1000 l 521 938 l 458 938 l 458 1000 l 21 1000 l 21 875 l 458 875 l 458 938 l 521 875 l 458 813 l -42 813 z "},"į":{"ha":449,"x_min":63,"x_max":438,"o":"m 375 938 l 375 1000 l 438 1000 l 438 938 l 375 938 m 375 563 l 375 688 l 438 625 l 438 563 l 375 563 m 375 438 l 375 563 l 438 500 l 438 438 l 375 438 m 375 313 l 375 438 l 438 375 l 438 313 l 375 313 m 375 188 l 375 313 l 438 250 l 438 188 l 375 188 m 375 63 l 375 188 l 438 125 l 438 63 l 375 63 m 125 -125 l 188 -125 l 188 -187 l 250 -250 l 375 -250 l 375 -187 l 438 -250 l 375 -312 l 188 -312 l 188 -250 l 125 -187 l 63 -187 l 63 688 l 125 750 l 63 813 l 63 1000 l 125 1000 l 125 813 l 313 813 l 375 875 l 375 938 l 438 875 l 375 813 l 375 750 l 438 750 l 438 688 l 125 688 l 125 -125 m 250 -62 l 313 0 l 313 63 l 375 63 l 438 0 l 375 0 l 313 -62 l 375 -62 l 438 -125 l 438 -187 l 375 -187 l 375 -125 l 313 -125 l 250 -62 z "},"ĩ":{"ha":449,"x_min":-65,"x_max":497,"o":"m 375 500 l 375 625 l 438 563 l 438 500 l 375 500 m 375 375 l 375 500 l 438 438 l 375 375 m 375 250 l 375 375 l 438 313 l 438 250 l 375 250 m 375 125 l 375 250 l 438 188 l 438 125 l 375 125 m 63 0 l 63 750 l 375 750 l 438 688 l 438 625 l 375 625 l 375 688 l 125 688 l 125 63 l 375 63 l 375 125 l 438 63 l 375 0 l 63 0 m 497 1000 l 435 1063 l 497 1063 l 497 1000 m 185 1000 l 122 1063 l 372 1063 l 372 1000 l 185 1000 m -65 813 l -65 1063 l 122 1063 l 122 1000 l -3 1000 l -3 875 l 435 875 l 435 938 l 497 1000 l 497 875 l 435 813 l -65 813 z "},"j":{"ha":479,"x_min":-125,"x_max":438,"o":"m 375 938 l 375 1000 l 438 1000 l 438 938 l 375 938 m 375 813 l 375 938 l 438 875 l 438 813 l 375 813 m 375 563 l 375 688 l 438 625 l 438 563 l 375 563 m 375 438 l 375 563 l 438 500 l 438 438 l 375 438 m 63 313 l 63 688 l 125 750 l 63 813 l 63 1000 l 125 1000 l 125 813 l 375 813 l 438 750 l 438 688 l 125 688 l 125 313 l 63 313 m 375 313 l 375 438 l 438 375 l 438 313 l 375 313 m 375 188 l 375 313 l 438 250 l 438 188 l 375 188 m 375 63 l 375 188 l 438 125 l 438 63 l 375 63 m 375 63 l 438 0 l 438 -62 l 375 -62 l 375 63 m 63 0 l 63 313 l 125 250 l 125 0 l 63 -62 l -62 -62 l -62 -250 l 125 -250 l 125 -187 l 313 -187 l 313 -62 l 375 -62 l 438 -125 l 375 -125 l 375 -250 l 188 -250 l 125 -312 l -125 -312 l -125 -62 l -62 0 l 63 0 z "},"ȷ":{"ha":669,"x_min":0,"x_max":625,"o":"m 563 563 l 563 688 l 625 625 l 625 563 l 563 563 m 563 438 l 563 563 l 625 500 l 625 438 l 563 438 m 563 313 l 563 438 l 625 375 l 625 313 l 563 313 m 563 188 l 563 313 l 625 250 l 625 188 l 563 188 m 563 63 l 563 188 l 625 125 l 625 63 l 563 63 m 563 63 l 625 0 l 625 -62 l 563 -62 l 563 63 m 63 0 l 63 -250 l 313 -250 l 313 -187 l 438 -187 l 500 -125 l 500 -62 l 563 -62 l 625 -125 l 563 -125 l 500 -187 l 500 -250 l 375 -250 l 313 -312 l 0 -312 l 0 63 l 250 63 l 250 438 l 0 438 l 0 688 l 63 688 l 63 500 l 313 500 l 313 0 l 63 0 z "},"ĵ":{"ha":669,"x_min":0,"x_max":656,"o":"m 563 563 l 563 688 l 625 625 l 625 563 l 563 563 m 563 438 l 563 563 l 625 500 l 625 438 l 563 438 m 563 313 l 563 438 l 625 375 l 625 313 l 563 313 m 563 188 l 563 313 l 625 250 l 625 188 l 563 188 m 563 63 l 563 188 l 625 125 l 625 63 l 563 63 m 563 63 l 625 0 l 625 -62 l 563 -62 l 563 63 m 63 0 l 63 -250 l 313 -250 l 313 -187 l 438 -187 l 500 -125 l 500 -62 l 563 -62 l 625 -125 l 563 -125 l 500 -187 l 500 -250 l 375 -250 l 313 -312 l 0 -312 l 0 63 l 250 63 l 250 438 l 0 438 l 0 688 l 63 688 l 63 500 l 313 500 l 313 0 l 63 0 m 31 813 l 31 938 l 93 938 l 156 1000 l 156 1063 l 281 1063 l 281 1000 l 218 1000 l 156 938 l 156 875 l 281 875 l 281 938 l 343 938 l 406 875 l 593 875 l 531 938 l 468 938 l 468 1000 l 406 1063 l 468 1063 l 531 1000 l 593 1000 l 593 938 l 656 875 l 593 813 l 343 813 l 343 875 l 281 813 l 31 813 z "},"k":{"ha":893,"x_min":63,"x_max":938,"o":"m 125 63 l 375 63 l 375 125 l 438 188 l 500 188 l 500 63 l 875 63 l 813 125 l 750 125 l 750 250 l 688 250 l 688 313 l 625 375 l 688 438 l 688 500 l 750 563 l 750 625 l 813 625 l 813 688 l 500 688 l 500 563 l 438 563 l 375 625 l 375 938 l 125 938 l 125 63 m 63 0 l 63 1000 l 375 1000 l 438 938 l 438 750 l 813 750 l 875 688 l 875 563 l 813 563 l 750 500 l 750 438 l 688 375 l 750 313 l 813 313 l 813 188 l 875 188 l 875 125 l 938 63 l 875 0 l 438 0 l 438 63 l 375 0 l 63 0 z "},"ķ":{"ha":893,"x_min":63,"x_max":938,"o":"m 125 63 l 375 63 l 375 125 l 438 188 l 500 188 l 500 63 l 875 63 l 813 125 l 750 125 l 750 250 l 688 250 l 688 313 l 625 375 l 688 438 l 688 500 l 750 563 l 750 625 l 813 625 l 813 688 l 500 688 l 500 563 l 438 563 l 375 625 l 375 938 l 125 938 l 125 63 m 63 0 l 63 1000 l 375 1000 l 438 938 l 438 750 l 813 750 l 875 688 l 875 563 l 813 563 l 750 500 l 750 438 l 688 375 l 750 313 l 813 313 l 813 188 l 875 188 l 875 125 l 938 63 l 875 0 l 438 0 l 438 63 l 375 0 l 63 0 m 326 -125 l 326 -312 l 451 -312 l 451 -250 l 514 -250 l 514 -125 l 326 -125 m 264 -125 l 326 -62 l 639 -62 l 639 -125 l 576 -125 l 639 -187 l 576 -187 l 576 -312 l 514 -312 l 451 -375 l 264 -375 l 264 -125 z "},"ĸ":{"ha":893,"x_min":63,"x_max":938,"o":"m 125 63 l 375 63 l 375 125 l 438 188 l 500 188 l 500 63 l 875 63 l 813 125 l 750 125 l 750 250 l 688 250 l 688 313 l 625 375 l 688 438 l 688 500 l 750 500 l 750 625 l 813 625 l 813 688 l 563 688 l 500 625 l 500 563 l 438 500 l 375 500 l 375 688 l 125 688 l 125 63 m 63 0 l 63 750 l 375 750 l 438 688 l 438 625 l 500 688 l 500 750 l 813 750 l 875 688 l 875 563 l 813 563 l 813 438 l 750 438 l 688 375 l 750 313 l 813 313 l 813 188 l 875 188 l 875 125 l 938 63 l 875 0 l 438 0 l 438 63 l 375 0 l 63 0 z "},"l":{"ha":449,"x_min":63,"x_max":438,"o":"m 375 750 l 375 875 l 438 813 l 438 750 l 375 750 m 375 625 l 375 750 l 438 688 l 438 625 l 375 625 m 63 375 l 63 1000 l 375 1000 l 438 938 l 438 875 l 375 875 l 375 938 l 125 938 l 125 438 l 63 375 m 375 500 l 375 625 l 438 563 l 438 500 l 375 500 m 375 375 l 375 500 l 438 438 l 438 375 l 375 375 m 375 250 l 375 375 l 438 313 l 438 250 l 375 250 m 375 125 l 375 250 l 438 188 l 438 125 l 375 125 m 63 0 l 63 375 l 125 375 l 125 63 l 375 63 l 375 125 l 438 63 l 375 0 l 63 0 z "},"ĺ":{"ha":449,"x_min":63,"x_max":578,"o":"m 375 750 l 375 875 l 438 813 l 438 750 l 375 750 m 375 625 l 375 750 l 438 688 l 438 625 l 375 625 m 63 375 l 63 1000 l 375 1000 l 438 938 l 438 875 l 375 875 l 375 938 l 125 938 l 125 438 l 63 375 m 375 500 l 375 625 l 438 563 l 438 500 l 375 500 m 375 375 l 375 500 l 438 438 l 438 375 l 375 375 m 375 250 l 375 375 l 438 313 l 438 250 l 375 250 m 375 125 l 375 250 l 438 188 l 438 125 l 375 125 m 63 0 l 63 375 l 125 375 l 125 63 l 375 63 l 375 125 l 438 63 l 375 0 l 63 0 m 78 1028 l 78 1153 l 140 1153 l 140 1278 l 328 1278 l 328 1215 l 203 1215 l 203 1090 l 328 1090 l 328 1153 l 453 1153 l 515 1215 l 515 1278 l 578 1215 l 515 1153 l 515 1090 l 390 1090 l 328 1028 l 78 1028 z "},"ľ":{"ha":657,"x_min":63,"x_max":822,"o":"m 375 750 l 375 875 l 438 813 l 438 750 l 375 750 m 375 625 l 375 750 l 438 688 l 438 625 l 375 625 m 63 375 l 63 1000 l 375 1000 l 438 938 l 438 875 l 375 875 l 375 938 l 125 938 l 125 438 l 63 375 m 375 500 l 375 625 l 438 563 l 438 500 l 375 500 m 375 375 l 375 500 l 438 438 l 438 375 l 375 375 m 375 250 l 375 375 l 438 313 l 438 250 l 375 250 m 375 125 l 375 250 l 438 188 l 438 125 l 375 125 m 63 0 l 63 375 l 125 375 l 125 63 l 375 63 l 375 125 l 438 63 l 375 0 l 63 0 m 510 743 l 635 743 l 635 806 l 697 806 l 697 931 l 510 931 l 510 743 m 447 681 l 447 931 l 510 993 l 822 993 l 822 931 l 760 931 l 822 868 l 760 868 l 760 743 l 697 743 l 635 681 l 447 681 z "},"ļ":{"ha":449,"x_min":42,"x_max":438,"o":"m 375 750 l 375 875 l 438 813 l 438 750 l 375 750 m 375 625 l 375 750 l 438 688 l 438 625 l 375 625 m 63 375 l 63 1000 l 375 1000 l 438 938 l 438 875 l 375 875 l 375 938 l 125 938 l 125 438 l 63 375 m 375 500 l 375 625 l 438 563 l 438 500 l 375 500 m 375 375 l 375 500 l 438 438 l 438 375 l 375 375 m 375 250 l 375 375 l 438 313 l 438 250 l 375 250 m 375 125 l 375 250 l 438 188 l 438 125 l 375 125 m 63 0 l 63 375 l 125 375 l 125 63 l 375 63 l 375 125 l 438 63 l 375 0 l 63 0 m 104 -125 l 104 -312 l 229 -312 l 229 -250 l 292 -250 l 292 -125 l 104 -125 m 42 -125 l 104 -62 l 417 -62 l 417 -125 l 354 -125 l 417 -187 l 354 -187 l 354 -312 l 292 -312 l 229 -375 l 42 -375 l 42 -125 z "},"ŀ":{"ha":694,"x_min":63,"x_max":699,"o":"m 375 750 l 375 875 l 438 813 l 438 750 l 375 750 m 375 625 l 375 750 l 438 688 l 438 625 l 375 625 m 63 375 l 63 1000 l 375 1000 l 438 938 l 438 875 l 375 875 l 375 938 l 125 938 l 125 438 l 63 375 m 375 500 l 375 625 l 438 563 l 438 500 l 375 500 m 375 375 l 375 500 l 438 438 l 438 375 l 375 375 m 375 250 l 375 375 l 438 313 l 438 250 l 375 250 m 375 125 l 375 250 l 438 188 l 438 125 l 375 125 m 63 0 l 63 375 l 125 375 l 125 63 l 375 63 l 375 125 l 438 63 l 375 0 l 63 0 m 636 500 l 636 625 l 699 563 l 699 500 l 636 500 m 449 375 l 449 625 l 511 625 l 511 438 l 636 438 l 636 500 l 699 438 l 636 375 l 449 375 z "},"ł":{"ha":556,"x_min":0,"x_max":563,"o":"m 63 938 l 125 1000 l 125 938 l 63 938 m 500 625 l 438 688 l 438 938 l 125 938 l 188 1000 l 500 1000 l 500 688 l 563 625 l 500 625 m 500 500 l 500 563 l 563 500 l 500 500 m 63 63 l 63 250 l 0 313 l 0 563 l 63 563 l 63 938 l 125 875 l 125 500 l 63 500 l 63 313 l 125 250 l 125 63 l 438 63 l 438 438 l 500 500 l 500 0 l 125 0 l 63 63 z "},"m":{"ha":1303,"x_min":63,"x_max":1250,"o":"m 63 0 l 63 750 l 313 750 l 375 688 l 375 750 l 688 750 l 750 688 l 813 688 l 813 750 l 1125 750 l 1188 688 l 1250 688 l 1250 625 l 1125 625 l 1125 688 l 875 688 l 813 625 l 688 625 l 688 688 l 438 688 l 375 625 l 313 625 l 313 688 l 125 688 l 125 63 l 250 63 l 188 0 l 63 0 m 1188 500 l 1188 625 l 1250 563 l 1250 500 l 1188 500 m 1188 375 l 1188 500 l 1250 438 l 1250 375 l 1188 375 m 1188 250 l 1188 375 l 1250 313 l 1250 250 l 1188 250 m 1188 125 l 1188 250 l 1250 188 l 1250 125 l 1188 125 m 250 0 l 250 63 l 375 63 l 375 500 l 438 500 l 500 438 l 500 63 l 813 63 l 813 500 l 875 500 l 938 438 l 938 63 l 1188 63 l 1188 125 l 1250 63 l 1188 0 l 875 0 l 875 63 l 813 0 l 438 0 l 438 63 l 375 0 l 250 0 z "},"n":{"ha":936,"x_min":63,"x_max":938,"o":"m 875 250 l 875 375 l 938 313 l 938 250 l 875 250 m 875 125 l 875 250 l 938 188 l 938 125 l 875 125 m 63 0 l 63 750 l 375 750 l 438 688 l 438 750 l 750 750 l 813 688 l 875 688 l 875 500 l 938 438 l 938 375 l 875 375 l 875 438 l 813 500 l 813 625 l 750 625 l 750 688 l 500 688 l 438 625 l 375 625 l 375 688 l 125 688 l 125 63 l 375 63 l 375 500 l 500 500 l 563 438 l 563 63 l 875 63 l 875 125 l 938 63 l 875 0 l 500 0 l 500 438 l 438 438 l 438 63 l 375 0 l 63 0 z "},"ń":{"ha":936,"x_min":63,"x_max":938,"o":"m 875 250 l 875 375 l 938 313 l 938 250 l 875 250 m 875 125 l 875 250 l 938 188 l 938 125 l 875 125 m 63 0 l 63 750 l 375 750 l 438 688 l 438 750 l 750 750 l 813 688 l 875 688 l 875 500 l 938 438 l 938 375 l 875 375 l 875 438 l 813 500 l 813 625 l 750 625 l 750 688 l 500 688 l 438 625 l 375 625 l 375 688 l 125 688 l 125 63 l 375 63 l 375 500 l 500 500 l 563 438 l 563 63 l 875 63 l 875 125 l 938 63 l 875 0 l 500 0 l 500 438 l 438 438 l 438 63 l 375 0 l 63 0 m 325 813 l 325 938 l 388 938 l 388 1063 l 575 1063 l 575 1000 l 450 1000 l 450 875 l 575 875 l 575 938 l 700 938 l 763 1000 l 763 1063 l 825 1000 l 763 938 l 763 875 l 638 875 l 575 813 l 325 813 z "},"ŉ":{"ha":936,"x_min":-187,"x_max":938,"o":"m 63 813 l 125 875 l 125 1000 l -62 1000 l -62 875 l -125 813 l 63 813 m 875 250 l 875 375 l 938 313 l 938 250 l 875 250 m 875 125 l 875 250 l 938 188 l 938 125 l 875 125 m 63 0 l 63 750 l -125 750 l -187 813 l -125 875 l -125 1063 l 125 1063 l 188 1000 l 188 875 l 125 813 l 125 750 l 375 750 l 438 688 l 438 750 l 750 750 l 813 688 l 875 688 l 875 500 l 938 438 l 938 375 l 875 375 l 875 438 l 813 500 l 813 625 l 750 625 l 750 688 l 500 688 l 438 625 l 375 625 l 375 688 l 125 688 l 125 63 l 375 63 l 375 500 l 500 500 l 563 438 l 563 63 l 875 63 l 875 125 l 938 63 l 875 0 l 500 0 l 500 438 l 438 438 l 438 63 l 375 0 l 63 0 z "},"ň":{"ha":936,"x_min":63,"x_max":938,"o":"m 875 250 l 875 375 l 938 313 l 938 250 l 875 250 m 875 125 l 875 250 l 938 188 l 938 125 l 875 125 m 63 0 l 63 750 l 375 750 l 438 688 l 438 750 l 750 750 l 813 688 l 875 688 l 875 500 l 938 438 l 938 375 l 875 375 l 875 438 l 813 500 l 813 625 l 750 625 l 750 688 l 500 688 l 438 625 l 375 625 l 375 688 l 125 688 l 125 63 l 375 63 l 375 500 l 500 500 l 563 438 l 563 63 l 875 63 l 875 125 l 938 63 l 875 0 l 500 0 l 500 438 l 438 438 l 438 63 l 375 0 l 63 0 m 293 813 l 293 875 l 231 938 l 168 938 l 168 1063 l 231 1063 l 231 1000 l 293 1000 l 293 938 l 356 875 l 606 875 l 606 938 l 668 938 l 731 1000 l 731 1063 l 793 1000 l 731 938 l 731 875 l 668 875 l 606 813 l 293 813 m 418 938 l 418 1000 l 293 1000 l 231 1063 l 418 1063 l 481 1000 l 481 1063 l 668 1063 l 668 1000 l 543 1000 l 481 938 l 418 938 z "},"ņ":{"ha":936,"x_min":63,"x_max":938,"o":"m 875 250 l 875 375 l 938 313 l 938 250 l 875 250 m 875 125 l 875 250 l 938 188 l 938 125 l 875 125 m 63 0 l 63 750 l 375 750 l 438 688 l 438 750 l 750 750 l 813 688 l 875 688 l 875 500 l 938 438 l 938 375 l 875 375 l 875 438 l 813 500 l 813 625 l 750 625 l 750 688 l 500 688 l 438 625 l 375 625 l 375 688 l 125 688 l 125 63 l 375 63 l 375 500 l 500 500 l 563 438 l 563 63 l 875 63 l 875 125 l 938 63 l 875 0 l 500 0 l 500 438 l 438 438 l 438 63 l 375 0 l 63 0 m 356 -125 l 356 -312 l 481 -312 l 481 -250 l 543 -250 l 543 -125 l 356 -125 m 293 -125 l 356 -62 l 668 -62 l 668 -125 l 606 -125 l 668 -187 l 606 -187 l 606 -312 l 543 -312 l 481 -375 l 293 -375 l 293 -125 z "},"ñ":{"ha":936,"x_min":63,"x_max":938,"o":"m 875 250 l 875 375 l 938 313 l 938 250 l 875 250 m 875 125 l 875 250 l 938 188 l 938 125 l 875 125 m 63 0 l 63 750 l 375 750 l 438 688 l 438 750 l 750 750 l 813 688 l 875 688 l 875 500 l 938 438 l 938 375 l 875 375 l 875 438 l 813 500 l 813 625 l 750 625 l 750 688 l 500 688 l 438 625 l 375 625 l 375 688 l 125 688 l 125 63 l 375 63 l 375 500 l 500 500 l 563 438 l 563 63 l 875 63 l 875 125 l 938 63 l 875 0 l 500 0 l 500 438 l 438 438 l 438 63 l 375 0 l 63 0 m 744 1000 l 682 1063 l 744 1063 l 744 1000 m 432 1000 l 369 1063 l 619 1063 l 619 1000 l 432 1000 m 182 813 l 182 1063 l 369 1063 l 369 1000 l 244 1000 l 244 875 l 682 875 l 682 938 l 744 1000 l 744 875 l 682 813 l 182 813 z "},"ŋ":{"ha":936,"x_min":63,"x_max":938,"o":"m 875 313 l 875 438 l 938 375 l 938 313 l 875 313 m 875 188 l 875 313 l 938 250 l 938 188 l 875 188 m 875 63 l 875 188 l 938 125 l 938 63 l 875 63 m 500 0 l 500 438 l 438 438 l 438 0 l 500 0 m 63 63 l 63 688 l 125 750 l 438 750 l 438 688 l 500 750 l 813 750 l 813 688 l 875 625 l 875 500 l 938 500 l 938 438 l 813 438 l 813 625 l 750 688 l 500 688 l 500 625 l 438 625 l 375 688 l 125 688 l 125 63 l 375 63 l 375 438 l 438 500 l 563 500 l 563 0 l 500 -62 l 375 -62 l 375 -250 l 688 -250 l 688 -187 l 750 -187 l 813 -125 l 813 -62 l 875 0 l 875 63 l 938 0 l 875 -62 l 875 -125 l 813 -187 l 813 -250 l 750 -250 l 688 -312 l 313 -312 l 313 -62 l 375 0 l 125 0 l 63 63 z "},"o":{"ha":892,"x_min":0,"x_max":875,"o":"m 625 625 l 625 688 l 813 688 l 813 625 l 875 563 l 813 563 l 750 625 l 625 625 m 813 438 l 813 500 l 875 438 l 813 438 m 500 250 l 500 438 l 438 500 l 438 250 l 500 250 m 125 0 l 125 63 l 63 125 l 63 188 l 0 250 l 0 500 l 63 563 l 63 625 l 125 688 l 250 688 l 188 625 l 125 625 l 125 563 l 63 500 l 63 250 l 125 188 l 125 125 l 188 63 l 313 63 l 313 0 l 563 0 l 625 63 l 688 63 l 688 125 l 750 125 l 813 188 l 813 63 l 750 63 l 688 0 l 625 0 l 625 -62 l 313 -62 l 250 0 l 125 0 m 813 313 l 813 375 l 875 313 l 813 313 m 813 188 l 813 250 l 875 188 l 813 188 m 375 250 l 375 500 l 438 563 l 500 563 l 500 500 l 563 438 l 563 188 l 438 188 l 375 250 z "},"ó":{"ha":892,"x_min":0,"x_max":875,"o":"m 625 625 l 625 688 l 813 688 l 813 625 l 875 563 l 813 563 l 750 625 l 625 625 m 813 438 l 813 500 l 875 438 l 813 438 m 500 250 l 500 438 l 438 500 l 438 250 l 500 250 m 125 0 l 125 63 l 63 125 l 63 188 l 0 250 l 0 500 l 63 563 l 63 625 l 125 688 l 250 688 l 188 625 l 125 625 l 125 563 l 63 500 l 63 250 l 125 188 l 125 125 l 188 63 l 313 63 l 313 0 l 563 0 l 625 63 l 688 63 l 688 125 l 750 125 l 813 188 l 813 63 l 750 63 l 688 0 l 625 0 l 625 -62 l 313 -62 l 250 0 l 125 0 m 813 313 l 813 375 l 875 313 l 813 313 m 813 188 l 813 250 l 875 188 l 813 188 m 375 250 l 375 500 l 438 563 l 500 563 l 500 500 l 563 438 l 563 188 l 438 188 l 375 250 m 299 813 l 299 938 l 361 938 l 361 1063 l 549 1063 l 549 1000 l 424 1000 l 424 875 l 549 875 l 549 938 l 674 938 l 736 1000 l 736 1063 l 799 1000 l 736 938 l 736 875 l 611 875 l 549 813 l 299 813 z "},"ŏ":{"ha":892,"x_min":0,"x_max":875,"o":"m 625 625 l 625 688 l 813 688 l 813 625 l 875 563 l 813 563 l 750 625 l 625 625 m 813 438 l 813 500 l 875 438 l 813 438 m 500 250 l 500 438 l 438 500 l 438 250 l 500 250 m 125 0 l 125 63 l 63 125 l 63 188 l 0 250 l 0 500 l 63 563 l 63 625 l 125 688 l 250 688 l 188 625 l 125 625 l 125 563 l 63 500 l 63 250 l 125 188 l 125 125 l 188 63 l 313 63 l 313 0 l 563 0 l 625 63 l 688 63 l 688 125 l 750 125 l 813 188 l 813 63 l 750 63 l 688 0 l 625 0 l 625 -62 l 313 -62 l 250 0 l 125 0 m 813 313 l 813 375 l 875 313 l 813 313 m 813 188 l 813 250 l 875 188 l 813 188 m 375 250 l 375 500 l 438 563 l 500 563 l 500 500 l 563 438 l 563 188 l 438 188 l 375 250 m 638 938 l 638 1063 l 700 1000 l 700 938 l 638 938 m 388 938 l 388 1000 l 325 1063 l 388 1063 l 450 1000 l 450 1063 l 575 1063 l 575 1000 l 513 1000 l 450 938 l 388 938 m 263 813 l 263 875 l 200 938 l 200 1063 l 263 1063 l 263 938 l 325 875 l 575 875 l 575 938 l 638 938 l 700 875 l 638 875 l 575 813 l 263 813 z "},"ô":{"ha":892,"x_min":0,"x_max":875,"o":"m 625 625 l 625 688 l 813 688 l 813 625 l 875 563 l 813 563 l 750 625 l 625 625 m 813 438 l 813 500 l 875 438 l 813 438 m 500 250 l 500 438 l 438 500 l 438 250 l 500 250 m 125 0 l 125 63 l 63 125 l 63 188 l 0 250 l 0 500 l 63 563 l 63 625 l 125 688 l 250 688 l 188 625 l 125 625 l 125 563 l 63 500 l 63 250 l 125 188 l 125 125 l 188 63 l 313 63 l 313 0 l 563 0 l 625 63 l 688 63 l 688 125 l 750 125 l 813 188 l 813 63 l 750 63 l 688 0 l 625 0 l 625 -62 l 313 -62 l 250 0 l 125 0 m 813 313 l 813 375 l 875 313 l 813 313 m 813 188 l 813 250 l 875 188 l 813 188 m 375 250 l 375 500 l 438 563 l 500 563 l 500 500 l 563 438 l 563 188 l 438 188 l 375 250 m 142 813 l 142 938 l 204 938 l 267 1000 l 267 1063 l 392 1063 l 392 1000 l 329 1000 l 267 938 l 267 875 l 392 875 l 392 938 l 454 938 l 517 875 l 704 875 l 642 938 l 579 938 l 579 1000 l 517 1063 l 579 1063 l 642 1000 l 704 1000 l 704 938 l 767 875 l 704 813 l 454 813 l 454 875 l 392 813 l 142 813 z "},"ö":{"ha":892,"x_min":0,"x_max":875,"o":"m 625 625 l 625 688 l 813 688 l 813 625 l 875 563 l 813 563 l 750 625 l 625 625 m 813 438 l 813 500 l 875 438 l 813 438 m 500 250 l 500 438 l 438 500 l 438 250 l 500 250 m 125 0 l 125 63 l 63 125 l 63 188 l 0 250 l 0 500 l 63 563 l 63 625 l 125 688 l 250 688 l 188 625 l 125 625 l 125 563 l 63 500 l 63 250 l 125 188 l 125 125 l 188 63 l 313 63 l 313 0 l 563 0 l 625 63 l 688 63 l 688 125 l 750 125 l 813 188 l 813 63 l 750 63 l 688 0 l 625 0 l 625 -62 l 313 -62 l 250 0 l 125 0 m 813 313 l 813 375 l 875 313 l 813 313 m 813 188 l 813 250 l 875 188 l 813 188 m 375 250 l 375 500 l 438 563 l 500 563 l 500 500 l 563 438 l 563 188 l 438 188 l 375 250 m 717 938 l 717 1000 l 654 1063 l 717 1063 l 779 1000 l 779 938 l 717 938 m 154 813 l 154 1063 l 217 1063 l 217 875 l 342 875 l 342 1063 l 404 1063 l 404 875 l 342 813 l 154 813 m 467 813 l 467 1063 l 529 1063 l 529 875 l 717 875 l 717 938 l 779 875 l 717 813 l 467 813 z "},"ò":{"ha":892,"x_min":0,"x_max":875,"o":"m 625 625 l 625 688 l 813 688 l 813 625 l 875 563 l 813 563 l 750 625 l 625 625 m 813 438 l 813 500 l 875 438 l 813 438 m 500 250 l 500 438 l 438 500 l 438 250 l 500 250 m 125 0 l 125 63 l 63 125 l 63 188 l 0 250 l 0 500 l 63 563 l 63 625 l 125 688 l 250 688 l 188 625 l 125 625 l 125 563 l 63 500 l 63 250 l 125 188 l 125 125 l 188 63 l 313 63 l 313 0 l 563 0 l 625 63 l 688 63 l 688 125 l 750 125 l 813 188 l 813 63 l 750 63 l 688 0 l 625 0 l 625 -62 l 313 -62 l 250 0 l 125 0 m 813 313 l 813 375 l 875 313 l 813 313 m 813 188 l 813 250 l 875 188 l 813 188 m 375 250 l 375 500 l 438 563 l 500 563 l 500 500 l 563 438 l 563 188 l 438 188 l 375 250 m 278 813 l 278 875 l 215 875 l 153 938 l 90 938 l 90 1063 l 153 1063 l 153 1000 l 215 1000 l 215 938 l 278 938 l 340 875 l 528 875 l 465 938 l 465 1000 l 403 1000 l 340 1063 l 465 1063 l 528 1000 l 528 938 l 590 875 l 528 813 l 278 813 z "},"ő":{"ha":892,"x_min":0,"x_max":894,"o":"m 625 625 l 625 688 l 813 688 l 813 625 l 875 563 l 813 563 l 750 625 l 625 625 m 813 438 l 813 500 l 875 438 l 813 438 m 500 250 l 500 438 l 438 500 l 438 250 l 500 250 m 125 0 l 125 63 l 63 125 l 63 188 l 0 250 l 0 500 l 63 563 l 63 625 l 125 688 l 250 688 l 188 625 l 125 625 l 125 563 l 63 500 l 63 250 l 125 188 l 125 125 l 188 63 l 313 63 l 313 0 l 563 0 l 625 63 l 688 63 l 688 125 l 750 125 l 813 188 l 813 63 l 750 63 l 688 0 l 625 0 l 625 -62 l 313 -62 l 250 0 l 125 0 m 813 313 l 813 375 l 875 313 l 813 313 m 813 188 l 813 250 l 875 188 l 813 188 m 375 250 l 375 500 l 438 563 l 500 563 l 500 500 l 563 438 l 563 188 l 438 188 l 375 250 m 207 938 l 207 1063 l 332 1063 l 332 1000 l 269 1000 l 207 938 m 457 938 l 519 938 l 519 1000 l 457 938 m 144 813 l 144 938 l 207 938 l 207 875 l 332 875 l 332 938 l 394 938 l 457 1000 l 457 1063 l 644 1063 l 644 1000 l 582 1000 l 582 875 l 707 875 l 707 938 l 769 938 l 832 1000 l 832 1063 l 894 1000 l 832 938 l 832 875 l 769 875 l 707 813 l 457 813 l 457 875 l 394 875 l 332 813 l 144 813 z "},"ō":{"ha":892,"x_min":0,"x_max":875,"o":"m 625 625 l 625 688 l 813 688 l 813 625 l 875 563 l 813 563 l 750 625 l 625 625 m 813 438 l 813 500 l 875 438 l 813 438 m 500 250 l 500 438 l 438 500 l 438 250 l 500 250 m 125 0 l 125 63 l 63 125 l 63 188 l 0 250 l 0 500 l 63 563 l 63 625 l 125 688 l 250 688 l 188 625 l 125 625 l 125 563 l 63 500 l 63 250 l 125 188 l 125 125 l 188 63 l 313 63 l 313 0 l 563 0 l 625 63 l 688 63 l 688 125 l 750 125 l 813 188 l 813 63 l 750 63 l 688 0 l 625 0 l 625 -62 l 313 -62 l 250 0 l 125 0 m 813 313 l 813 375 l 875 313 l 813 313 m 813 188 l 813 250 l 875 188 l 813 188 m 375 250 l 375 500 l 438 563 l 500 563 l 500 500 l 563 438 l 563 188 l 438 188 l 375 250 m 179 813 l 179 1063 l 679 1063 l 742 1000 l 742 938 l 679 938 l 679 1000 l 242 1000 l 242 875 l 679 875 l 679 938 l 742 875 l 679 813 l 179 813 z "},"ø":{"ha":892,"x_min":0,"x_max":875,"o":"m 813 438 l 813 500 l 875 438 l 813 438 m 813 313 l 813 375 l 875 313 l 813 313 m 0 0 l 63 63 l 63 188 l 0 250 l 0 500 l 63 563 l 63 625 l 125 688 l 188 688 l 188 750 l 813 750 l 875 688 l 813 688 l 813 625 l 875 563 l 813 563 l 750 625 l 750 688 l 250 688 l 188 625 l 125 625 l 125 563 l 63 500 l 63 250 l 125 188 l 125 63 l 63 0 l 125 0 l 188 63 l 313 63 l 313 0 l 563 0 l 625 63 l 688 63 l 688 125 l 750 125 l 813 188 l 813 63 l 750 63 l 688 0 l 625 0 l 625 -62 l 313 -62 l 250 0 l 188 0 l 188 -62 l 63 -62 l 0 0 m 438 250 l 500 250 l 500 313 l 438 250 m 813 188 l 813 250 l 875 188 l 813 188 m 375 375 l 375 500 l 438 563 l 500 563 l 500 438 l 438 375 l 375 375 m 375 250 l 438 313 l 438 375 l 500 375 l 563 313 l 563 188 l 438 188 l 375 250 z "},"ǿ":{"ha":892,"x_min":0,"x_max":875,"o":"m 813 438 l 813 500 l 875 438 l 813 438 m 813 313 l 813 375 l 875 313 l 813 313 m 0 0 l 63 63 l 63 188 l 0 250 l 0 500 l 63 563 l 63 625 l 125 688 l 188 688 l 188 750 l 813 750 l 875 688 l 813 688 l 813 625 l 875 563 l 813 563 l 750 625 l 750 688 l 250 688 l 188 625 l 125 625 l 125 563 l 63 500 l 63 250 l 125 188 l 125 63 l 63 0 l 125 0 l 188 63 l 313 63 l 313 0 l 563 0 l 625 63 l 688 63 l 688 125 l 750 125 l 813 188 l 813 63 l 750 63 l 688 0 l 625 0 l 625 -62 l 313 -62 l 250 0 l 188 0 l 188 -62 l 63 -62 l 0 0 m 438 250 l 500 250 l 500 313 l 438 250 m 813 188 l 813 250 l 875 188 l 813 188 m 375 375 l 375 500 l 438 563 l 500 563 l 500 438 l 438 375 l 375 375 m 375 250 l 438 313 l 438 375 l 500 375 l 563 313 l 563 188 l 438 188 l 375 250 m 299 813 l 299 938 l 361 938 l 361 1063 l 549 1063 l 549 1000 l 424 1000 l 424 875 l 549 875 l 549 938 l 674 938 l 736 1000 l 736 1063 l 799 1000 l 736 938 l 736 875 l 611 875 l 549 813 l 299 813 z "},"õ":{"ha":892,"x_min":0,"x_max":875,"o":"m 625 625 l 625 688 l 813 688 l 813 625 l 875 563 l 813 563 l 750 625 l 625 625 m 813 438 l 813 500 l 875 438 l 813 438 m 500 250 l 500 438 l 438 500 l 438 250 l 500 250 m 125 0 l 125 63 l 63 125 l 63 188 l 0 250 l 0 500 l 63 563 l 63 625 l 125 688 l 250 688 l 188 625 l 125 625 l 125 563 l 63 500 l 63 250 l 125 188 l 125 125 l 188 63 l 313 63 l 313 0 l 563 0 l 625 63 l 688 63 l 688 125 l 750 125 l 813 188 l 813 63 l 750 63 l 688 0 l 625 0 l 625 -62 l 313 -62 l 250 0 l 125 0 m 813 313 l 813 375 l 875 313 l 813 313 m 813 188 l 813 250 l 875 188 l 813 188 m 375 250 l 375 500 l 438 563 l 500 563 l 500 500 l 563 438 l 563 188 l 438 188 l 375 250 m 718 1000 l 656 1063 l 718 1063 l 718 1000 m 406 1000 l 343 1063 l 593 1063 l 593 1000 l 406 1000 m 156 813 l 156 1063 l 343 1063 l 343 1000 l 218 1000 l 218 875 l 656 875 l 656 938 l 718 1000 l 718 875 l 656 813 l 156 813 z "},"œ":{"ha":1338,"x_min":0,"x_max":1313,"o":"m 625 625 l 625 688 l 750 688 l 688 625 l 625 625 m 438 188 l 375 250 l 500 250 l 500 438 l 438 500 l 438 313 l 375 313 l 375 500 l 438 563 l 500 563 l 500 500 l 563 438 l 563 188 l 438 188 m 125 0 l 125 63 l 63 125 l 63 188 l 0 250 l 0 500 l 63 563 l 63 625 l 125 688 l 250 688 l 188 625 l 125 625 l 125 563 l 63 500 l 63 250 l 125 188 l 125 125 l 188 63 l 313 63 l 313 0 l 563 0 l 625 63 l 813 63 l 813 0 l 1000 0 l 1063 63 l 1125 63 l 1125 125 l 1250 125 l 1250 188 l 875 188 l 813 250 l 875 313 l 1000 313 l 1000 250 l 1063 313 l 1063 250 l 1125 313 l 1250 313 l 1250 563 l 1188 625 l 1063 625 l 1063 688 l 1250 688 l 1250 625 l 1313 563 l 1313 313 l 1250 250 l 1313 188 l 1313 63 l 1188 63 l 1125 0 l 1063 0 l 1063 -62 l 813 -62 l 750 0 l 625 0 l 625 -62 l 313 -62 l 250 0 l 125 0 m 813 500 l 875 563 l 1000 563 l 1000 438 l 875 438 l 813 500 z "},"p":{"ha":918,"x_min":63,"x_max":875,"o":"m 813 563 l 813 625 l 750 688 l 813 688 l 875 625 l 875 563 l 813 563 m 375 625 l 313 688 l 438 688 l 438 625 l 375 625 m 813 438 l 813 563 l 875 500 l 875 438 l 813 438 m 813 313 l 813 438 l 875 375 l 875 313 l 813 313 m 63 313 l 63 688 l 125 688 l 125 375 l 63 313 m 813 188 l 813 313 l 875 250 l 875 188 l 813 188 m 375 188 l 375 438 l 438 500 l 563 500 l 563 250 l 500 188 l 375 188 m 63 313 l 125 313 l 125 -250 l 375 -250 l 375 63 l 438 63 l 500 0 l 625 0 l 625 63 l 750 63 l 813 125 l 813 188 l 875 125 l 813 63 l 813 0 l 688 0 l 625 -62 l 438 -62 l 438 -250 l 375 -312 l 63 -312 l 63 313 m 500 250 l 500 438 l 438 438 l 438 250 l 500 250 z "},"þ":{"ha":919,"x_min":63,"x_max":875,"o":"m 375 688 l 375 938 l 438 938 l 438 750 l 813 750 l 813 625 l 750 688 l 375 688 m 813 563 l 813 625 l 875 625 l 875 563 l 813 563 m 813 438 l 813 563 l 875 500 l 875 438 l 813 438 m 813 188 l 813 313 l 875 250 l 875 188 l 813 188 m 375 188 l 375 438 l 438 500 l 563 500 l 563 250 l 500 188 l 375 188 m 125 -250 l 375 -250 l 375 63 l 438 63 l 500 0 l 625 0 l 625 -62 l 438 -62 l 438 -250 l 375 -312 l 63 -312 l 63 938 l 125 938 l 125 -250 m 625 0 l 625 63 l 750 63 l 813 125 l 813 188 l 875 125 l 813 63 l 813 0 l 625 0 m 500 250 l 500 438 l 438 438 l 438 250 l 500 250 z "},"q":{"ha":918,"x_min":0,"x_max":875,"o":"m 438 625 l 438 688 l 563 688 l 500 625 l 438 625 m 813 563 l 813 625 l 875 563 l 813 563 m 813 438 l 813 500 l 875 438 l 813 438 m 813 313 l 813 375 l 875 313 l 813 313 m 438 250 l 500 313 l 500 438 l 438 438 l 438 250 m 813 188 l 813 250 l 875 188 l 813 188 m 813 63 l 813 125 l 875 63 l 813 63 m 813 -62 l 813 0 l 875 -62 l 813 -62 m 813 -187 l 813 -125 l 875 -187 l 813 -187 m 125 0 l 125 63 l 63 125 l 63 188 l 0 250 l 0 500 l 63 563 l 63 625 l 125 688 l 188 688 l 125 625 l 125 563 l 63 500 l 63 250 l 125 188 l 125 125 l 188 63 l 250 63 l 250 0 l 375 0 l 438 63 l 563 63 l 563 -250 l 750 -250 l 813 -312 l 563 -312 l 500 -250 l 500 0 l 438 0 l 438 -62 l 250 -62 l 188 0 l 125 0 m 813 -312 l 813 -250 l 875 -312 l 813 -312 m 375 250 l 375 500 l 500 500 l 563 438 l 563 313 l 500 250 l 500 188 l 438 188 l 375 250 z "},"r":{"ha":719,"x_min":63,"x_max":750,"o":"m 688 500 l 688 625 l 750 563 l 750 500 l 688 500 m 63 0 l 63 750 l 375 750 l 438 688 l 438 750 l 688 750 l 750 688 l 750 625 l 688 625 l 688 688 l 500 688 l 438 625 l 375 625 l 375 688 l 125 688 l 125 63 l 375 63 l 375 375 l 438 438 l 625 438 l 625 500 l 688 500 l 750 438 l 688 438 l 625 375 l 438 375 l 438 63 l 375 0 l 63 0 z "},"ŕ":{"ha":719,"x_min":63,"x_max":750,"o":"m 688 500 l 688 625 l 750 563 l 750 500 l 688 500 m 63 0 l 63 750 l 375 750 l 438 688 l 438 750 l 688 750 l 750 688 l 750 625 l 688 625 l 688 688 l 500 688 l 438 625 l 375 625 l 375 688 l 125 688 l 125 63 l 375 63 l 375 375 l 438 438 l 625 438 l 625 500 l 688 500 l 750 438 l 688 438 l 625 375 l 438 375 l 438 63 l 375 0 l 63 0 m 238 813 l 238 938 l 300 938 l 300 1063 l 488 1063 l 488 1000 l 363 1000 l 363 875 l 488 875 l 488 938 l 613 938 l 675 1000 l 675 1063 l 738 1000 l 675 938 l 675 875 l 550 875 l 488 813 l 238 813 z "},"ř":{"ha":719,"x_min":63,"x_max":750,"o":"m 688 500 l 688 625 l 750 563 l 750 500 l 688 500 m 63 0 l 63 750 l 375 750 l 438 688 l 438 750 l 688 750 l 750 688 l 750 625 l 688 625 l 688 688 l 500 688 l 438 625 l 375 625 l 375 688 l 125 688 l 125 63 l 375 63 l 375 375 l 438 438 l 625 438 l 625 500 l 688 500 l 750 438 l 688 438 l 625 375 l 438 375 l 438 63 l 375 0 l 63 0 m 206 813 l 206 875 l 143 938 l 81 938 l 81 1063 l 143 1063 l 143 1000 l 206 1000 l 206 938 l 268 875 l 518 875 l 518 938 l 581 938 l 643 1000 l 643 1063 l 706 1000 l 643 938 l 643 875 l 581 875 l 518 813 l 206 813 m 331 938 l 331 1000 l 206 1000 l 143 1063 l 331 1063 l 393 1000 l 393 1063 l 581 1063 l 581 1000 l 456 1000 l 393 938 l 331 938 z "},"ŗ":{"ha":719,"x_min":44,"x_max":750,"o":"m 688 500 l 688 625 l 750 563 l 750 500 l 688 500 m 63 0 l 63 750 l 375 750 l 438 688 l 438 750 l 688 750 l 750 688 l 750 625 l 688 625 l 688 688 l 500 688 l 438 625 l 375 625 l 375 688 l 125 688 l 125 63 l 375 63 l 375 375 l 438 438 l 625 438 l 625 500 l 688 500 l 750 438 l 688 438 l 625 375 l 438 375 l 438 63 l 375 0 l 63 0 m 107 -125 l 107 -312 l 232 -312 l 232 -250 l 294 -250 l 294 -125 l 107 -125 m 44 -125 l 107 -62 l 419 -62 l 419 -125 l 357 -125 l 419 -187 l 357 -187 l 357 -312 l 294 -312 l 232 -375 l 44 -375 l 44 -125 z "},"s":{"ha":819,"x_min":0,"x_max":813,"o":"m 375 438 l 375 563 l 688 563 l 688 625 l 625 625 l 563 688 l 688 688 l 750 625 l 813 625 l 813 563 l 750 563 l 813 500 l 625 500 l 625 438 l 688 438 l 750 375 l 813 375 l 813 313 l 688 313 l 688 375 l 625 375 l 563 438 l 375 438 m 750 188 l 750 313 l 813 250 l 813 188 l 750 188 m 750 125 l 750 188 l 813 125 l 750 125 m 0 63 l 0 188 l 63 250 l 188 250 l 125 313 l 63 313 l 63 375 l 0 438 l 0 563 l 63 625 l 63 688 l 188 688 l 188 625 l 125 625 l 63 563 l 63 438 l 125 375 l 188 375 l 188 313 l 375 313 l 438 250 l 375 188 l 63 188 l 63 125 l 125 125 l 125 63 l 250 63 l 313 0 l 500 0 l 500 63 l 688 63 l 750 125 l 750 0 l 563 0 l 500 -62 l 250 -62 l 250 0 l 125 0 l 63 63 l 0 63 z "},"ś":{"ha":819,"x_min":0,"x_max":813,"o":"m 375 438 l 375 563 l 688 563 l 688 625 l 625 625 l 563 688 l 688 688 l 750 625 l 813 625 l 813 563 l 750 563 l 813 500 l 625 500 l 625 438 l 688 438 l 750 375 l 813 375 l 813 313 l 688 313 l 688 375 l 625 375 l 563 438 l 375 438 m 750 188 l 750 313 l 813 250 l 813 188 l 750 188 m 750 125 l 750 188 l 813 125 l 750 125 m 0 63 l 0 188 l 63 250 l 188 250 l 125 313 l 63 313 l 63 375 l 0 438 l 0 563 l 63 625 l 63 688 l 188 688 l 188 625 l 125 625 l 63 563 l 63 438 l 125 375 l 188 375 l 188 313 l 375 313 l 438 250 l 375 188 l 63 188 l 63 125 l 125 125 l 125 63 l 250 63 l 313 0 l 500 0 l 500 63 l 688 63 l 750 125 l 750 0 l 563 0 l 500 -62 l 250 -62 l 250 0 l 125 0 l 63 63 l 0 63 m 263 813 l 263 938 l 325 938 l 325 1063 l 513 1063 l 513 1000 l 388 1000 l 388 875 l 513 875 l 513 938 l 638 938 l 700 1000 l 700 1063 l 763 1000 l 700 938 l 700 875 l 575 875 l 513 813 l 263 813 z "},"š":{"ha":819,"x_min":0,"x_max":813,"o":"m 375 438 l 375 563 l 688 563 l 688 625 l 625 625 l 563 688 l 688 688 l 750 625 l 813 625 l 813 563 l 750 563 l 813 500 l 625 500 l 625 438 l 688 438 l 750 375 l 813 375 l 813 313 l 688 313 l 688 375 l 625 375 l 563 438 l 375 438 m 750 188 l 750 313 l 813 250 l 813 188 l 750 188 m 750 125 l 750 188 l 813 125 l 750 125 m 0 63 l 0 188 l 63 250 l 188 250 l 125 313 l 63 313 l 63 375 l 0 438 l 0 563 l 63 625 l 63 688 l 188 688 l 188 625 l 125 625 l 63 563 l 63 438 l 125 375 l 188 375 l 188 313 l 375 313 l 438 250 l 375 188 l 63 188 l 63 125 l 125 125 l 125 63 l 250 63 l 313 0 l 500 0 l 500 63 l 688 63 l 750 125 l 750 0 l 563 0 l 500 -62 l 250 -62 l 250 0 l 125 0 l 63 63 l 0 63 m 231 813 l 231 875 l 168 938 l 106 938 l 106 1063 l 168 1063 l 168 1000 l 231 1000 l 231 938 l 293 875 l 543 875 l 543 938 l 606 938 l 668 1000 l 668 1063 l 731 1000 l 668 938 l 668 875 l 606 875 l 543 813 l 231 813 m 356 938 l 356 1000 l 231 1000 l 168 1063 l 356 1063 l 418 1000 l 418 1063 l 606 1063 l 606 1000 l 481 1000 l 418 938 l 356 938 z "},"ş":{"ha":819,"x_min":0,"x_max":813,"o":"m 750 188 l 750 313 l 813 250 l 813 188 l 750 188 m 0 63 l 0 188 l 63 250 l 188 250 l 125 313 l 63 313 l 63 375 l 0 438 l 0 563 l 63 625 l 63 688 l 125 688 l 188 750 l 625 750 l 625 688 l 688 688 l 750 625 l 813 625 l 813 563 l 750 563 l 813 500 l 625 500 l 625 438 l 688 438 l 750 375 l 813 375 l 813 313 l 688 313 l 688 375 l 625 375 l 563 438 l 375 438 l 375 563 l 688 563 l 688 625 l 625 625 l 563 688 l 188 688 l 188 625 l 125 625 l 63 563 l 63 438 l 125 375 l 188 375 l 188 313 l 375 313 l 438 250 l 375 188 l 63 188 l 63 125 l 125 125 l 125 63 l 250 63 l 313 0 l 375 0 l 375 -125 l 500 -125 l 438 -62 l 500 0 l 500 63 l 688 63 l 750 125 l 750 188 l 813 125 l 750 63 l 750 0 l 563 0 l 500 -62 l 563 -125 l 563 -250 l 500 -312 l 250 -312 l 250 -187 l 313 -187 l 313 -62 l 250 -62 l 250 0 l 125 0 l 63 63 l 0 63 z "},"ŝ":{"ha":819,"x_min":0,"x_max":813,"o":"m 375 438 l 375 563 l 688 563 l 688 625 l 625 625 l 563 688 l 688 688 l 750 625 l 813 625 l 813 563 l 750 563 l 813 500 l 625 500 l 625 438 l 688 438 l 750 375 l 813 375 l 813 313 l 688 313 l 688 375 l 625 375 l 563 438 l 375 438 m 750 188 l 750 313 l 813 250 l 813 188 l 750 188 m 750 125 l 750 188 l 813 125 l 750 125 m 0 63 l 0 188 l 63 250 l 188 250 l 125 313 l 63 313 l 63 375 l 0 438 l 0 563 l 63 625 l 63 688 l 188 688 l 188 625 l 125 625 l 63 563 l 63 438 l 125 375 l 188 375 l 188 313 l 375 313 l 438 250 l 375 188 l 63 188 l 63 125 l 125 125 l 125 63 l 250 63 l 313 0 l 500 0 l 500 63 l 688 63 l 750 125 l 750 0 l 563 0 l 500 -62 l 250 -62 l 250 0 l 125 0 l 63 63 l 0 63 m 106 813 l 106 938 l 168 938 l 231 1000 l 231 1063 l 356 1063 l 356 1000 l 293 1000 l 231 938 l 231 875 l 356 875 l 356 938 l 418 938 l 481 875 l 668 875 l 606 938 l 543 938 l 543 1000 l 481 1063 l 543 1063 l 606 1000 l 668 1000 l 668 938 l 731 875 l 668 813 l 418 813 l 418 875 l 356 813 l 106 813 z "},"ș":{"ha":819,"x_min":0,"x_max":813,"o":"m 375 438 l 375 563 l 688 563 l 688 625 l 625 625 l 563 688 l 688 688 l 750 625 l 813 625 l 813 563 l 750 563 l 813 500 l 625 500 l 625 438 l 688 438 l 750 375 l 813 375 l 813 313 l 688 313 l 688 375 l 625 375 l 563 438 l 375 438 m 750 188 l 750 313 l 813 250 l 813 188 l 750 188 m 750 125 l 750 188 l 813 125 l 750 125 m 0 63 l 0 188 l 63 250 l 188 250 l 125 313 l 63 313 l 63 375 l 0 438 l 0 563 l 63 625 l 63 688 l 188 688 l 188 625 l 125 625 l 63 563 l 63 438 l 125 375 l 188 375 l 188 313 l 375 313 l 438 250 l 375 188 l 63 188 l 63 125 l 125 125 l 125 63 l 250 63 l 313 0 l 500 0 l 500 63 l 688 63 l 750 125 l 750 0 l 563 0 l 500 -62 l 250 -62 l 250 0 l 125 0 l 63 63 l 0 63 m 289 -125 l 289 -312 l 414 -312 l 414 -250 l 476 -250 l 476 -125 l 289 -125 m 226 -125 l 289 -62 l 601 -62 l 601 -125 l 539 -125 l 601 -187 l 539 -187 l 539 -312 l 476 -312 l 414 -375 l 226 -375 l 226 -125 z "},"ß":{"ha":947,"x_min":63,"x_max":938,"o":"m 63 625 l 63 875 l 125 875 l 188 938 l 188 1000 l 688 1000 l 750 938 l 813 938 l 813 875 l 875 813 l 875 500 l 938 438 l 938 375 l 875 375 l 875 438 l 813 500 l 813 813 l 750 875 l 688 875 l 688 938 l 250 938 l 188 875 l 188 813 l 125 813 l 125 688 l 63 625 m 500 625 l 500 688 l 438 688 l 438 625 l 500 625 m 875 250 l 875 375 l 938 313 l 938 250 l 875 250 m 500 250 l 563 313 l 500 375 l 438 375 l 438 250 l 500 250 m 63 0 l 63 625 l 125 625 l 125 63 l 375 63 l 313 0 l 63 0 m 375 0 l 375 63 l 750 63 l 750 125 l 813 125 l 875 188 l 875 250 l 938 188 l 875 125 l 875 63 l 813 63 l 750 0 l 375 0 m 438 563 l 375 625 l 375 750 l 500 750 l 563 688 l 563 563 l 438 563 m 375 250 l 375 375 l 438 438 l 563 438 l 563 375 l 625 313 l 563 250 l 563 188 l 438 188 l 375 250 z "},"ſ":{"ha":538,"x_min":0,"x_max":688,"o":"m 625 875 l 625 1000 l 688 938 l 688 875 l 625 875 m 125 0 l 125 438 l 63 438 l 0 500 l 0 750 l 125 750 l 125 875 l 188 938 l 188 1000 l 313 1000 l 375 1063 l 688 1063 l 688 1000 l 375 1000 l 375 938 l 250 938 l 188 875 l 188 688 l 63 688 l 63 500 l 125 500 l 188 438 l 188 63 l 438 63 l 438 750 l 500 813 l 625 813 l 625 875 l 688 813 l 625 750 l 500 750 l 500 63 l 438 0 l 125 0 z "}}}
